<?xml version="1.0" encoding="utf-8"?>
<!-- Generator: Adobe Illustrator 18.1.1, SVG Export Plug-In . SVG Version: 6.00 Build 0)  -->
<svg version="1.1" id="Layer_1" xmlns="http://www.w3.org/2000/svg" xmlns:xlink="http://www.w3.org/1999/xlink" x="0px" y="0px"
	 viewBox="0 0 414.3 457.6" enable-background="new 0 0 414.3 457.6" xml:space="preserve">
<g>
	<path fill="#FFFFFF" d="M131.5,81.5c1.5,3,3.9,5,6.7,6.7c5.3,3.1,10.9,5.5,16.7,7.1c7,2,14.1,1.9,21.2,0.7c5.2-0.9,10.1-2.4,14.7-5
		c2.1-1.2,4-2.7,5.3-4.8c4.5-7.3,7.7-15.1,8.7-23.7c0.3-2.3,0-4.6-0.5-6.9c-0.6-3-2.7-4.3-5.7-3.8c-1,0.2-2.1,0.5-2.9,1.1
		c-4.8,3.9-8.2,8.7-9.4,14.9c-0.5,2.5,0.6,4.2,2.8,4.8c2.1,0.6,4.6-0.4,5.4-2.4c0.1-0.3-0.1-0.8-0.2-1.3c-0.6,0.3-1,0.6-1.5,0.8
		c-0.9,0.4-1.7,1-2.7,0.2c-1-0.7-1-1.8-0.7-2.8c0.5-1.7,1.1-3.5,1.9-5.1c1.3-2.5,3.1-4.6,5.7-6c2.1-1.2,4.3-0.4,4.9,2
		c0.3,1.2,0.4,2.5,0.3,3.8c-2,17-15.4,27.1-26.3,29.9c-11.7,3-23,1.1-33.7-4.3c-2-1-3.9-2.3-5.6-3.7c-2.7-2.2-2.6-5.5,0-7.8
		c1.4-1.2,2.5-0.9,2.8,1c0.1,0.6-0.1,1.2-0.2,1.9c-0.1,0.5-0.3,1-0.4,1.6c2.3-0.1,2.9-1.6,3.4-3.1c0.9-2.5-0.6-4.7-3.3-4.9
		c-1.7-0.2-3.2,0.4-4.4,1.6C132.4,75.8,131.1,78.3,131.5,81.5c-0.4-0.5-0.7-1.2-1.3-1.6c-1-0.8-2-1.5-3.1-2.2
		c-0.3-0.2-1.2,0-1.3,0.2c-0.2,0.4-0.2,1.2,0.1,1.5c1.1,1.1,2.3,2.2,3.6,3.1C130.6,83.2,131.3,82.8,131.5,81.5z M198.5,179.9
		c0.1,0,0.1,0,0.2,0c0-4.5,0-9,0-13.4c0-1.8,0.1-3.5,0.4-5.3c0.4-2.5,1.6-3.8,4.1-3.9c3.8-0.1,7.7,0,11.5,0.4
		c3.2,0.3,5.7,2.2,6.9,5.3c0.9,2.4,1.4,4.9,2,7.4c0.3,1,0.3,2.1,0.6,3c0.3,1,1.2,1.4,2.3,1.3c1-0.1,1.6-0.7,1.8-1.7
		c0.1-0.8,0.1-1.6,0.1-2.4c-0.2-3.4-0.6-6.9-0.7-10.3c-0.1-6.3,0-12.6,0.1-18.9c0-1.4,0.2-2.9,0-4.3c-0.2-1.9-1.9-2.6-3.3-1.3
		c-0.7,0.6-1.3,1.6-1.7,2.5c-0.8,1.7-1.3,3.4-2.1,5.1c-1.3,2.8-3.4,4.9-6.4,5.7c-3.8,1-7.8,1-11.7,0.5c-1.9-0.2-3-1.4-3.4-3.2
		c-0.3-1.4-0.4-2.8-0.4-4.3c0-7.7,0-15.4,0-23c0-1.2,0.1-2.4,0.2-3.6c0.6-3.9,2.2-5.7,6.1-6.3c6.2-0.9,12.3-0.6,18.3,1.3
		c5.6,1.8,8.4,5.8,8.9,11.6c0.1,1.2,0.2,2.4,0.5,3.6c0.2,1.2,1.2,1.6,2.3,1.6c1.2,0,1.7-0.7,1.8-1.8c0.1-0.7,0.1-1.4,0.1-2.2
		c-0.1-5.6-0.1-11.2-0.2-16.8c0-0.8,0-1.6-0.2-2.4c-0.3-1.7-1-2.3-2.7-2.5c-1-0.1-2.1-0.2-3.1-0.1c-6.7,0.3-13.4,0.5-20.1,0.8
		c-11.3,0.5-22.5,0.5-33.8-0.5c-1.8-0.2-3.5-0.4-5.3-0.5c-2-0.1-3.3,1-3.5,2.8c-0.3,1.9,0.6,3.2,2.5,3.7c0.8,0.2,1.7,0.4,2.6,0.5
		c5.1,0.9,8.1,4,9.1,8.9c0.5,2.7,0.7,5.6,0.7,8.3c0.1,21.8,0,43.7,0,65.5c0,1.8-0.1,3.5-0.3,5.3c-0.6,5.1-2.9,9.1-7.6,11.5
		c-0.8,0.4-1.5,0.9-2.2,1.5c-1.2,1-1.5,2.8-1,4.2c0.5,1.3,1.5,1.8,3.3,1.8c0.5,0,1-0.1,1.4-0.1c11.5-1.6,22.9-1.7,34.5-0.4
		c3.4,0.4,6.9,0.6,10.3,0.5c7.7-0.1,13.5-3.4,17-10.5c2.1-4.4,3.5-9.1,4.2-13.9c0.2-1.2,0.2-2.4,0-3.6c-0.1-0.7-0.8-1.5-1.4-1.7
		c-0.6-0.1-1.5,0.4-1.9,0.9c-0.7,0.9-1.2,2.1-1.7,3.1c-1.5,3-3.4,5.8-5.9,8.1c-4.3,3.9-9.4,6.2-15.1,7.5c-3.9,0.8-7.7,1.2-11.7,0.5
		c-2.8-0.5-4.7-1.9-5.4-4.8c-0.2-0.8-0.4-1.6-0.4-2.3C198.9,192.4,198.7,186.1,198.5,179.9z M23.4,374.1c0.1,0,0.1,0,0.2,0
		c0-2.4,0-4.8,0-7.2c0-2.5,0-5,0.3-7.4c0.3-2.4,1.2-3.3,3.6-3.4c2.7-0.1,5.4,0,8.1,0.3c2.6,0.3,4.5,1.7,5.5,4.1c0.7,1.9,1.1,4,1.6,6
		c0.2,0.7,0.2,1.4,0.4,2.1c0.2,0.9,0.9,1.5,1.8,1.2c0.6-0.2,1.3-0.8,1.4-1.3c0.2-0.8,0.1-1.7,0.1-2.6c-0.6-7.7-1.1-15.5-0.3-23.2
		c0.1-0.9,0.1-1.8-0.1-2.6c-0.3-1.5-1.6-1.9-2.7-0.8c-0.5,0.5-0.9,1.3-1.2,2c-0.6,1.3-1,2.7-1.6,4c-1.3,2.8-3.6,4.5-6.7,4.8
		c-2.1,0.2-4.3,0.2-6.5,0.1c-1.9-0.1-2.9-1-3.3-2.9c-0.2-1.1-0.3-2.2-0.3-3.3c0-6,0-12,0-18c0-1.2,0.1-2.4,0.3-3.6
		c0.4-2.4,1.8-3.9,4.2-4.3c5-0.8,9.9-0.5,14.7,1.1c3,1,5,3.2,5.9,6.2c0.4,1.3,0.5,2.7,0.7,4c0.1,0.7,0.1,1.5,0.5,2.1
		c0.3,0.5,1.2,0.9,1.8,0.8c0.4,0,0.9-0.8,1.1-1.3c0.2-0.6,0.1-1.3,0.1-1.9c0-4-0.1-8-0.1-12c0-0.8,0-1.6,0-2.4
		c-0.2-2-0.8-2.7-2.8-2.8c-0.6,0-1.3,0-1.9,0c-4.7,0.2-9.4,0.6-14.1,0.6c-7.5,0.1-15,0-22.5-0.1c-2.8,0-5.6-0.4-8.4-0.6
		c-1.7-0.1-2.7,0.7-2.9,2.2c-0.2,1.5,0.6,2.5,2.1,3c0.6,0.2,1.2,0.3,1.9,0.4c4,0.7,6.2,3.2,6.9,7c0.4,2.1,0.5,4.3,0.5,6.4
		c0,17.4,0,34.7,0,52.1c0,1,0,1.9-0.1,2.9c-0.3,4.6-1.9,8.4-6.3,10.6c-0.6,0.3-1.2,0.8-1.7,1.3c-0.7,0.9-0.8,2.1-0.3,3.2
		c0.5,1,1.4,1.2,2.4,1.2c0.7,0,1.4-0.1,2.1-0.2c7.6-1,15.3-1.1,23-0.4c3.5,0.3,7,0.6,10.5,0.6c5.9,0,10.2-2.8,12.7-8.2
		c1.8-3.8,2.9-7.8,3.3-12c0.1-0.7,0-1.5-0.2-2.1c-0.1-0.5-0.6-1.1-1-1.1c-0.5,0-1.2,0.4-1.5,0.8c-0.5,0.5-0.7,1.2-1,1.9
		c-3.3,7.4-9.3,11.4-17,13c-2.8,0.6-5.7,0.8-8.6,0.2c-1.6-0.4-2.8-1.1-3.5-2.7c-0.3-0.8-0.6-1.7-0.6-2.5
		C23.7,384.2,23.5,379.1,23.4,374.1z M372.7,369.8C372.7,369.8,372.7,369.8,372.7,369.8c2.6,0,5.3,0,7.9,0c3.9,0,5,0.8,6.2,4.3
		c1.2,3.5,2.5,7.1,3.5,10.7c0.5,1.6,0.7,3.3,0.7,5c0,2.6-1.1,4.6-3.4,5.9c-0.8,0.4-1.5,0.8-2.3,1.3c-1.4,1-1.9,2.2-1.3,3.7
		c0.4,1.1,1,1.3,3,0.9c6.7-1.1,13.3-1.4,20.1-0.4c1.7,0.3,3.5,0.4,5.2,0.5c1.1,0.1,1.8-0.5,1.9-1.7c0.2-2.2-0.2-3-2.4-3.8
		c-3.4-1.1-5.5-3.5-6.6-6.7c-0.4-1.1-0.8-2.1-1.1-3.2c-8.3-24.4-16.6-48.9-24.9-73.3c-0.3-0.8-0.5-1.7-1-2.4c-0.3-0.5-1-1-1.4-1
		c-0.5,0-1,0.6-1.3,1.1c-0.3,0.4-0.4,1-0.6,1.6c-7.6,21.5-15.1,43-22.7,64.4c-1.5,4.1-3,8.3-4.5,12.4c-1.3,3.3-3.1,6.1-6.6,7.6
		c-0.7,0.3-1.3,1-1.6,1.7c-0.8,2.2,0.8,3.9,3.3,3.3c5-1.2,10-1.1,15-0.4c1.7,0.2,3.5,0.5,5.2,0.6c1.9,0.1,3.2-1.6,2.4-3.3
		c-0.3-0.7-1.1-1.3-1.9-1.6c-1.2-0.5-2.6-0.8-3.9-1.2c-4.1-1.6-5.7-4.5-4.7-8.7c1.1-4.4,2.3-8.8,3.7-13.2c1-3.1,2.4-4.1,5.7-4.1
		C367.1,369.8,369.9,369.8,372.7,369.8z M178.3,358.8c0.8-0.4,1.6-0.8,2.4-1.2c3.7-2.1,6-5.2,6.7-9.4c0.2-1.3,0.2-2.7,0.2-4.1
		c-0.1-7.7-4.4-13-11.9-14.7c-4.5-1-9.1-0.6-13.6-0.2c-4.3,0.3-8.6,0.5-12.9-0.1c-1-0.1-1.9-0.2-2.9-0.2c-1.4,0-1.9,0.4-2,1.5
		c-0.1,1.2,0.5,1.8,1.6,2c0.4,0.1,0.8,0.2,1.2,0.3c2.7,0.6,4.2,2.3,4.6,4.9c0.2,1.3,0.4,2.7,0.4,4c0,11.8,0,23.7,0,35.5
		c0,1-0.1,1.9-0.2,2.9c-0.4,2.7-1.7,4.8-4.2,6c-0.4,0.2-0.9,0.5-1.2,0.7c-0.8,0.6-1.1,1.5-0.6,2.3c0.3,0.5,1.1,0.9,1.7,0.9
		c0.9,0.1,1.7-0.1,2.6-0.1c4.1-0.1,8.1-0.3,12.2-0.3c1.4,0,2.9,0.3,4.3,0.5c0.9,0.1,1.8-0.1,2-1.2c0.2-1.1-0.2-2-1.3-2.5
		c-0.4-0.2-0.8-0.2-1.1-0.3c-2.4-0.6-3.8-2.3-4.3-4.7c-0.4-1.5-0.5-3.2-0.5-4.8c-0.1-3.9,0-7.8,0-11.8c0-0.6,0-1.3,0.2-1.9
		c0.3-0.6,0.7-1.3,1.3-1.6c3-1.3,7,0.1,8.4,3c1.4,2.9,2.6,5.8,4,8.7c1.6,3.4,3.1,6.8,4.9,10.1c0.9,1.7,2.2,3.3,3.7,4.7
		c3.1,2.8,9.3,2.3,12-0.8c0.6-0.7,1.3-1.5,0.7-2.3c-0.3-0.4-1.3-0.6-1.9-0.5c-2.2,0.2-3.7-0.8-4.7-2.6c-0.6-1-1.1-2-1.6-3
		c-2.5-5.3-5-10.5-7.5-15.8C180,361.6,179.2,360.3,178.3,358.8z M298.2,360.7c1,1.4,1.5,2.2,2,3c4.7,7.4,9.4,14.9,14.1,22.3
		c0.5,0.8,1,1.6,1.6,2.4c0.8,1,1.8,1.4,3.2,1.3c2.6-0.1,5.3,0,7.9,0.1c0.6,0,1.1,0.1,1.7,0c0.9-0.1,1.4-0.7,1.4-1.6
		c0.1-0.8-0.3-1.4-1.1-1.6c-2.5-0.6-4.1-2.4-5.6-4.3c-0.6-0.8-1.2-1.5-1.7-2.3c-5.1-7.8-10.1-15.5-15.2-23.3
		c-1.6-2.5-1.5-3.1,0.5-5.2c3.5-3.8,6.8-7.6,10.5-11.2c3.1-3.1,6.1-6.6,10.7-7.9c0.2-0.1,0.5-0.2,0.6-0.4c0.2-0.6,0.6-1.3,0.5-1.9
		c-0.1-0.4-0.9-0.9-1.4-1c-0.9-0.1-1.9,0-2.9,0.1c-3.2,0.5-6.4,0.5-9.5,0c-1.2-0.2-2.4-0.2-3.6-0.2c-1.1,0-1.5,0.6-1.4,1.8
		c0.1,1,0.8,1.2,1.6,1.5c3,0.8,3.6,2,2,4.6c-1.3,2.3-2.8,4.5-4.5,6.5c-4.4,5-8.9,9.9-13.4,14.7c-0.5,0.5-1.1,0.8-2,1.6
		c-0.2-1.4-0.4-2.4-0.4-3.4c0-4.9,0-9.8,0-14.6c0-1.4,0.1-2.9,0.3-4.3c0.3-2.1,1.5-3.7,3.4-4.6c0.5-0.2,1-0.5,1.5-0.7
		c0.8-0.4,1-1.2,0.8-2c-0.2-0.9-0.9-1-1.7-1c-0.4,0-0.8,0-1.2,0.1c-5.8,0.7-11.6,0.7-17.5,0c-0.6-0.1-1.1-0.1-1.7-0.1
		c-1,0-1.7,0.4-1.9,1.4c-0.2,1,0.3,1.7,1.6,2c0.4,0.1,0.8,0.2,1.2,0.3c3.7,0.5,5.3,2.9,5.7,6.3c0.1,0.8,0.1,1.6,0.1,2.4
		c0,11.8,0,23.7,0,35.5c0,1.3-0.1,2.6-0.4,3.8c-0.4,2.3-1.6,4-3.6,5.1c-0.6,0.3-1.1,0.6-1.6,1c-0.8,0.6-1.1,1.5-0.6,2.3
		c0.3,0.5,1.1,0.9,1.7,0.9c0.9,0.1,1.9-0.1,2.9-0.2c4.7-0.6,9.4-0.7,14.1,0c0.8,0.1,1.6,0.1,2.4,0.2c0.9,0,1.6-0.4,1.8-1.3
		c0.2-1-0.1-1.7-1-2.2c-0.4-0.2-0.7-0.3-1.1-0.4c-3.2-0.8-4.8-2.9-5-6c-0.2-4.3-0.3-8.6-0.3-12.9c0-0.8,0.3-1.8,0.8-2.4
		C295.7,363.5,296.8,362.3,298.2,360.7z M139.1,101.8c-1,0.4-1.8,0.8-2.6,1c-1.3,0.3-2.4-0.2-2.9-1.2c-0.8-2-0.8-3.9,0.4-5.7
		c1.1-1.7,2.9-2.1,4.9-1.8c2.2,0.3,4,1.4,5.3,3c1.7,2.1,3.4,4.3,4.4,6.8c1.6,3.7,3,7.6,4,11.5c2.8,11.3,4.5,22.7,5.5,34.3
		c0.8,9.6,0.1,19.2-1.4,28.7c-1.1,7.2-3.9,13.8-7.1,20.3c-6.8,14.2-18.1,22.1-33.9,23.5c-3,0.3-6.1,0.1-9-0.8
		c-3.2-1-5.1-3.1-5.6-6.5c-0.6-3.4,0.4-6.2,2.7-8.5c4.2-4.2,9.4-6.6,15.2-7.4c1.8-0.3,3.7-0.1,5.4,0.7c2.8,1.4,3.2,4.2,0.9,6.2
		c-0.8,0.7-1.8,1.3-2.7,2c-0.7,0.5-1.5,1-1,2.1c0.5,0.9,1.5,1,2.7,0.3c1.9-1.2,3.7-2.7,4.6-4.8c0.6-1.3,0.9-2.9,0.9-4.4
		c-0.2-3.7-3.1-6.2-7.4-6.5c-6.7-0.5-12.8,1.3-18.3,5.3c-4,3-6.3,7-6.6,12c-0.3,7.2,2.7,12.3,10,14c0.6,0.1,1.3,0.3,1.9,0.4
		c4.6,0.8,9.1,0.2,13.6-0.6c8.9-1.6,16.7-5.4,22.4-12.7c0.2-0.2,0.3-0.6,0.5-1c2.1,4.9,3.9,6.2,6.8,5.1c2.6-1,4-3.3,3.2-5.5
		c-0.9,0.6-1.6,1.3-2.5,1.8c-1.7,0.9-3.3-0.1-3.2-2c0.1-1,0.4-2,0.8-3c1-2.6,2.1-5.2,3.3-7.7c4.5-9.8,6.5-20.2,7.3-30.9
		c0.3-3.6,0.4-7.2,0.5-10.7c2.2,0,3.1-0.5,3.1-1.5c0-0.4-0.2-0.9-0.5-1c-0.8-0.3-1.8-0.5-2.8-0.7c-0.1-1.1-0.1-2.2-0.2-3.4
		c2.4-0.4,3.1-0.9,3-1.9c-0.1-1.1-0.9-1.5-3.1-1.5c-0.3-2.3-0.4-4.6-0.8-6.9c-1.4-7.2-2.9-14.4-4.4-21.6c-1.1-5.3-2.3-10.6-4.4-15.6
		c-1.6-3.8-3.5-7.4-6.6-10.2c-1.4-1.3-3.1-2.4-4.8-3c-5.1-1.8-10.4,1.4-11.4,6.5c-0.7,3.6,2.2,7.2,5.8,7.3
		C137.3,105.6,138.7,104.4,139.1,101.8z M275.1,101.8c0.9,3.2,2.6,4.2,5.2,3.7c3.4-0.7,5.5-4.4,4.7-7.8c-0.8-3.2-3.9-5.9-7.2-6.3
		c-3.2-0.4-6,0.6-8.4,2.8c-3.1,2.9-5.2,6.4-6.9,10.3c-2.1,4.7-3.3,9.7-4.4,14.7c-1.5,7.2-3.1,14.4-4.5,21.6c-0.5,2.7-0.7,5.5-1,8.3
		c-2.4,0.2-3,0.6-3.1,1.6c-0.1,1.1,0.6,1.6,2.7,1.9c0,1.3,0,2.5,0,3.7c-2.4-0.1-3.1,0.3-3.2,1.4c-0.1,1.2,0.7,1.6,3.2,1.7
		c0,0.4,0.1,0.8,0.1,1.1c0.2,4.2,0.2,8.3,0.6,12.4c0.8,9.3,2.7,18.3,6.6,26.9c1.3,2.8,2.5,5.7,3.6,8.6c0.3,0.8,0.6,1.7,0.8,2.5
		c0.2,1,0.2,2.1-0.9,2.8c-1.1,0.6-2,0.2-2.9-0.5c-0.6-0.5-1.2-1-1.7-1.4c-0.9,0.8-0.8,1.6-0.4,2.3c0.8,1.4,1.9,2.6,3.5,3.2
		c3,1.2,5.1-0.3,6.6-4.8c0.3,0.3,0.6,0.6,0.8,0.8c9.8,11.3,22.5,14.5,36.8,12.9c6.3-0.7,10.2-4.9,10.8-10.8c0.8-6.7-1.5-12.1-7.1-16
		c-5.1-3.5-10.8-5.1-17-4.8c-1,0-2.1,0.2-3,0.6c-3.6,1.2-5.6,4.4-4.9,8c0.7,3.5,3,5.7,6,7.4c0.8,0.5,1.6,0.2,2.1-0.5
		c0.6-0.9,0-1.5-0.7-2c-1-0.7-2-1.3-2.9-2.1c-2.4-2.1-2-5.1,1-6.3c1.4-0.6,3.1-0.9,4.7-0.7c6.3,0.7,11.8,3.2,16.2,7.9
		c2.7,2.8,3,6.3,1.9,9.8c-1.2,3.5-4.1,4.7-7.4,5.2c-3.7,0.6-7.5,0.5-11.2-0.2c-13.4-2.7-23.3-10.1-29.2-22.5
		c-4.8-9.9-8.1-20.1-8.5-31.2c-0.3-7.2-0.8-14.4,0.2-21.5c1-7.2,1.9-14.4,3.1-21.6c1.1-6.5,2.4-12.9,5.1-18.9
		c1.2-2.7,2.7-5.2,4.3-7.7c1.1-1.8,2.8-3.1,4.8-3.8c4.5-1.7,8,1.2,7.2,5.9c-0.3,2-1.7,2.9-3.6,2.3
		C276.8,102.5,276.1,102.2,275.1,101.8z M276,232.1c0.1,0.2,0.3,0.4,0.4,0.6c1.2-0.1,2.3-0.3,3.5-0.3c1.5-0.1,3.1,0,4.2,1.3
		c1.5,1.9,1.8,4.1,1,6.3c-0.8,2.2-2.5,3-4.7,3.1c-3,0.2-5.6-0.7-8.2-2.2c-7.6-4.5-15.3-9.1-23-13.4c-3.3-1.8-7-3.2-10.6-4.4
		c-5.2-1.7-10.6-1.4-15.8,0.2c-4.5,1.3-6.7,4.1-6.7,8.8c0,3.2,0.5,6.4,1.9,9.3c1.9,4,5.4,5.6,9.7,4.6c4.9-1.1,7.1-5.2,5.2-9.9
		c-1.2-3.1-4.1-4.2-7.2-3.4c-2.2,0.6-3.4,4.5-1.6,6.4c0.7,0.8,1.6,1.3,2.9,0.6c-0.4-0.5-0.7-1-1-1.4c-0.8-1.4-0.3-2.5,1.2-2.9
		c1.2-0.3,2.5,0.2,3,1.4c0.6,1.5,0.7,3.2-0.3,4.6c-1,1.4-2.5,1.7-4.1,1.4c-1.1-0.2-2.2-0.6-3-1.3c-2.8-2.4-3.9-5.6-3.2-9.3
		c0.7-3.4,3.3-4.9,6.4-5.7c0.6-0.2,1.3-0.2,1.9-0.3c4.2-0.5,8.1,0.4,12,1.8c15.8,5.8,29.9,14.5,42.9,25c1.8,1.5,3.3,3.5,4.6,5.5
		c0.7,1.1,0.9,2.5,1.1,3.9c0.2,1.5-0.6,2.6-2,3.2c-1.4,0.6-2.8,0.3-3.9-0.9c-0.7-0.8-1.2-1.9-1.8-2.8c-0.4-0.7-0.6-1.6-1.8-2
		c-0.1,0.4-0.2,0.7-0.3,1c-0.7,6.4,4.9,10.9,11,8.7c2.1-0.7,3.2-2.3,3.4-4.5c0.2-2.1-0.3-4-1.2-5.8c-0.3-0.6-0.5-1.2-0.9-2.2
		c1.2,0.6,1.9,1,2.6,1.4c10.6,5.7,21.6,10.4,33.5,12.6c3.9,0.7,7.8,1.1,11.7,0.2c6-1.3,8.1-6.5,7.3-11.2c-0.8-5.2-6.6-9.6-11.9-9.3
		c-3,0.2-4.5,1.9-4.2,4.9c0.1,1.3,0.6,2.6,1.2,3.9c0.3,0.8,0.9,1.5,2.2,1.3c-0.1-0.6-0.3-1.2-0.4-1.8c-0.2-0.9-0.5-1.7-0.6-2.5
		c-0.2-1.9,0.5-2.7,2.4-2.7c2.8-0.1,5.5,2,6.3,4.7c1.2,4-0.9,7.4-5.2,8.4c-2.4,0.5-4.8,0.5-7.1-0.1c-6.3-1.6-12.6-3.5-18.9-5.2
		c-0.4-0.1-0.8-0.4-1.2-0.6c0.3-1.4,0.8-2.7,1-4c0.3-3-1.7-5.3-4.6-5.7c-1.9-0.2-2.9,0.7-3.1,3c0.7,0,1.4-0.1,2.1-0.1
		c1.8-0.1,2.5,0.6,2.5,2.3c0,2.3-1.3,3.1-3.5,2.4c-0.4-0.1-0.8-0.2-1.1-0.4c-6.5-3.2-13.1-6.4-19.6-9.6c-0.7-0.3-1.2-0.8-2.1-1.5
		c1.1-0.5,1.9-0.7,2.5-1.1c1.6-0.9,3.3-1.7,4.7-2.8c2-1.6,2.8-3.9,2.4-6.4c-0.2-1.4-0.6-2.8-1.2-4.1c-2.5-5.3-7.7-4.9-11.2-2.7
		C276.7,230.8,276.4,231.6,276,232.1z M187.3,240c2.2,0.1,3.2-0.4,3.6-1.9c0.6-1.9-0.1-4.1-1.6-4.9c-1.9-1-4.7-0.7-6.3,0.7
		c-3.3,2.9-2.8,8.9,1,11.2c4.5,2.8,10.1,1.2,12.4-3.6c1.4-3,2-6.2,1.9-9.6c-0.1-4.3-2.1-7.1-6.2-8.4c-4.7-1.5-9.5-1.9-14.4-0.8
		c-4.8,1.1-9.3,3-13.5,5.4c-7.4,4.2-14.7,8.5-21.9,12.8c-2.7,1.6-5.5,2.5-8.7,2.1c-2.1-0.2-3.7-1.2-4.3-3.3c-1.5-4.6,1.2-7.8,6-7.4
		c0.5,0,1,0.1,1.4,0.1c0.5,0,1-0.1,1.9-0.1c-0.5-0.8-0.7-1.4-1.1-1.8c-3.3-2.9-8.7-2.3-11,1.5c-2.8,4.6-3.2,10.3,3.4,13.5
		c0.9,0.5,1.9,0.8,2.9,1.2c0.4,0.2,0.8,0.4,1.6,0.8c-1,0.7-1.8,1.3-2.6,1.7c-6.1,3-12.2,6-18.3,9c-0.7,0.3-1.5,0.6-2.2,0.9
		c-1,0.4-1.9,0.4-2.6-0.6c-0.7-1.1-0.8-2.3-0.3-3.4c0.4-1,1.4-0.9,2.3-0.9c0.7,0.1,1.6,0.5,2.2-0.3c-0.9-2.6-1.9-3.1-4.3-2.4
		c-2.7,0.8-4.2,3.2-3.6,5.9c0.2,1.2,0.7,2.3,1,3.4c-0.2,0.1-0.4,0.3-0.6,0.4c-6.6,2.3-13.2,4.3-20.1,5.6c-2.9,0.5-5.7,0.6-8.5-0.6
		c-3-1.3-4.3-4.2-3.6-7.3c0.7-3,3.5-5.2,6.5-5.1c1.9,0,2.7,1,2.4,2.9c-0.1,0.6-0.3,1.2-0.5,1.8c-0.2,0.7-0.4,1.4-0.7,2.3
		c1.3,0.2,1.9-0.4,2.2-1.1c0.5-1,0.9-2,1.2-3.1c0.9-3.7-1-6-4.8-5.9c-3.2,0.1-5.9,1.5-8.1,3.6c-3.1,2.9-3.8,6.5-2.7,10.5
		c1.1,3.8,3.9,5.7,7.6,6.4c4.6,0.9,9.1,0.1,13.5-0.9c11-2.4,21.3-6.8,31.1-12.2c0.7-0.4,1.5-0.7,2.5-1.3c-0.7,1.7-1.4,3-1.8,4.3
		c-1.6,5.3,0.8,8.5,6.3,8.6c0.2,0,0.3,0,0.5,0c4.6-0.1,8.4-5,7.3-9.6c0-0.2-0.3-0.4-0.6-0.8c-0.5,0.7-0.9,1.4-1.3,2
		c-0.4,0.7-0.7,1.4-1.1,2.1c-1.3,1.9-3,2.5-4.7,1.7c-1.6-0.7-2.3-2.4-1.9-4.5c0.5-2.4,1.9-4.4,3.6-6.1c1.8-1.8,3.7-3.5,5.8-5
		c9.1-6.8,18.8-12.7,29-17.7c5-2.4,10-4.6,15.5-5.7c3.2-0.7,6.4-0.8,9.5,0.3c2.6,0.8,4.6,2.3,5.3,5.1c0.9,3.3-0.5,7.7-3.1,9.8
		c-1.5,1.2-3.3,1.7-5.2,1.1c-2.6-0.8-3.5-4.8-1.6-6.7c0.9-0.8,2.3-0.9,3.3-0.1c0.8,0.7,0.9,1.5,0.1,2.8
		C187.9,239.1,187.7,239.4,187.3,240z M233.1,329.6c-3.2-0.1-8-0.3-12.8-0.5c-1.3-0.1-2.6-0.2-3.8-0.1c-0.9,0-1.5,0.6-1.5,1.5
		c-0.1,0.9,0.3,1.6,1.2,1.8c0.7,0.2,1.4,0.3,2.1,0.5c3,0.7,4.5,2.3,5,5.4c0.2,1.3,0.3,2.5,0.3,3.8c0,11.6,0,23.2,0,34.8
		c0,1-0.1,2.1-0.2,3.1c-0.3,2.7-1.6,4.8-4.1,6.1c-0.6,0.3-1.2,0.6-1.6,1.1c-0.4,0.5-0.7,1.4-0.5,1.9c0.2,0.5,1,1,1.6,1.1
		c0.8,0.1,1.7-0.1,2.6-0.1c4.2-0.2,8.5-0.4,12.7-0.4c3.8,0,7.7,0.5,11.5,0.6c3.2,0.1,6.2-0.8,8.4-3.4c2.6-3.2,3.8-7,4-11.1
		c0-0.1,0-0.2,0-0.2c-0.2-0.4-0.4-1-0.8-1c-0.3-0.1-0.9,0.2-1.2,0.5c-0.3,0.2-0.5,0.6-0.6,1c-3.7,7.1-10,9.3-17.3,9.4
		c-3.8,0-5.1-1.2-5.2-5c-0.2-5-0.1-9.9-0.1-14.9c0-1.2,0-2.4,0.1-3.6c0.2-1.9,0.9-2.6,2.7-2.7c2-0.1,4,0,6,0.2
		c2.5,0.2,4.1,1.7,4.8,4c0.3,0.8,0.4,1.7,0.6,2.6c0.3,1,0,2.4,1.6,2.5c0.9,0.1,1.2-0.8,1.2-2.7c0-0.5-0.1-1-0.1-1.4
		c-0.1-2.7-0.4-5.4-0.4-8.1c0-2.3,0.2-4.6,0.2-6.9c0-0.6-0.3-1.5-0.8-1.8c-0.8-0.4-1.5,0.2-1.9,1c-0.2,0.3-0.3,0.6-0.4,0.9
		c-1.3,4.5-4.5,6.1-9,5.8c-0.4,0-0.8,0-1.2,0c-2.5-0.1-3.4-0.8-3.5-3.3c-0.1-4.8-0.1-9.6,0-14.4c0.1-2.7,1.1-3.8,3.7-4.2
		c3.6-0.5,7.2-0.3,10.7,0.8c2.9,0.9,4.5,3,4.9,6c0.1,0.6,0,1.4,0.3,1.9c0.2,0.5,0.9,0.9,1.4,1c0.2,0,0.7-0.7,0.9-1.1
		c0.1-0.2,0-0.5,0-0.7c0-3.2,0-6.4-0.1-9.6c0-1.9-0.5-2.3-2.5-2.4c-0.8,0-1.6,0-2.4,0C244.5,329.2,239.6,329.4,233.1,329.6z
		 M77.6,353.5C77.6,353.5,77.7,353.5,77.6,353.5c0.1,4.5,0,9,0.1,13.4c0.2,4.7,0.9,9.4,2.8,13.8c2.2,4.9,5.8,8.1,11.1,9.4
		c3.2,0.8,6.5,0.9,9.8,0.5c8-0.8,13.5-4.9,16.7-12.2c1.7-3.9,2.7-8.1,2.8-12.3c0.3-7.5,0.2-15,0.4-22.5c0-2.6,0.2-5.1,0.5-7.6
		c0.2-1.7,1.1-3,2.8-3.5c0.5-0.1,1-0.3,1.3-0.6c0.4-0.5,0.8-1.2,0.7-1.8c0-0.4-0.9-0.8-1.4-0.9c-0.8-0.1-1.6,0-2.4,0.1
		c-3.3,0.6-6.5,0.5-9.8,0c-1-0.2-2.1-0.2-3.1-0.2c-0.9,0-1.6,0.3-1.7,1.3c-0.1,0.9,0.4,1.6,1.2,1.8c1,0.3,2,0.5,3,0.7
		c2.4,0.6,3.9,2.1,4.4,4.5c0.2,0.8,0.4,1.6,0.4,2.4c0,9.3,0,18.5-0.1,27.8c-0.1,3.2-0.8,6.3-2.1,9.3c-2.7,5.7-8.3,9.1-14.5,8.7
		c-6.1-0.4-10.7-4.2-12.5-10.5c-0.6-2.2-1-4.6-1-6.8c-0.2-7.5-0.2-15-0.2-22.6c0-2.7,0.2-5.4,0.3-8.1c0.2-2.6,1.4-4.6,4-5.3
		c0.3-0.1,0.7-0.2,0.9-0.4c0.4-0.6,0.8-1.2,0.8-1.8c0-0.4-0.9-0.9-1.4-1c-1.3-0.1-2.6,0-3.8,0.1c-4.4,0.6-8.8,0.6-13.2,0
		c-1-0.1-2.1-0.1-3.1-0.2c-0.8,0-1.4,0.4-1.5,1.2c-0.2,0.9,0.2,1.6,1,1.9c0.4,0.2,0.8,0.2,1.1,0.3c4.8,1.3,5.6,2.3,5.8,7.1
		c0,0.7,0,1.4,0,2.2C77.6,345.6,77.6,349.5,77.6,353.5z M189.7,48.9c3.6,0.5,33.1,0.4,34.9-0.2c0-0.8,0.1-1.6,0-2.3
		c-0.3-2,0.4-3.7,1.3-5.5c1.6-3.2,3.2-6.5,4.6-9.7c0.7-1.6,1.2-3.3,1.6-5c0.7-3.6-0.6-6.3-3.8-8c-1.3-0.7-2.6-1.2-4-1.5
		c-3.8-0.9-7.7-1.1-11.7-0.8c-1.3,0.1-2.7,0.2-3.8,0.2c-1.5-2.3,0.9-3,1.4-4.5c-0.6-0.6-1.2-1.1-1.8-1.6c0.1-0.8,0.2-1.6,0.2-2.3
		c1,0,1.8,0,2.7,0c0.2,0.6,0.4,1.2,0.7,1.8c0.9,0,1.7-0.1,2.6-0.1c0-1.9,0-3.7,0-5.9c-1,0.2-2.3,0-2.7,0.5c-1,1.5-2.1,0.9-3.5,0.6
		c0.2-0.8,0.1-1.9,0.5-2.1c1.4-0.7,0.9-1.5,0.7-2.5c-1.7,0-3.1,0-4.9,0c0.2,0.9,0.2,1.8,0.6,2.1c1.1,0.8,0.7,1.6,0.6,2.7
		c-0.9-0.1-2.3,0.1-2.5-0.3c-0.9-1.7-2.1-1-3.4-0.9c0,1.9,0,3.7,0,5.6c1,0,1.8,0,2.7,0c0.2-0.6,0.5-1.1,0.7-1.7
		c0.9,0.1,1.7,0.1,2.2,0.1c1.4,2.1-0.6,2.9-1.3,4.3c1.2,1.1,2.4,2.2,1.4,4.2c-0.9-0.1-1.9-0.2-2.8-0.2c-3.4,0-6.7,0-10.1,0.2
		c-2.4,0.1-4.7,0.9-6.8,2.1c-2.7,1.6-4.1,3.9-3.6,7c0.3,1.9,0.7,3.8,1.5,5.5c1.6,3.7,3.3,7.3,5.1,10.8c0.6,1.3,1.2,2.5,1,4.1
		C189.6,46.7,189.7,47.8,189.7,48.9z M329.9,399.3c-87,0-173.7,0-260.4,0c0,0.8,0,1.5,0,2.1c3.6,0.5,258.7,0.3,260.4-0.1
		C329.9,400.7,329.9,400.1,329.9,399.3z M261.5,444.5c-0.2,0-0.3,0.1-0.5,0.1c-0.6-0.7-1.1-1.4-1.7-2c-7.1-9-14.2-17.9-21.2-26.9
		c-1-1.3-2-1.8-3.6-1.7c-1.8,0.1-3.7,0-5.5,0c-0.6,0-1.1-0.1-1.7,0.1c-0.3,0.1-0.7,0.5-0.8,0.7c0,0.3,0.3,0.7,0.6,0.8
		c0.3,0.2,0.8,0.2,1.2,0.2c1.7,0.2,2.8,1.2,3.5,2.6c0.8,1.7,1.4,3.3,1.3,5.3c-0.1,8.3,0,16.6,0,24.9c0,0.8,0,1.6-0.1,2.4
		c-0.1,2.1-0.7,4-3.3,4.2c-0.2,0-0.6,0.1-0.6,0.2c-0.1,0.4-0.1,0.9,0.1,1.2c0.2,0.2,0.7,0.3,1.1,0.3c3.1,0,6.2,0,9.3,0
		c0.5,0,1.5-0.4,1.5-0.7c0.2-1.1-0.8-0.9-1.5-1c-0.2,0-0.3,0-0.5-0.1c-2.1-0.4-2.9-1.2-3.2-3.3c-0.1-0.7-0.2-1.4-0.2-2.2
		c0-7.8,0-15.5,0-23.3c0-0.5,0.2-1,0.3-1.8c0.7,0.9,1.3,1.5,1.7,2.1c7.6,9.5,15.2,19,22.8,28.4c0.8,0.9,1.4,2.7,2.8,2.1
		c1.3-0.5,0.7-2.1,0.7-3.2c0-10.9,0-21.7,0-32.6c0-1.1,0-2.2,0.2-3.3c0.2-1.2,0.7-2.1,2-2.4c0.4-0.1,0.7-0.3,1.1-0.4
		c-0.1-1.6-1.2-1.4-2.1-1.4c-2.4,0-4.8,0-7.2,0c-0.5,0-1,0-1.4,0c-0.8,0.1-1.1,0.6-0.7,1.5c0.4,0.1,0.8,0.2,1.3,0.3
		c3,0.5,3.7,1.4,4,4.4c0.1,0.6,0.1,1.1,0.1,1.7c0,5,0,10.1,0,15.1C261.7,439.4,261.6,442,261.5,444.5z M199.7,415.3
		c0.8,0.2,1.4,0.4,2.1,0.5c2,0.2,3,1.4,3.3,3.2c0.2,0.8,0.2,1.6,0.2,2.4c0,7.3,0,14.5,0,21.8c0,0.5-0.1,1-0.2,1.9
		c-0.8-1-1.4-1.6-1.9-2.3c-7.1-9-14.3-18.1-21.4-27.1c-1-1.3-2-1.8-3.6-1.7c-1.8,0.1-3.7,0-5.5,0c-0.6,0-1.1-0.1-1.7,0.1
		c-0.3,0.1-0.7,0.5-0.7,0.8c0,0.3,0.3,0.7,0.6,0.8c0.3,0.2,0.8,0.2,1.2,0.2c1.5,0.2,2.5,1,3.2,2.2c0.9,1.6,1.5,3.3,1.5,5.2
		c0,8.6,0,17.3,0,25.9c0,1.2-0.1,2.4-0.3,3.6c-0.2,1.2-0.9,2-2.2,2.3c-0.7,0.1-1.3,0.4-2,0.6c1,1.3,1,1.3,2.4,1.3c2.6,0,5.3,0,7.9,0
		c0.5,0,1,0.1,1.4-0.1c0.4-0.2,0.7-0.6,1.4-1.2c-1.1-0.3-1.7-0.4-2.3-0.6c-2.4-0.5-3.1-1.1-3.5-3.5c-0.1-0.7-0.1-1.4-0.1-2.1
		c0-7.6,0-15.2,0-22.8c0-0.6,0.1-1.2,0.2-2.2c0.8,0.9,1.3,1.5,1.8,2.1c7.5,9.3,14.9,18.6,22.4,27.9c0.7,0.8,1.3,1.7,2,2.4
		c0.4,0.4,1,0.5,1.9,0.8c0.1-1.4,0.2-2.3,0.2-3.2c0-10.9,0-21.7,0-32.6c0-1.2,0.1-2.4,0.2-3.6c0.1-1.3,0.7-2.3,2.1-2.5
		c0.4-0.1,0.7-0.3,0.9-0.4c0.1-1.2-0.6-1.3-1.4-1.3c-2.9,0-5.7,0-8.6,0C200.5,413.9,199.8,413.9,199.7,415.3z M275.6,80.1
		c-0.3-0.9-0.6-1.5-0.6-2.1c0-0.8,0-1.6,0.2-2.3c0.3-0.9,1.1-1.1,1.9-0.6c2.9,1.7,3.5,5.7,1,8c-1.2,1.1-2.6,2.1-4.1,2.9
		c-9.5,5.3-19.6,7.7-30.4,6.4c-11.9-1.4-20.7-7.7-27-17.5c-3-4.6-4.5-9.9-4.6-15.4c0-1.7,0.6-3.2,2.2-4c1.5-0.7,2.8,0,4,0.9
		c3.5,2.6,5.6,6.1,6.6,10.3c0.1,0.5,0.1,1,0.1,1.4c-0.1,1.7-1.2,2.4-2.8,1.8c-0.7-0.3-1.4-0.6-2.5-1.1c0.1,0.8,0,1.4,0.2,1.7
		c0.9,1.3,2.1,2.2,3.8,2.2c2.9,0.1,4.7-1.8,4.3-4.7c-1-6.5-4.7-11.4-9.7-15.4c-0.2-0.1-0.4-0.3-0.6-0.4c-3.5-1.6-6.8-0.1-7.6,3.6
		c-0.4,1.9-0.6,4-0.4,5.9c0.6,7.8,3.6,14.8,7.1,21.7c2.2,4.2,5.4,7,9.7,8.9c5.5,2.5,11.2,3.7,17.1,4.2c12.5,1.1,23.6-3.1,34-9.5
		c1.5-0.9,2.9-2.3,4-3.7c2.9-3.9-0.1-10.7-5-11.4c-2.4-0.3-4.4,0.9-4.8,3C271.4,77.1,273,79.5,275.6,80.1z M139.6,455.5
		c0,1.7,1.2,1.4,2.1,1.4c3.8,0,7.7,0,11.5,0c0.8,0,2,0.4,2.1-0.9c0.1-1.2-1.1-0.8-1.9-1c-2.3-0.5-3-1.1-3.4-3.4
		c-0.1-0.7-0.2-1.4-0.2-2.1c0-9.5,0-19,0-28.6c0-3.8,0.4-4.1,3.7-5.5c0.3-0.8-0.2-1.2-0.9-1.4c-0.5-0.1-1.1-0.1-1.7,0
		c-3.3,0.5-6.5,0.5-9.8,0c-0.7-0.1-1.4-0.1-2.1,0c-0.8,0.1-1.1,0.6-0.7,1.6c0.5,0.1,1.1,0.2,1.8,0.3c1.8,0.2,2.9,1.3,3.2,3.1
		c0.1,0.6,0.2,1.3,0.2,1.9c0,9.8,0,19.7,0,29.5C143.4,453.9,142.9,454.4,139.6,455.5z M130.6,173.9c2.1-0.3,3.8-0.6,5.4-0.9
		c6.4-1.3,12-4.1,15.4-9.9c1.5-2.6,3.1-4.8,5.6-6.3c0.1,0,0-0.3,0.1-0.6c-0.5-0.1-1.1-0.5-1.5-0.3c-2.3,1.2-4.7,0.9-7,0.9
		c-5.7,0-9.9,2.4-12.6,7.6c-1.3,2.5-2.8,4.8-4.2,7.3C131.4,172.2,131.2,172.8,130.6,173.9z M283.5,173.9c-0.3-0.9-0.4-1.5-0.7-1.9
		c-1.6-2.8-3.2-5.5-4.8-8.3c-2.4-4.5-6.3-6.6-11.2-6.9c-0.6,0-1.3,0-1.9,0c-2,0-4,0.2-5.9-0.8c-0.7-0.4-1.4-0.2-1.8,0.7
		c0.3,0.3,0.6,0.5,0.9,0.7c1.9,1.2,3.2,2.7,4.2,4.7c2,4,5.2,6.8,9.2,8.8C275.1,172.6,279.1,173.1,283.5,173.9z M287.7,144.1
		c-0.8-0.2-1.2-0.4-1.5-0.4c-3.2-0.4-6.5-0.8-9.7-1.3c-5.1-0.8-9.3,0.9-12.5,4.8c-0.4,0.5-0.8,1-1.2,1.5c-1.1,1.5-2.3,3.1-4.1,4
		c-0.7,0.3-1.1,0.9-0.7,1.9c1-0.3,1.9-0.6,2.9-0.8c1.2-0.2,2.4-0.4,3.5-0.1C274.1,155.5,281.1,151,287.7,144.1z M126.6,144.2
		c1.5,1.4,2.6,2.6,3.9,3.7c5,4.4,10.7,7,17.5,5.9c2.8-0.4,5.4-0.4,8,0.6c0.1,0,0.2-0.1,0.6-0.3c-0.2-0.4-0.3-1.1-0.7-1.3
		c-2.3-1.2-3.6-3.3-5.2-5.2c-3.2-4-7.3-6-12.6-5.2c-3.4,0.5-6.8,0.9-10.2,1.4C127.7,143.7,127.4,143.9,126.6,144.2z M239.3,300.4
		c0.7-0.4,1.1-0.7,1.4-1c3.3-2.5,2.8-7.1-1-8.7c-0.9-0.4-1.8-0.6-2.8-0.6c-2.9-0.1-5.9,0-8.8,0c-0.1,0-0.2,0.2-0.2,0.3
		c2,1.2,2,1.2,2,3.7c0,3.8,0,7.7,0,11.5c0,1.7,0.2,3.4-1.9,4.5c3.8,0.4,6.8,0.3,7.8-0.3c-2.1-0.8-2.4-0.9-2.4-2.2
		c-0.1-2.1,0-4.2,0-6.3c1.7-0.7,2.7-0.1,3.4,1.2c1.3,2.1,2.6,4.2,4,6.3c1.5,2.3,4,2.6,5.8,0.9c-0.8-0.6-1.7-1.1-2.3-1.9
		C242.5,305.6,241,303.1,239.3,300.4z M128,298.9c-3.4,0-6.5,0-9.5,0c-0.1-0.4-0.2-0.6-0.3-0.8c0-1.2,0-2.4,0-3.6c0-2.7,0-2.7,2-4.3
		c-2.7,0-5.2,0-8.1,0c2.8,1.5,2.8,1.5,2.8,4.8c0,3.6,0,7.2,0,10.8c0,1.7,0.1,3.5-1.9,4.5c2.6,0,5.2,0,7.8,0
		c-0.3-0.5-0.7-0.7-1.1-0.8c-1-0.2-1.5-1-1.5-1.9c-0.1-2.3,0-4.6,0-7.1c3.4-0.1,6.5-0.2,9.8,0.1c0,1.5,0,2.7,0,3.9
		c0,2.1,0.5,4.4-2.2,5.7c2.9,0,5.3,0,8.2,0c-2.6-1.4-2.7-1.4-2.7-4.2c0-3.9,0-7.8,0-11.8c0-2.5,0-2.5,1.9-4.1c-2.6,0-5,0-7.4,0
		c1.1,0.8,2.2,1.4,2.2,2.9C128,295,128,296.8,128,298.9z M210.3,310.9c6.4,0,11-4.5,11.1-10.7c0-6.2-4.4-10.5-10.8-10.6
		c-6.5,0-11,4.3-11,10.6C199.5,306.5,203.9,310.9,210.3,310.9z M286.4,291.5c-1.1-0.3-2-0.4-2.8-0.7c-7.6-3.5-14.9,0.6-15.6,8.9
		c-0.4,4.3,1.8,8.4,5.4,10.1c3.8,1.8,9.7,1.1,12.4-1.5c0.9-0.9,1.3-2,1.1-3.7c-0.6,0.8-0.8,1.1-1.1,1.5c-2.9,4.1-8.9,4.3-12,0.5
		c-2.7-3.2-3.1-9.1-0.9-12.7c1.7-2.9,5-4,8.1-2.8c2,0.7,3.4,2.1,4.5,3.8c0.3,0.5,0.7,0.9,1,1.4c0.1-0.1,0.2-0.1,0.4-0.2
		C286.7,294.5,286.5,293,286.4,291.5z M156.1,304.5c-0.5,1.9,0,3.4,0.6,4.9c0.2,0.4,0.8,0.8,1.3,0.9c2.5,0.8,5.1,0.9,7.5-0.2
		c2.4-1.1,3.6-3,3.7-5.7c0.1-2.6-1.3-4.2-3.5-5.2c-1.2-0.5-2.4-1-3.5-1.5c-0.7-0.3-1.5-0.6-2.2-1c-1.2-0.7-1.9-1.7-1.7-3.1
		c0.2-1.4,1.1-2.3,2.4-2.7c2.3-0.8,5,0.2,6.4,2.5c0.4,0.6,0.7,1.3,1.1,1.9c0.3-1.1,0.2-2,0.1-2.9c-0.1-0.6-0.2-1.2-0.3-1.8
		c-1-0.2-1.9-0.5-2.8-0.6c-1.3-0.2-2.5-0.4-3.8-0.3c-2.7,0.2-4.9,2.2-5.4,4.7c-0.5,2.5,0.7,4.7,3.4,6c1,0.5,2.1,0.8,3.1,1.3
		c0.9,0.4,2,0.8,2.8,1.3c2.1,1.4,2.2,4.1,0.2,5.7c-1.2,1.1-2.7,1.3-4.3,0.9c-1.7-0.5-2.9-1.6-3.8-3.1
		C157,305.9,156.5,305.2,156.1,304.5z M182.6,292c0.1,0.5,0.2,0.9,0.2,1.2c0,4.6,0,9.1,0,13.7c0,1.4-0.3,2.5-1.9,2.8
		c-0.1,0-0.2,0.3-0.3,0.6c3.5,0.3,7,0.2,8.4-0.4c-2.5-0.2-2.8-1.7-2.8-3.7c0.1-4,0-8,0-12c0-0.7,0.1-1.4,0.2-2.4c1.5,0,3,0,4.4,0
		c1.9,0,1.8,2.1,3.3,3.4c-0.2-2-0.4-3.4-0.5-4.8c-6.1,0-11.9,0-17.8,0c-0.2,1.6-0.7,3-0.4,4.7C177.8,291.4,178.3,291.2,182.6,292z
		 M108.1,420.5c-2,2.5-3.7,4.8-5.6,7.1c1.9,2.4,3.7,4.7,5.6,7.1c2-2.5,3.7-4.8,5.6-7.1C111.8,425.2,110,423,108.1,420.5z
		 M307.6,427.6c-1.8-2.4-3.6-4.6-5.6-7.1c-2,2.5-3.7,4.7-5.6,7.1c1.9,2.4,3.7,4.7,5.6,7.1C304,432.2,305.8,429.9,307.6,427.6z
		 M140.4,290.2c-0.1,0.2-0.1,0.3-0.2,0.5c2.5,0.2,2.7,1.8,2.7,3.8c-0.1,3.8,0,7.5,0,11.3c0,1.7,0.3,3.5-2.1,4.5c3.7,0.4,7,0.2,8-0.3
		c-2.5-1-2.5-1-2.5-3.8c0-3.8,0-7.7,0-11.5c0-0.8-0.1-1.7,0.1-2.4c0.3-0.7,1-1.2,1.7-2C145.4,290.2,142.9,290.2,140.4,290.2z
		 M253.1,290.2c-0.1,0.2-0.2,0.3-0.3,0.5c2.5,0.3,2.7,2,2.7,3.8c0,3.8,0,7.5,0,11.3c0,1.7,0.1,3.5-2,4.5c3.5,0.4,6.8,0.2,7.9-0.3
		c-2.4-1-2.6-1.2-2.6-3.9c0-3.6,0-7.2,0-10.8c0-1.8-0.4-3.8,1.6-5.1C257.9,290.2,255.5,290.2,253.1,290.2z M207.2,262.3
		c1.1-0.7,1.4-1.7,1.4-2.7c0-0.8,0-1.6,0-2.4c-0.2-5.3-0.3-10.7-0.6-16c0-0.9,0.2-2.1-1.2-2.9c-0.2,0.6-0.5,1-0.6,1.5
		c-0.1,1-0.2,2.1-0.2,3.1c-0.2,5.3-0.3,10.7-0.4,16C205.6,260.2,205.6,261.5,207.2,262.3z M202.7,240.7c-3,0.7-5,3.7-4.5,6.6
		c0.4,2.1,1.7,2.6,3.5,1.3C203.4,247.3,204.9,242.8,202.7,240.7z M207.1,236c2.6-1.6,3.5-5.4,1.8-7.9c-1.1-1.7-2.5-1.7-3.6,0
		C203.9,230.6,204.6,234.2,207.1,236z M207.2,80.4c2.5-1.9,3.3-5.3,1.8-7.8c-1.1-1.8-2.6-1.8-3.7,0
		C203.8,75.1,204.7,78.6,207.2,80.4z M211.5,240.6c-1.6,2.9-1,6.2,1.1,7.9c1.7,1.3,3,0.8,3.4-1.3
		C216.6,244.4,214.7,241.4,211.5,240.6z M214.6,59.2c-0.4,2.7,1.2,4.6,2.5,6.5c0.2,0.2,0.8,0.4,1,0.3c0.3-0.1,0.5-0.6,0.6-0.9
		c0.3-1.8-1.5-5-3.1-5.8C215.4,59.1,215,59.2,214.6,59.2z M125.4,89.3c0.7-1.9-0.7-2.9-1.9-3.9c-1-0.8-2.1-1.7-3.5-0.9
		C120.6,87,122.8,89,125.4,89.3z M196,66.1c2.5-0.9,4.2-4.6,3.4-6.9C196.7,60,195.2,63,196,66.1z M296,211c1.5,2,3.6,2.7,5.8,3.2
		c0.8,0.2,1.4-0.8,0.8-1.4c-0.9-0.9-1.9-1.7-3-2.2C298.5,210.1,297.3,209.6,296,211z M283,82.6c2.2-0.1,5.1-2.2,5.7-3.8
		c0.1-0.3,0.1-0.8-0.1-0.9c-0.4-0.2-0.9-0.5-1.3-0.4c-1.6,0.4-2.8,1.5-3.7,2.8C283.3,81.1,283.2,81.8,283,82.6z M118.3,211.1
		c-1.2-1.5-2.4-0.9-3.4-0.5c-1.3,0.4-2.5,1-3.2,2.3c-0.4,0.9,0.3,1.6,1.3,1.3c1.3-0.4,2.5-0.9,3.7-1.6
		C117.3,212.3,117.7,211.6,118.3,211.1z M289,89.6c2.4-0.5,3.9-2.1,5.2-3.9c0.6-0.8-0.1-1.5-1.1-1.4c-1.7,0.2-4.1,2.5-4.3,4.3
		C288.6,88.8,288.8,89.1,289,89.6z M280,90.1c2-0.2,3.8-1.4,5.1-3.3c0.4-0.5,0.7-1.1,0.1-1.6C282.2,85.1,280,87.2,280,90.1z
		 M134.4,90c0.1-2.3-1.4-3.3-2.8-4.3c-0.8-0.6-1.8-1.1-2.8-0.2C129.6,88,131.9,89.9,134.4,90z M250.3,154.5c0-0.8-0.8-1.6-1.8-1.6
		c-1,0-1.8,0.7-1.8,1.5c0,0.8,0.8,1.6,1.7,1.6C249.4,156,250.3,155.3,250.3,154.5z M167.5,154.5c0.1-0.9-0.6-1.6-1.6-1.7
		c-1,0-1.8,0.6-1.8,1.5c-0.1,0.9,0.7,1.6,1.6,1.7C166.7,156,167.5,155.4,167.5,154.5z"/>
	<path d="M198.5,179.9c0.2,6.2,0.3,12.5,0.5,18.7c0,0.8,0.2,1.6,0.4,2.3c0.7,2.8,2.6,4.3,5.4,4.8c3.9,0.7,7.8,0.4,11.7-0.5
		c5.6-1.2,10.8-3.6,15.1-7.5c2.5-2.3,4.4-5,5.9-8.1c0.5-1.1,1-2.2,1.7-3.1c0.4-0.5,1.4-1.1,1.9-0.9c0.6,0.1,1.3,1,1.4,1.7
		c0.2,1.2,0.2,2.4,0,3.6c-0.7,4.9-2.1,9.5-4.2,13.9c-3.4,7.1-9.3,10.3-17,10.5c-3.4,0.1-6.9-0.2-10.3-0.5c-11.5-1.3-23-1.1-34.5,0.4
		c-0.5,0.1-1,0.1-1.4,0.1c-1.8,0-2.8-0.5-3.3-1.8c-0.6-1.4-0.2-3.2,1-4.2c0.7-0.6,1.4-1.1,2.2-1.5c4.7-2.4,7-6.4,7.6-11.5
		c0.2-1.7,0.3-3.5,0.3-5.3c0-21.8,0-43.7,0-65.5c0-2.8-0.2-5.6-0.7-8.3c-1-5-4-8-9.1-8.9c-0.9-0.2-1.7-0.3-2.6-0.5
		c-2-0.6-2.8-1.9-2.5-3.7c0.3-1.9,1.5-2.9,3.5-2.8c1.8,0.1,3.5,0.3,5.3,0.5c11.3,1,22.5,1,33.8,0.5c6.7-0.3,13.4-0.6,20.1-0.8
		c1,0,2.1,0,3.1,0.1c1.7,0.2,2.4,0.9,2.7,2.5c0.1,0.8,0.2,1.6,0.2,2.4c0.1,5.6,0.1,11.2,0.2,16.8c0,0.7,0,1.4-0.1,2.2
		c-0.1,1.1-0.6,1.8-1.8,1.8c-1.2,0-2.1-0.3-2.3-1.6c-0.2-1.2-0.3-2.4-0.5-3.6c-0.5-5.7-3.4-9.8-8.9-11.6c-6-1.9-12.1-2.2-18.3-1.3
		c-3.9,0.6-5.5,2.4-6.1,6.3c-0.2,1.2-0.2,2.4-0.2,3.6c0,7.7,0,15.4,0,23c0,1.4,0.1,2.9,0.4,4.3c0.4,1.8,1.5,3,3.4,3.2
		c3.9,0.5,7.8,0.5,11.7-0.5c3.1-0.8,5.1-2.9,6.4-5.7c0.8-1.6,1.3-3.4,2.1-5.1c0.4-0.9,1-1.9,1.7-2.5c1.4-1.2,3.1-0.5,3.3,1.3
		c0.2,1.4,0,2.9,0,4.3c0,6.3-0.1,12.6-0.1,18.9c0,3.4,0.4,6.9,0.7,10.3c0,0.8,0,1.6-0.1,2.4c-0.2,1-0.8,1.6-1.8,1.7
		c-1.1,0.1-2-0.2-2.3-1.3c-0.3-1-0.4-2-0.6-3c-0.6-2.5-1.1-5-2-7.4c-1.2-3.1-3.7-4.9-6.9-5.3c-3.8-0.4-7.7-0.5-11.5-0.4
		c-2.5,0-3.7,1.3-4.1,3.9c-0.3,1.7-0.4,3.5-0.4,5.3c-0.1,4.5,0,9,0,13.4C198.7,179.9,198.6,179.9,198.5,179.9z M181.4,207.3
		c2-0.4,3.3-1.6,4.2-3.3c0.7-1.3,1.2-2.6,1.6-4c1.1-4.3,1.2-8.7,1.2-13.1c0-20.7,0-41.4,0-62.1c0-2-0.1-4-0.3-6
		c-0.3-2.6-0.9-5-2.3-7.3c-1.1-1.7-2.5-3-4.4-3.7c2.1,2.8,3.4,5.8,3.8,9.2c0.3,2.1,0.5,4.3,0.5,6.4c0.1,9.3,0,18.6,0,27.8
		c0,12.6,0,25.1,0,37.7C185.6,195.3,185.2,201.7,181.4,207.3z M216.8,208.2c9,3.8,22-4.6,21-13.4
		C232.8,202.4,225.6,206.4,216.8,208.2z M220.6,106.8c1.7,0.6,3.5,1,5.1,1.8c1.6,0.7,3.1,1.7,4.4,2.8c1.3,1.2,2.2,2.8,3.3,4.2
		c0.1-1.7-0.1-3.3-0.5-4.9c-0.7-2.6-2.4-4-5-4.5C225.4,105.8,223,105.9,220.6,106.8z M221.7,148.5c-0.2,0-0.3-0.1-0.5-0.1
		c-0.9,1-1.8,2-2.7,3c-0.8,1-2.5,1-2.8,2.4c2.1,1.2,4.1,2.3,6.4,3.5C222,154.2,221.9,151.4,221.7,148.5z"/>
	<path d="M23.4,374.1c0.2,5,0.3,10.1,0.5,15.1c0,0.9,0.3,1.7,0.6,2.5c0.6,1.5,1.9,2.3,3.5,2.7c2.9,0.7,5.7,0.4,8.6-0.2
		c7.7-1.6,13.7-5.6,17-13c0.3-0.7,0.6-1.4,1-1.9c0.4-0.4,1-0.8,1.5-0.8c0.4,0,0.9,0.7,1,1.1c0.2,0.7,0.3,1.4,0.2,2.1
		c-0.4,4.2-1.6,8.2-3.3,12c-2.5,5.4-6.8,8.2-12.7,8.2c-3.5,0-7-0.3-10.5-0.6c-7.7-0.7-15.3-0.6-23,0.4C7,401.9,6.3,402,5.6,402
		c-1,0.1-1.9-0.2-2.4-1.2c-0.5-1.1-0.5-2.2,0.3-3.2c0.4-0.5,1-1,1.7-1.3c4.4-2.2,6-6,6.3-10.6c0.1-1,0.1-1.9,0.1-2.9
		c0-17.4,0-34.7,0-52.1c0-2.1-0.1-4.3-0.5-6.4c-0.7-3.8-2.9-6.3-6.9-7c-0.6-0.1-1.3-0.2-1.9-0.4c-1.6-0.5-2.3-1.5-2.1-3
		c0.2-1.5,1.1-2.3,2.9-2.2c2.8,0.1,5.6,0.5,8.4,0.6c7.5,0.1,15,0.2,22.5,0.1c4.7-0.1,9.4-0.4,14.1-0.6c0.6,0,1.3,0,1.9,0
		c2,0.1,2.7,0.8,2.8,2.8c0.1,0.8,0,1.6,0,2.4c0,4,0.1,8,0.1,12c0,0.6,0.1,1.3-0.1,1.9c-0.2,0.5-0.7,1.2-1.1,1.3
		c-0.6,0-1.4-0.4-1.8-0.8c-0.4-0.5-0.3-1.4-0.5-2.1c-0.2-1.3-0.3-2.7-0.7-4c-0.9-3-2.9-5.2-5.9-6.2c-4.8-1.6-9.7-1.9-14.7-1.1
		c-2.4,0.4-3.8,1.9-4.2,4.3c-0.2,1.2-0.3,2.4-0.3,3.6c0,6,0,12,0,18c0,1.1,0.1,2.2,0.3,3.3c0.4,1.9,1.4,2.8,3.3,2.9
		c2.2,0.1,4.3,0.1,6.5-0.1c3.1-0.3,5.4-2,6.7-4.8c0.6-1.3,1-2.7,1.6-4c0.3-0.7,0.7-1.5,1.2-2c1.1-1.1,2.4-0.7,2.7,0.8
		c0.2,0.8,0.2,1.8,0.1,2.6c-0.8,7.8-0.2,15.5,0.3,23.2c0.1,0.9,0.2,1.8-0.1,2.6c-0.2,0.6-0.8,1.2-1.4,1.3c-0.9,0.3-1.5-0.3-1.8-1.2
		c-0.2-0.7-0.2-1.4-0.4-2.1c-0.5-2-0.9-4.1-1.6-6c-0.9-2.4-2.9-3.9-5.5-4.1c-2.7-0.3-5.4-0.4-8.1-0.3c-2.3,0-3.3,1-3.6,3.4
		c-0.3,2.5-0.3,4.9-0.3,7.4c0,2.4,0,4.8,0,7.2C23.5,374.1,23.4,374.1,23.4,374.1z M10.5,317.2c2.2,3.3,3,7,3,10.9
		c0,18.1,0,36.3,0,54.4c0,4.4-0.5,8.8-3,12.6c-0.1,0.1,0,0.3,0.1,0.5c1.2-0.4,2.1-1.1,2.7-2.2c0.6-1.3,1.3-2.6,1.5-4
		c0.4-2.7,0.8-5.4,0.8-8.1c0.1-17,0.1-34,0.1-51c0-1.8-0.1-3.5-0.4-5.2c-0.3-1.6-0.8-3.3-1.4-4.8C13.2,318.9,12.1,317.8,10.5,317.2z
		 M53.5,385.8c-3.8,6-9.2,9.1-16,10.7C45.1,399,53.2,393.6,53.5,385.8z M49.9,323c0.1-6.3-4.5-9.5-9.6-6.7
		C44.5,317.2,48.1,318.9,49.9,323z M41.1,349c-1.7,1.6-3.1,2.9-4.6,4.3c1.6,0.9,3.1,1.7,5,2.7C41.3,353.6,41.3,351.5,41.1,349z"/>
	<path d="M372.7,369.8c-2.8,0-5.6,0-8.4,0c-3.3,0.1-4.7,1-5.7,4.1c-1.3,4.4-2.6,8.7-3.7,13.2c-1,4.2,0.6,7.2,4.7,8.7
		c1.3,0.5,2.6,0.7,3.9,1.2c0.7,0.3,1.6,0.9,1.9,1.6c0.8,1.7-0.4,3.4-2.4,3.3c-1.8-0.1-3.5-0.4-5.2-0.6c-5-0.7-10-0.8-15,0.4
		c-2.5,0.6-4.1-1-3.3-3.3c0.3-0.7,0.9-1.4,1.6-1.7c3.4-1.5,5.3-4.3,6.6-7.6c1.6-4.1,3.1-8.2,4.5-12.4c7.6-21.5,15.1-43,22.7-64.4
		c0.2-0.5,0.3-1.1,0.6-1.6c0.3-0.5,0.9-1.1,1.3-1.1c0.5,0,1.1,0.5,1.4,1c0.5,0.7,0.7,1.6,1,2.4c8.3,24.4,16.6,48.9,24.9,73.3
		c0.4,1.1,0.7,2.1,1.1,3.2c1.2,3.3,3.3,5.6,6.6,6.7c2.2,0.8,2.6,1.6,2.4,3.8c-0.1,1.2-0.7,1.8-1.9,1.7c-1.8-0.1-3.5-0.3-5.2-0.5
		c-6.7-1-13.4-0.7-20.1,0.4c-2.1,0.3-2.6,0.2-3-0.9c-0.6-1.5-0.1-2.7,1.3-3.7c0.7-0.5,1.5-0.9,2.3-1.3c2.3-1.3,3.4-3.4,3.4-5.9
		c0-1.7-0.2-3.4-0.7-5c-1.1-3.6-2.3-7.2-3.5-10.7c-1.3-3.6-2.4-4.3-6.2-4.3C377.9,369.8,375.3,369.8,372.7,369.8
		C372.7,369.8,372.7,369.8,372.7,369.8z M373.4,334.2c-0.2,0-0.5,0-0.7-0.1c-0.4,0.7-0.9,1.4-1.2,2.2c-0.6,1.6-1.2,3.3-1.7,5
		c-2,6-4.1,12.1-6.1,18.1c-1,3-0.3,3.9,2.7,4c4.5,0.1,8.9,0.1,13.4,0c2.6-0.1,3.1-0.9,2.5-3.3c-0.1-0.6-0.3-1.2-0.5-1.8
		c-2.4-7.2-4.8-14.4-7.2-21.6C374.3,335.8,373.8,335,373.4,334.2z M375.9,328c-1.4,0.7-1.6,1.6-1.3,2.7c0.4,1.2,0.9,2.4,1.3,3.6
		c5.1,15.4,10.2,30.8,15.3,46.2c1.6,4.8,3,9.6,0.7,14.6c2.2-1.7,3.1-4,3-6.5c-0.1-2.8-0.4-5.8-1.2-8.5c-5.4-16.6-11-33.2-16.5-49.8
		C376.8,329.5,376.3,328.8,375.9,328z M344.3,397.9c2.4,0,4.1-0.9,5.3-2.8c1.9-3,2-6.4,1.8-9.8C349.4,389.7,348,394.4,344.3,397.9z"
		/>
	<path d="M178.3,358.8c0.9,1.5,1.7,2.8,2.3,4.1c2.5,5.3,5,10.5,7.5,15.8c0.5,1,1,2,1.6,3c1.1,1.8,2.5,2.8,4.7,2.6
		c0.6-0.1,1.6,0.1,1.9,0.5c0.6,0.8-0.1,1.7-0.7,2.3c-2.7,3.1-8.9,3.6-12,0.8c-1.5-1.3-2.8-2.9-3.7-4.7c-1.8-3.3-3.3-6.7-4.9-10.1
		c-1.4-2.9-2.5-5.9-4-8.7c-1.5-2.9-5.4-4.3-8.4-3c-0.6,0.2-1,1-1.3,1.6c-0.2,0.6-0.2,1.3-0.2,1.9c0,3.9-0.1,7.8,0,11.8
		c0,1.6,0.2,3.2,0.5,4.8c0.5,2.3,1.9,4,4.3,4.7c0.4,0.1,0.8,0.2,1.1,0.3c1.1,0.5,1.6,1.4,1.3,2.5c-0.2,1.1-1.1,1.3-2,1.2
		c-1.4-0.1-2.9-0.5-4.3-0.5c-4.1,0-8.1,0.2-12.2,0.3c-0.9,0-1.8,0.3-2.6,0.1c-0.6-0.1-1.4-0.5-1.7-0.9c-0.5-0.8-0.2-1.7,0.6-2.3
		c0.4-0.3,0.8-0.5,1.2-0.7c2.5-1.2,3.9-3.3,4.2-6c0.1-0.9,0.2-1.9,0.2-2.9c0-11.8,0-23.7,0-35.5c0-1.3-0.1-2.7-0.4-4
		c-0.5-2.6-2-4.3-4.6-4.9c-0.4-0.1-0.8-0.2-1.2-0.3c-1.1-0.2-1.7-0.8-1.6-2c0.1-1.1,0.6-1.5,2-1.5c1,0,1.9,0.1,2.9,0.2
		c4.3,0.6,8.6,0.4,12.9,0.1c4.5-0.3,9.1-0.8,13.6,0.2c7.6,1.7,11.8,6.9,11.9,14.7c0,1.4,0,2.7-0.2,4.1c-0.7,4.2-3,7.3-6.7,9.4
		C179.9,358,179.1,358.4,178.3,358.8z M161.6,345.7c-0.1,0-0.1,0-0.2,0c0,2.7-0.1,5.4,0,8.2c0.1,2.4,0.7,3.2,2.9,3.3
		c2.6,0.1,5.3,0.1,7.8-0.4c3.2-0.6,5.1-2.8,5.8-6c0.8-3.8,0.5-7.5-0.9-11.1c-1.9-4.7-6-7.4-11.1-7.3c-2.9,0.1-4.2,1.1-4.4,4
		C161.4,339.5,161.6,342.6,161.6,345.7z M151.1,385.8c2.2-0.8,2.9-2.2,3.3-3.6c0.4-1.4,0.6-2.8,0.6-4.2c0.1-12.7,0.1-25.4,0-38.1
		c0-1.5-0.4-3-0.9-4.4c-0.5-1.4-0.8-1.6-2.5-2.3c1.8,2.8,2,5.8,2,8.9c0,11.3,0,22.5,0,33.8C153.5,379.1,153.2,382.4,151.1,385.8z
		 M187.2,388.3c-3-3.3-5-7.2-6.8-11.2c-2.1-4.6-4.1-9.2-6.2-13.8c-0.3-0.7-0.6-1.3-1-1.9c-0.6-0.8-1.3-1-2.2-0.5
		c1.1,2.3,2.1,4.4,3.1,6.6c1.6,3.6,3.1,7.2,4.8,10.7c1,2.2,2.2,4.3,3.5,6.3C183.6,386.2,185,387.6,187.2,388.3z M174,333.1
		c6.4,6.1,6.8,13.3,4,21.5C184.1,348.2,181.7,336.1,174,333.1z"/>
	<path d="M298.2,360.7c-1.4,1.6-2.6,2.8-3.6,4.2c-0.5,0.7-0.8,1.6-0.8,2.4c0,4.3,0,8.6,0.3,12.9c0.2,3.1,1.8,5.2,5,6
		c0.4,0.1,0.8,0.2,1.1,0.4c0.9,0.5,1.2,1.3,1,2.2c-0.2,0.9-0.9,1.3-1.8,1.3c-0.8,0-1.6-0.1-2.4-0.2c-4.7-0.8-9.4-0.6-14.1,0
		c-1,0.1-1.9,0.3-2.9,0.2c-0.6-0.1-1.4-0.4-1.7-0.9c-0.5-0.8-0.2-1.7,0.6-2.3c0.5-0.4,1.1-0.7,1.6-1c2.1-1.1,3.3-2.8,3.6-5.1
		c0.2-1.3,0.3-2.5,0.4-3.8c0-11.8,0-23.7,0-35.5c0-0.8,0-1.6-0.1-2.4c-0.4-3.4-2-5.8-5.7-6.3c-0.4-0.1-0.8-0.1-1.2-0.3
		c-1.2-0.4-1.7-1-1.6-2c0.2-1,0.9-1.5,1.9-1.4c0.6,0,1.1,0,1.7,0.1c5.8,0.7,11.6,0.7,17.5,0c0.4,0,0.8-0.1,1.2-0.1
		c0.8,0,1.5,0.1,1.7,1c0.2,0.9,0,1.6-0.8,2c-0.5,0.3-1,0.5-1.5,0.7c-1.9,0.9-3.1,2.5-3.4,4.6c-0.2,1.4-0.3,2.9-0.3,4.3
		c0,4.9,0,9.8,0,14.6c0,1,0.2,1.9,0.4,3.4c1-0.7,1.6-1.1,2-1.6c4.5-4.9,9-9.7,13.4-14.7c1.7-2,3.2-4.2,4.5-6.5c1.6-2.7,1-3.8-2-4.6
		c-0.8-0.2-1.5-0.5-1.6-1.5c-0.1-1.1,0.2-1.7,1.4-1.8c1.2,0,2.4,0,3.6,0.2c3.2,0.5,6.4,0.5,9.5,0c0.9-0.2,1.9-0.3,2.9-0.1
		c0.5,0.1,1.3,0.6,1.4,1c0.1,0.6-0.3,1.3-0.5,1.9c-0.1,0.2-0.4,0.3-0.6,0.4c-4.5,1.3-7.5,4.8-10.7,7.9c-3.6,3.6-7,7.5-10.5,11.2
		c-2,2.2-2.1,2.8-0.5,5.2c5,7.8,10.1,15.6,15.2,23.3c0.5,0.8,1.1,1.6,1.7,2.3c1.5,1.9,3.1,3.7,5.6,4.3c0.8,0.2,1.2,0.7,1.1,1.6
		c-0.1,0.9-0.5,1.5-1.4,1.6c-0.6,0.1-1.1,0-1.7,0c-2.6,0-5.3-0.1-7.9-0.1c-1.3,0-2.4-0.3-3.2-1.3c-0.6-0.8-1.1-1.6-1.6-2.4
		c-4.7-7.4-9.4-14.9-14.1-22.3C299.8,362.9,299.2,362.1,298.2,360.7z M283.4,332.6c2.3,2.2,2.6,5,2.6,7.9c0,12.1,0,24.1,0,36.2
		c0,3.1-0.4,6.1-2.2,8.7c-0.1,0.1,0,0.4,0,0.7c0.4-0.3,0.8-0.5,1.1-0.8c2-1.8,2.5-4.2,2.5-6.8c0.1-12.6,0.1-25.1,0.1-37.7
		c0-1.7-0.3-3.3-0.8-4.9C286.4,334.3,285.3,333,283.4,332.6z M300.7,359c-0.2,0.6-0.5,1-0.4,1.4c0.1,0.6,0.5,1.2,0.8,1.7
		c4.9,7.7,9.8,15.4,14.7,23c0.6,0.9,1.4,1.7,2.2,2.5c0.3,0.3,0.9,0.2,1.5,0.3C319,386,302.3,360.2,300.7,359z M314.4,331.2
		c2.5,1.7,2,3.9,1.5,6.3c1.2-1.2,2.4-2.4,1.9-4.2C317.4,331.7,316,331.3,314.4,331.2z"/>
	<path d="M139.1,101.8c-0.4,2.6-1.7,3.8-3.9,3.7c-3.6-0.1-6.5-3.7-5.8-7.3c1-5.1,6.3-8.3,11.4-6.5c1.7,0.6,3.4,1.8,4.8,3
		c3.1,2.8,4.9,6.4,6.6,10.2c2.2,5,3.4,10.3,4.4,15.6c1.5,7.2,3,14.4,4.4,21.6c0.4,2.3,0.5,4.6,0.8,6.9c2.2,0,3.1,0.4,3.1,1.5
		c0.1,1.1-0.6,1.5-3,1.9c0.1,1.2,0.1,2.3,0.2,3.4c1,0.3,2,0.4,2.8,0.7c0.3,0.1,0.5,0.7,0.5,1c0.1,1.1-0.8,1.5-3.1,1.5
		c-0.2,3.6-0.3,7.2-0.5,10.7c-0.8,10.7-2.8,21.1-7.3,30.9c-1.2,2.5-2.2,5.1-3.3,7.7c-0.4,1-0.7,2-0.8,3c-0.2,1.9,1.5,3,3.2,2
		c0.9-0.5,1.6-1.2,2.5-1.8c0.8,2.2-0.6,4.5-3.2,5.5c-2.9,1.1-4.7-0.2-6.8-5.1c-0.2,0.5-0.3,0.8-0.5,1c-5.8,7.2-13.5,11.1-22.4,12.7
		c-4.5,0.8-9,1.4-13.6,0.6c-0.6-0.1-1.3-0.2-1.9-0.4c-7.2-1.7-10.3-6.9-10-14c0.2-5,2.5-9.1,6.6-12c5.4-4,11.6-5.8,18.3-5.3
		c4.3,0.3,7.1,2.8,7.4,6.5c0.1,1.4-0.3,3-0.9,4.4c-0.9,2.1-2.6,3.6-4.6,4.8c-1.2,0.7-2.3,0.6-2.7-0.3c-0.5-1.1,0.3-1.6,1-2.1
		c0.9-0.7,1.9-1.2,2.7-2c2.3-2.1,1.9-4.9-0.9-6.2c-1.7-0.8-3.6-1-5.4-0.7c-5.9,0.9-11,3.3-15.2,7.4c-2.4,2.3-3.3,5.2-2.7,8.5
		c0.6,3.4,2.5,5.5,5.6,6.5c2.9,0.9,6,1.1,9,0.8c15.8-1.4,27.1-9.3,33.9-23.5c3.1-6.5,5.9-13.2,7.1-20.3c1.5-9.5,2.2-19.1,1.4-28.7
		c-1-11.6-2.7-23-5.5-34.3c-1-3.9-2.4-7.8-4-11.5c-1.1-2.4-2.8-4.7-4.4-6.8c-1.3-1.7-3.1-2.7-5.3-3c-2-0.3-3.7,0.1-4.9,1.8
		c-1.2,1.8-1.3,3.8-0.4,5.7c0.4,1,1.6,1.5,2.9,1.2C137.2,102.6,138,102.2,139.1,101.8z"/>
	<path d="M275.1,101.8c1.1,0.4,1.8,0.8,2.5,1c2,0.5,3.3-0.4,3.6-2.3c0.8-4.8-2.7-7.6-7.2-5.9c-2,0.8-3.7,2.1-4.8,3.8
		c-1.6,2.5-3.1,5-4.3,7.7c-2.7,6-4,12.5-5.1,18.9c-1.2,7.2-2.1,14.4-3.1,21.6c-1,7.2-0.5,14.3-0.2,21.5c0.5,11.1,3.8,21.4,8.5,31.2
		c6,12.4,15.9,19.8,29.2,22.5c3.7,0.7,7.5,0.8,11.2,0.2c3.3-0.6,6.2-1.7,7.4-5.2c1.2-3.6,0.8-7-1.9-9.8c-4.4-4.6-9.9-7.2-16.2-7.9
		c-1.5-0.2-3.2,0.2-4.7,0.7c-3,1.2-3.4,4.2-1,6.3c0.9,0.8,1.9,1.4,2.9,2.1c0.7,0.5,1.2,1.1,0.7,2c-0.5,0.7-1.3,1-2.1,0.5
		c-3-1.7-5.3-4-6-7.4c-0.7-3.7,1.3-6.9,4.9-8c1-0.3,2-0.5,3-0.6c6.2-0.3,11.9,1.3,17,4.8c5.6,3.8,7.9,9.2,7.1,16
		c-0.7,5.8-4.5,10.1-10.8,10.8c-14.3,1.6-27-1.6-36.8-12.9c-0.2-0.3-0.5-0.5-0.8-0.8c-1.6,4.5-3.7,5.9-6.6,4.8
		c-1.5-0.6-2.7-1.7-3.5-3.2c-0.4-0.7-0.6-1.5,0.4-2.3c0.6,0.5,1.1,1,1.7,1.4c0.9,0.6,1.8,1.1,2.9,0.5c1.1-0.6,1.1-1.7,0.9-2.8
		c-0.2-0.9-0.4-1.7-0.8-2.5c-1.2-2.9-2.4-5.8-3.6-8.6c-3.8-8.6-5.8-17.6-6.6-26.9c-0.4-4.1-0.4-8.3-0.6-12.4c0-0.4-0.1-0.8-0.1-1.1
		c-2.4,0-3.3-0.5-3.2-1.7c0.1-1.1,0.8-1.5,3.2-1.4c0-1.2,0-2.5,0-3.7c-2.1-0.3-2.8-0.8-2.7-1.9c0.1-1,0.7-1.4,3.1-1.6
		c0.3-2.7,0.5-5.5,1-8.3c1.4-7.2,3-14.4,4.5-21.6c1-5,2.3-10,4.4-14.7c1.7-3.8,3.8-7.4,6.9-10.3c2.4-2.2,5.1-3.2,8.4-2.8
		c3.3,0.4,6.3,3.1,7.2,6.3c0.9,3.4-1.3,7-4.7,7.8C277.6,106,276,104.9,275.1,101.8z"/>
	<path d="M276,232.1c0.4-0.6,0.8-1.3,1.4-1.7c3.4-2.2,8.6-2.5,11.2,2.7c0.6,1.3,1,2.7,1.2,4.1c0.4,2.6-0.4,4.8-2.4,6.4
		c-1.4,1.1-3.1,1.9-4.7,2.8c-0.7,0.4-1.4,0.6-2.5,1.1c0.9,0.6,1.5,1.2,2.1,1.5c6.5,3.2,13.1,6.4,19.6,9.6c0.4,0.2,0.7,0.3,1.1,0.4
		c2.2,0.7,3.4-0.1,3.5-2.4c0-1.8-0.7-2.4-2.5-2.3c-0.7,0-1.4,0.1-2.1,0.1c0.2-2.3,1.2-3.3,3.1-3c3,0.4,4.9,2.7,4.6,5.7
		c-0.1,1.3-0.6,2.6-1,4c0.4,0.2,0.8,0.5,1.2,0.6c6.3,1.8,12.6,3.6,18.9,5.2c2.3,0.6,4.8,0.6,7.1,0.1c4.3-1,6.4-4.4,5.2-8.4
		c-0.8-2.7-3.5-4.7-6.3-4.7c-1.9,0-2.6,0.8-2.4,2.7c0.1,0.9,0.4,1.7,0.6,2.5c0.1,0.6,0.3,1.2,0.4,1.8c-1.3,0.2-1.9-0.5-2.2-1.3
		c-0.5-1.2-1-2.5-1.2-3.9c-0.3-3,1.2-4.7,4.2-4.9c5.3-0.3,11,4.1,11.9,9.3c0.8,4.7-1.3,9.9-7.3,11.2c-3.9,0.9-7.8,0.5-11.7-0.2
		c-11.9-2.2-22.9-6.9-33.5-12.6c-0.7-0.4-1.4-0.7-2.6-1.4c0.4,1,0.6,1.6,0.9,2.2c0.9,1.8,1.4,3.7,1.2,5.8c-0.2,2.2-1.3,3.7-3.4,4.5
		c-6.1,2.1-11.8-2.3-11-8.7c0-0.3,0.1-0.6,0.3-1c1.1,0.4,1.3,1.3,1.8,2c0.6,1,1.1,2,1.8,2.8c1.1,1.3,2.5,1.5,3.9,0.9
		c1.4-0.6,2.2-1.7,2-3.2c-0.2-1.3-0.4-2.8-1.1-3.9c-1.3-2-2.8-4-4.6-5.5c-13-10.5-27.1-19.2-42.9-25c-3.8-1.4-7.8-2.3-12-1.8
		c-0.6,0.1-1.3,0.1-1.9,0.3c-3.1,0.8-5.7,2.3-6.4,5.7c-0.7,3.7,0.4,6.8,3.2,9.3c0.8,0.7,2,1.1,3,1.3c1.6,0.3,3.1,0,4.1-1.4
		c1-1.4,0.9-3.1,0.3-4.6c-0.5-1.2-1.7-1.7-3-1.4c-1.5,0.4-2,1.6-1.2,2.9c0.3,0.5,0.6,0.9,1,1.4c-1.3,0.7-2.1,0.1-2.9-0.6
		c-1.8-1.9-0.7-5.8,1.6-6.4c3.2-0.9,6,0.3,7.2,3.4c1.8,4.7-0.3,8.8-5.2,9.9c-4.3,1-7.8-0.7-9.7-4.6c-1.4-2.9-2-6.1-1.9-9.3
		c0.1-4.7,2.3-7.4,6.7-8.8c5.2-1.6,10.6-1.9,15.8-0.2c3.6,1.2,7.3,2.6,10.6,4.4c7.8,4.3,15.4,8.8,23,13.4c2.6,1.5,5.2,2.4,8.2,2.2
		c2.2-0.1,3.9-0.9,4.7-3.1c0.8-2.3,0.6-4.4-1-6.3c-1.1-1.3-2.6-1.4-4.2-1.3c-1.2,0.1-2.3,0.2-3.5,0.3
		C276.3,232.6,276.1,232.4,276,232.1z"/>
	<path d="M187.3,240c0.4-0.6,0.6-0.9,0.8-1.2c0.8-1.3,0.7-2.1-0.1-2.8c-0.9-0.8-2.4-0.7-3.3,0.1c-2,1.9-1.1,5.9,1.6,6.7
		c1.9,0.6,3.6,0.1,5.2-1.1c2.7-2.1,4.1-6.5,3.1-9.8c-0.8-2.7-2.8-4.2-5.3-5.1c-3.1-1-6.3-0.9-9.5-0.3c-5.4,1.1-10.5,3.3-15.5,5.7
		c-10.2,5-19.9,10.9-29,17.7c-2,1.5-4,3.2-5.8,5c-1.7,1.7-3.1,3.7-3.6,6.1c-0.4,2.1,0.3,3.8,1.9,4.5c1.8,0.8,3.4,0.2,4.7-1.7
		c0.4-0.7,0.7-1.4,1.1-2.1c0.4-0.7,0.8-1.3,1.3-2c0.3,0.4,0.5,0.6,0.6,0.8c1.1,4.5-2.6,9.4-7.3,9.6c-0.2,0-0.3,0-0.5,0
		c-5.5-0.1-7.9-3.3-6.3-8.6c0.4-1.4,1.1-2.6,1.8-4.3c-1,0.5-1.8,0.9-2.5,1.3c-9.9,5.4-20.1,9.8-31.1,12.2c-4.5,1-9,1.7-13.5,0.9
		c-3.7-0.7-6.5-2.5-7.6-6.4c-1.1-4-0.4-7.6,2.7-10.5c2.3-2.2,5-3.5,8.1-3.6c3.8-0.1,5.6,2.2,4.8,5.9c-0.3,1.1-0.7,2.1-1.2,3.1
		c-0.3,0.7-0.9,1.3-2.2,1.1c0.2-0.9,0.5-1.6,0.7-2.3c0.2-0.6,0.4-1.2,0.5-1.8c0.3-2-0.5-2.9-2.4-2.9c-3-0.1-5.7,2.2-6.5,5.1
		c-0.8,3.2,0.6,6,3.6,7.3c2.7,1.2,5.6,1.2,8.5,0.6c6.8-1.3,13.5-3.3,20.1-5.6c0.2-0.1,0.4-0.2,0.6-0.4c-0.3-1.2-0.8-2.3-1-3.4
		c-0.5-2.7,0.9-5.1,3.6-5.9c2.4-0.7,3.4-0.2,4.3,2.4c-0.6,0.8-1.4,0.4-2.2,0.3c-0.9-0.1-1.9-0.1-2.3,0.9c-0.5,1.2-0.4,2.4,0.3,3.4
		c0.7,0.9,1.6,0.9,2.6,0.6c0.7-0.3,1.5-0.5,2.2-0.9c6.1-3,12.2-6,18.3-9c0.8-0.4,1.6-1,2.6-1.7c-0.7-0.4-1.1-0.6-1.6-0.8
		c-0.9-0.4-1.9-0.8-2.9-1.2c-6.5-3.2-6.2-8.9-3.4-13.5c2.3-3.7,7.7-4.3,11-1.5c0.4,0.4,0.6,1,1.1,1.8c-0.9,0.1-1.4,0.1-1.9,0.1
		c-0.5,0-1-0.1-1.4-0.1c-4.8-0.4-7.4,2.8-6,7.4c0.7,2.1,2.2,3,4.3,3.3c3.1,0.3,6-0.5,8.7-2.1c7.3-4.3,14.6-8.6,21.9-12.8
		c4.2-2.4,8.7-4.4,13.5-5.4c4.9-1.1,9.7-0.7,14.4,0.8c4.1,1.3,6.1,4.1,6.2,8.4c0.1,3.3-0.4,6.5-1.9,9.6c-2.3,4.8-7.8,6.4-12.4,3.6
		c-3.7-2.3-4.3-8.3-1-11.2c1.6-1.4,4.4-1.7,6.3-0.7c1.5,0.8,2.2,3,1.6,4.9C190.5,239.6,189.6,240.1,187.3,240z"/>
	<path d="M233.1,329.6c6.5-0.3,11.5-0.5,16.4-0.6c0.8,0,1.6-0.1,2.4,0c2,0.1,2.5,0.4,2.5,2.4c0.1,3.2,0.1,6.4,0.1,9.6
		c0,0.2,0.1,0.5,0,0.7c-0.3,0.4-0.7,1.1-0.9,1.1c-0.5-0.1-1.1-0.5-1.4-1c-0.3-0.5-0.2-1.2-0.3-1.9c-0.4-3-2-5.1-4.9-6
		c-3.5-1.1-7.1-1.3-10.7-0.8c-2.6,0.4-3.6,1.5-3.7,4.2c-0.1,4.8-0.1,9.6,0,14.4c0,2.4,1,3.2,3.5,3.3c0.4,0,0.8,0,1.2,0
		c4.5,0.3,7.6-1.3,9-5.8c0.1-0.3,0.3-0.6,0.4-0.9c0.4-0.8,1.1-1.4,1.9-1c0.5,0.2,0.8,1.2,0.8,1.8c0,2.3-0.2,4.6-0.2,6.9
		c0,2.7,0.3,5.4,0.4,8.1c0,0.5,0.1,1,0.1,1.4c0.1,1.9-0.2,2.8-1.2,2.7c-1.6-0.1-1.4-1.5-1.6-2.5c-0.2-0.8-0.3-1.7-0.6-2.6
		c-0.7-2.3-2.3-3.8-4.8-4c-2-0.2-4-0.3-6-0.2c-1.9,0.1-2.5,0.8-2.7,2.7c-0.1,1.2-0.1,2.4-0.1,3.6c0,5,0,9.9,0.1,14.9
		c0.1,3.8,1.4,5,5.2,5c7.4-0.1,13.7-2.3,17.3-9.4c0.2-0.4,0.3-0.8,0.6-1c0.3-0.3,0.9-0.6,1.2-0.5c0.3,0.1,0.5,0.7,0.8,1
		c0,0.1,0,0.2,0,0.2c-0.2,4.1-1.4,7.9-4,11.1c-2.1,2.6-5.1,3.5-8.4,3.4c-3.8-0.1-7.7-0.5-11.5-0.6c-4.2,0-8.5,0.3-12.7,0.4
		c-0.9,0-1.8,0.2-2.6,0.1c-0.6-0.1-1.4-0.6-1.6-1.1c-0.2-0.5,0.1-1.4,0.5-1.9c0.3-0.5,1-0.8,1.6-1.1c2.5-1.3,3.8-3.3,4.1-6.1
		c0.1-1,0.2-2.1,0.2-3.1c0-11.6,0-23.2,0-34.8c0-1.3-0.1-2.6-0.3-3.8c-0.5-3.1-2-4.7-5-5.4c-0.7-0.2-1.4-0.3-2.1-0.5
		c-0.9-0.3-1.3-0.9-1.2-1.8c0.1-0.9,0.6-1.5,1.5-1.5c1.3,0,2.6,0.1,3.8,0.1C225,329.3,229.8,329.5,233.1,329.6z M223,333
		c1.6,2.6,1.9,5.4,1.9,8.3c0,10.6,0,21.1,0,31.7c0,4.3,0.2,8.6-2.4,12.9c2.3-1,3.1-2.6,3.4-4.3c0.4-2,0.6-4.1,0.6-6.2
		c0.1-11.4,0-22.7,0-34.1c0-1.5-0.2-3-0.5-4.5C225.6,335.1,224.8,333.7,223,333z M243.7,386.5c6,0.9,10.5-1.8,11-6.4
		c-1.6,1.3-3.1,2.7-4.8,3.7C248,384.9,245.9,385.5,243.7,386.5z M245.2,331.7c1.7,0.7,3.1,1.1,4.2,1.8c1.1,0.7,1.9,1.7,2.9,2.6
		C252.2,332.2,250.5,331.1,245.2,331.7z M246,358.9c-0.1-1.8-0.2-3.1-0.3-4.7c-1.3,1.1-2.3,1.9-3.4,2.9
		C243.5,357.7,244.5,358.2,246,358.9z"/>
	<path d="M77.6,353.5c0-3.9,0-7.8,0-11.8c0-0.7,0-1.4,0-2.2c-0.2-4.9-1-5.9-5.8-7.1c-0.4-0.1-0.8-0.2-1.1-0.3c-0.9-0.4-1.2-1-1-1.9
		c0.2-0.8,0.7-1.2,1.5-1.2c1,0,2.1,0,3.1,0.2c4.4,0.6,8.8,0.6,13.2,0c1.3-0.2,2.6-0.2,3.8-0.1c0.5,0,1.3,0.6,1.4,1
		c0,0.6-0.4,1.2-0.8,1.8c-0.1,0.2-0.6,0.3-0.9,0.4c-2.7,0.8-3.9,2.7-4,5.3c-0.2,2.7-0.3,5.4-0.3,8.1c0,7.5,0,15,0.2,22.6
		c0.1,2.3,0.4,4.6,1,6.8c1.8,6.3,6.4,10.1,12.5,10.5c6.2,0.4,11.9-3,14.5-8.7c1.4-2.9,2.1-6.1,2.1-9.3c0.2-9.3,0.1-18.5,0.1-27.8
		c0-0.8-0.2-1.6-0.4-2.4c-0.5-2.4-2-3.9-4.4-4.5c-1-0.2-2-0.4-3-0.7c-0.9-0.3-1.3-0.9-1.2-1.8c0.1-1,0.8-1.3,1.7-1.3
		c1,0,2.1,0.1,3.1,0.2c3.3,0.5,6.5,0.5,9.8,0c0.8-0.1,1.6-0.3,2.4-0.1c0.5,0.1,1.4,0.5,1.4,0.9c0.1,0.6-0.3,1.3-0.7,1.8
		c-0.2,0.3-0.8,0.5-1.3,0.6c-1.7,0.6-2.6,1.8-2.8,3.5c-0.2,2.5-0.4,5.1-0.5,7.6c-0.1,7.5-0.1,15-0.4,22.5c-0.1,4.2-1.1,8.4-2.8,12.3
		c-3.2,7.3-8.7,11.4-16.7,12.2c-3.3,0.3-6.5,0.2-9.8-0.5c-5.3-1.2-8.9-4.4-11.1-9.4c-1.9-4.4-2.6-9.1-2.8-13.8
		C77.6,362.4,77.7,357.9,77.6,353.5C77.7,353.5,77.6,353.5,77.6,353.5z M78,333.5c1.1,2.6,1.1,5.3,1.1,8c0,8.4,0,16.8,0.1,25.2
		c0.1,4,0.5,8,1.8,11.8c1.4,4.1,4.1,6.9,8.1,8.6c0.5,0.2,1.1,0.3,1.7,0.5c-0.2-0.5-0.5-0.8-0.9-1c-4.6-2.6-7.3-6.6-8.2-11.8
		c-0.4-2.1-0.7-4.3-0.7-6.4c-0.1-7.7-0.1-15.5-0.2-23.2c0-2.4-0.1-4.8-0.3-7.2C80.4,336.2,79.8,334.5,78,333.5z M119,338.6
		c0-0.9,0-1.9,0-2.8c-0.1-3.2-1.4-4.4-4.7-4.3C117.3,334,117.3,334,119,338.6z"/>
	<path d="M189.7,48.9c0-1-0.2-2.2,0-3.2c0.3-1.6-0.3-2.8-1-4.1c-1.8-3.6-3.5-7.2-5.1-10.8c-0.7-1.7-1.2-3.6-1.5-5.5
		c-0.5-3.1,0.9-5.4,3.6-7c2.1-1.2,4.4-2,6.8-2.1c3.3-0.2,6.7-0.2,10.1-0.2c0.9,0,1.9,0.1,2.8,0.2c1-1.9-0.1-3-1.4-4.2
		c0.7-1.3,2.7-2.2,1.3-4.3c-0.6,0-1.3-0.1-2.2-0.1c-0.2,0.6-0.5,1.1-0.7,1.7c-0.9,0-1.7,0-2.7,0c0-1.9,0-3.7,0-5.6
		c1.3,0,2.5-0.7,3.4,0.9c0.2,0.4,1.6,0.2,2.5,0.3c0.1-1.1,0.6-2-0.6-2.7c-0.4-0.3-0.4-1.2-0.6-2.1c1.8,0,3.2,0,4.9,0
		c0.2,0.9,0.7,1.8-0.7,2.5c-0.4,0.2-0.3,1.3-0.5,2.1c1.4,0.3,2.5,0.9,3.5-0.6c0.3-0.5,1.7-0.4,2.7-0.5c0,2.1,0,3.9,0,5.9
		c-0.9,0-1.7,0.1-2.6,0.1c-0.2-0.6-0.4-1.2-0.7-1.8c-0.9,0-1.7,0-2.7,0c-0.1,0.8-0.2,1.5-0.2,2.3c0.6,0.5,1.2,1,1.8,1.6
		c-0.5,1.5-2.9,2.2-1.4,4.5c1.1-0.1,2.4-0.1,3.8-0.2c3.9-0.3,7.8-0.2,11.7,0.8c1.4,0.3,2.8,0.9,4,1.5c3.2,1.7,4.5,4.4,3.8,8
		c-0.3,1.7-0.9,3.4-1.6,5c-1.4,3.3-3,6.5-4.6,9.7c-0.9,1.7-1.6,3.5-1.3,5.5c0.1,0.8,0,1.6,0,2.3C222.8,49.2,193.3,49.4,189.7,48.9z
		 M203.6,18c-2.9,0.7-5.6,1.2-8.2,2c-1.7,0.5-3.4,1.4-4.9,2.4c-1.6,1-2.2,2.7-1.8,4.6c0.1,0.6,0.3,1.3,0.5,1.9
		c1.8,5.3,4.7,9.9,7.8,14.5c0.3,0.4,0.9,0.8,1.3,0.8c1.7,0.1,3.5,0,5.3,0C203.6,35.4,203.6,26.9,203.6,18z M210.8,18.2
		c0,8.7,0,17.1,0,25.9c1.9,0,3.6,0.1,5.3,0c0.5,0,1-0.4,1.3-0.9c3.1-4.7,6.1-9.3,7.8-14.8c1.1-3.7,0.4-5.5-3-7.3
		C218.6,19.4,214.8,18.6,210.8,18.2z M219.4,43.8c1.4,0.7,2.2,0.3,2.8-0.9c2.2-4.6,4.4-9.2,6.5-13.8c0.5-1,0.7-2.1,0.9-3.2
		c0.3-1.9-0.4-3.5-1.9-4.6c-1.6-1.2-3.5-1.8-5.5-2c0.6,0.5,1.2,0.8,1.8,1.2c3.2,2,4.1,4.6,3,8.2c-0.3,0.9-0.6,1.8-1,2.7
		c-1.7,3.3-3.3,6.5-5,9.8C220.5,41.9,220,42.8,219.4,43.8z M194.8,43.8c-1.6-3-3.2-5.8-4.7-8.8c-1-2.1-2.1-4.2-2.8-6.3
		c-1.3-3.7-0.2-6.3,3.1-8.4c0.5-0.3,1-0.7,1.6-1c-0.6-0.1-1,0-1.5,0.1c-5.7,1.7-7.1,4.4-4.8,9.9c1.9,4.6,4.3,9.1,6.4,13.6
		C192.6,44,193.4,44.4,194.8,43.8z M209.7,43.7c-0.1-1.2-1.3-2.4-2.6-2.4c-1.3,0-2.5,1.2-2.5,2.5c0,1.3,1.5,3,2.7,2.9
		C208.4,46.6,209.7,44.9,209.7,43.7z"/>
	<path d="M329.9,399.3c0,0.8,0,1.4,0,2c-1.7,0.5-256.9,0.6-260.4,0.1c0-0.6,0-1.3,0-2.1C156.3,399.3,243,399.3,329.9,399.3z"/>
	<path d="M261.5,444.5c0.1-2.5,0.2-5,0.2-7.6c0-5,0-10.1,0-15.1c0-0.6,0-1.1-0.1-1.7c-0.3-3-1.1-3.9-4-4.4c-0.5-0.1-0.9-0.2-1.3-0.3
		c-0.4-0.9-0.1-1.3,0.7-1.5c0.5-0.1,1,0,1.4,0c2.4,0,4.8,0,7.2,0c0.9,0,2-0.3,2.1,1.4c-0.4,0.1-0.7,0.3-1.1,0.4
		c-1.3,0.2-1.9,1.2-2,2.4c-0.2,1.1-0.2,2.2-0.2,3.3c0,10.9,0,21.7,0,32.6c0,1.1,0.7,2.8-0.7,3.2c-1.5,0.5-2.1-1.2-2.8-2.1
		c-7.6-9.5-15.2-18.9-22.8-28.4c-0.5-0.6-1-1.2-1.7-2.1c-0.1,0.8-0.3,1.3-0.3,1.8c0,7.8,0,15.5,0,23.3c0,0.7,0.1,1.4,0.2,2.2
		c0.3,2.1,1.1,2.9,3.2,3.3c0.2,0,0.3,0,0.5,0.1c0.7,0.1,1.7,0,1.5,1c-0.1,0.3-1,0.7-1.5,0.7c-3.1,0.1-6.2,0-9.3,0
		c-0.4,0-0.9-0.1-1.1-0.3c-0.2-0.3-0.1-0.8-0.1-1.2c0-0.1,0.4-0.2,0.6-0.2c2.6-0.2,3.2-2,3.3-4.2c0.1-0.8,0.1-1.6,0.1-2.4
		c0-8.3,0-16.6,0-24.9c0-1.9-0.5-3.6-1.3-5.3c-0.7-1.4-1.8-2.4-3.5-2.6c-0.4,0-0.8,0-1.2-0.2c-0.3-0.2-0.6-0.6-0.6-0.8
		c0-0.3,0.4-0.7,0.8-0.7c0.5-0.1,1.1-0.1,1.7-0.1c1.8,0,3.7,0.2,5.5,0c1.6-0.1,2.6,0.4,3.6,1.7c7,9,14.1,18,21.2,26.9
		c0.5,0.7,1.1,1.4,1.7,2C261.2,444.6,261.4,444.5,261.5,444.5z"/>
	<path d="M199.7,415.3c0.1-1.4,0.8-1.5,1.5-1.5c2.9,0,5.7,0,8.6,0c0.7,0,1.5,0.1,1.4,1.3c-0.3,0.1-0.6,0.4-0.9,0.4
		c-1.4,0.3-2,1.2-2.1,2.5c-0.1,1.2-0.2,2.4-0.2,3.6c0,10.9,0,21.7,0,32.6c0,0.9-0.1,1.9-0.2,3.2c-0.8-0.4-1.5-0.5-1.9-0.8
		c-0.7-0.7-1.4-1.6-2-2.4c-7.5-9.3-14.9-18.6-22.4-27.9c-0.5-0.6-1-1.2-1.8-2.1c-0.1,1-0.2,1.6-0.2,2.2c0,7.6,0,15.2,0,22.8
		c0,0.7,0,1.4,0.1,2.1c0.4,2.4,1.1,3.1,3.5,3.5c0.6,0.1,1.2,0.3,2.3,0.6c-0.7,0.6-1,1-1.4,1.2c-0.4,0.2-0.9,0.1-1.4,0.1
		c-2.6,0-5.3,0-7.9,0c-1.4,0-1.4,0-2.4-1.3c0.7-0.2,1.4-0.5,2-0.6c1.3-0.3,2-1.1,2.2-2.3c0.2-1.2,0.3-2.4,0.3-3.6
		c0-8.6,0-17.3,0-25.9c0-1.9-0.6-3.6-1.5-5.2c-0.7-1.2-1.7-2.1-3.2-2.2c-0.4-0.1-0.8,0-1.2-0.2c-0.3-0.2-0.7-0.6-0.6-0.8
		c0-0.3,0.4-0.7,0.7-0.8c0.5-0.1,1.1-0.1,1.7-0.1c1.8,0,3.7,0.2,5.5,0c1.6-0.1,2.6,0.4,3.6,1.7c7.1,9.1,14.2,18.1,21.4,27.1
		c0.5,0.7,1.1,1.3,1.9,2.3c0.1-0.9,0.2-1.4,0.2-1.9c0-7.3,0-14.5,0-21.8c0-0.8,0-1.6-0.2-2.4c-0.4-1.8-1.4-3-3.3-3.2
		C201.1,415.7,200.5,415.5,199.7,415.3z"/>
	<path d="M131.6,81.6c-0.5-3.2,0.8-5.8,3.1-7.9c1.2-1.1,2.7-1.7,4.4-1.6c2.7,0.3,4.1,2.4,3.3,4.9c-0.5,1.5-1.1,3-3.4,3.1
		c0.2-0.6,0.3-1.1,0.4-1.6c0.1-0.6,0.3-1.3,0.2-1.9c-0.3-1.8-1.5-2.2-2.8-1c-2.6,2.3-2.7,5.6,0,7.8c1.7,1.4,3.6,2.7,5.6,3.7
		c10.7,5.4,22,7.4,33.7,4.3c10.9-2.8,24.3-12.9,26.3-29.9c0.1-1.2,0.1-2.6-0.3-3.8c-0.7-2.4-2.8-3.1-4.9-2c-2.5,1.4-4.4,3.5-5.7,6
		c-0.8,1.6-1.4,3.4-1.9,5.1c-0.3,1-0.2,2.1,0.7,2.8c1,0.7,1.8,0.1,2.7-0.2c0.4-0.2,0.8-0.4,1.5-0.8c0.1,0.6,0.4,1,0.2,1.3
		c-0.9,2-3.3,3-5.4,2.4c-2.2-0.7-3.3-2.3-2.8-4.8c1.2-6.2,4.6-11,9.4-14.9c0.8-0.6,1.9-0.9,2.9-1.1c3-0.5,5.1,0.8,5.7,3.8
		c0.4,2.2,0.7,4.6,0.5,6.9c-1,8.5-4.2,16.4-8.7,23.7c-1.3,2.1-3.2,3.6-5.3,4.8c-4.5,2.7-9.5,4.2-14.7,5c-7.1,1.2-14.2,1.3-21.2-0.7
		c-5.9-1.7-11.4-4.1-16.7-7.1C135.4,86.5,133,84.5,131.6,81.6L131.6,81.6z"/>
	<path d="M275.6,80.1c-2.5-0.7-4.1-3-3.8-5.1c0.4-2,2.4-3.3,4.8-3c4.9,0.7,7.9,7.4,5,11.4c-1.1,1.4-2.5,2.8-4,3.7
		c-10.4,6.4-21.5,10.6-34,9.5c-5.9-0.5-11.7-1.8-17.1-4.2c-4.2-1.9-7.5-4.7-9.7-8.9c-3.5-6.9-6.5-13.9-7.1-21.7c-0.2-2,0-4,0.4-5.9
		c0.8-3.7,4.1-5.1,7.6-3.6c0.2,0.1,0.4,0.2,0.6,0.4c5,4,8.7,8.9,9.7,15.4c0.5,2.9-1.4,4.8-4.3,4.7c-1.7,0-2.9-0.9-3.8-2.2
		c-0.2-0.4-0.1-1-0.2-1.7c1,0.5,1.7,0.8,2.5,1.1c1.6,0.6,2.7-0.1,2.8-1.8c0-0.5,0-1-0.1-1.4c-1.1-4.1-3.2-7.7-6.6-10.3
		c-1.2-0.9-2.5-1.7-4-0.9c-1.6,0.8-2.2,2.2-2.2,4c0.1,5.6,1.6,10.8,4.6,15.4c6.3,9.8,15.1,16.1,27,17.5c10.9,1.3,21-1,30.4-6.4
		c1.5-0.8,2.8-1.8,4.1-2.9c2.5-2.3,1.9-6.3-1-8c-0.9-0.5-1.6-0.3-1.9,0.6c-0.3,0.7-0.3,1.5-0.2,2.3C275,78.7,275.3,79.3,275.6,80.1z
		"/>
	<path d="M139.6,455.5c3.3-1.1,3.8-1.6,3.8-5c0-9.8,0-19.7,0-29.5c0-0.6-0.1-1.3-0.2-1.9c-0.3-1.8-1.3-2.9-3.2-3.1
		c-0.6-0.1-1.2-0.2-1.8-0.3c-0.4-0.9-0.1-1.4,0.7-1.6c0.7-0.1,1.4-0.1,2.1,0c3.3,0.5,6.5,0.6,9.8,0c0.5-0.1,1.1-0.1,1.7,0
		c0.7,0.1,1.1,0.6,0.9,1.4c-3.3,1.3-3.7,1.7-3.7,5.5c-0.1,9.5,0,19,0,28.6c0,0.7,0.1,1.4,0.2,2.1c0.5,2.2,1.2,2.9,3.4,3.4
		c0.7,0.1,1.9-0.2,1.9,1c-0.1,1.3-1.3,0.9-2.1,0.9c-3.8,0-7.7,0-11.5,0C140.8,456.9,139.7,457.2,139.6,455.5z"/>
	<path d="M130.6,173.9c0.5-1.1,0.8-1.7,1.1-2.3c1.4-2.4,2.9-4.8,4.2-7.3c2.6-5.2,6.9-7.5,12.6-7.6c2.4,0,4.8,0.3,7-0.9
		c0.4-0.2,1,0.2,1.5,0.3c0,0.3,0,0.6-0.1,0.6c-2.5,1.5-4.1,3.8-5.6,6.3c-3.4,5.9-8.9,8.7-15.4,9.9
		C134.4,173.3,132.8,173.5,130.6,173.9z"/>
	<path d="M283.5,173.9c-4.4-0.8-8.3-1.3-12-3.1c-4-2-7.2-4.8-9.2-8.8c-1-2-2.4-3.6-4.2-4.7c-0.3-0.2-0.6-0.5-0.9-0.7
		c0.5-0.9,1.1-1.1,1.8-0.7c1.9,1,3.9,0.8,5.9,0.8c0.6,0,1.3,0,1.9,0c5,0.3,8.8,2.4,11.2,6.9c1.5,2.8,3.2,5.5,4.8,8.3
		C283,172.4,283.1,173,283.5,173.9z"/>
	<path d="M287.7,144.1c-6.6,6.9-13.6,11.4-23.3,9.5c-1.1-0.2-2.4,0-3.5,0.1c-1,0.1-1.9,0.5-2.9,0.8c-0.4-1,0-1.6,0.7-1.9
		c1.8-0.9,2.9-2.4,4.1-4c0.4-0.5,0.8-1,1.2-1.5c3.3-3.9,7.4-5.6,12.5-4.8c3.2,0.5,6.5,0.9,9.7,1.3
		C286.5,143.7,286.9,143.9,287.7,144.1z"/>
	<path d="M126.6,144.2c0.8-0.3,1-0.5,1.3-0.5c3.4-0.5,6.8-0.9,10.2-1.4c5.3-0.8,9.4,1.2,12.6,5.2c1.5,1.9,2.8,4.1,5.2,5.2
		c0.4,0.2,0.5,0.9,0.7,1.3c-0.3,0.2-0.5,0.3-0.6,0.3c-2.6-1-5.2-1.1-8-0.6c-6.8,1-12.5-1.6-17.5-5.9
		C129.3,146.8,128.1,145.6,126.6,144.2z"/>
	<path d="M239.3,300.4c1.7,2.6,3.3,5.1,5,7.5c0.6,0.8,1.5,1.3,2.3,1.9c-1.8,1.7-4.3,1.4-5.8-0.9c-1.4-2.1-2.7-4.1-4-6.3
		c-0.8-1.3-1.7-1.9-3.4-1.2c0,2-0.1,4.2,0,6.3c0.1,1.2,0.4,1.4,2.4,2.2c-1,0.6-4.1,0.7-7.8,0.3c2.1-1.1,1.9-2.8,1.9-4.5
		c0-3.8,0-7.7,0-11.5c0-2.5,0-2.5-2-3.7c0.1-0.1,0.2-0.3,0.2-0.3c2.9,0,5.9-0.1,8.8,0c0.9,0,1.9,0.3,2.8,0.6c3.8,1.6,4.3,6.2,1,8.7
		C240.3,299.7,239.9,300,239.3,300.4z M233.3,299.6c0.9,0.1,1.4,0.2,1.8,0.2c2.6-0.1,4.1-1.5,4.2-3.9c0.1-2.4-1.9-4.6-4.2-4.7
		c-1-0.1-1.8,0.2-1.8,1.4C233.3,294.8,233.3,297.1,233.3,299.6z"/>
	<path d="M128,298.9c0-2.1,0-3.9,0-5.7c0-1.5-1-2.2-2.2-2.9c2.4,0,4.8,0,7.4,0c-1.9,1.5-1.9,1.5-1.9,4.1c0,3.9,0,7.8,0,11.8
		c0,2.8,0,2.8,2.7,4.2c-2.8,0-5.3,0-8.2,0c2.7-1.3,2.2-3.6,2.2-5.7c0-1.2,0-2.4,0-3.9c-3.3-0.3-6.4-0.2-9.8-0.1c0,2.5,0,4.8,0,7.1
		c0,0.9,0.5,1.7,1.5,1.9c0.4,0.1,0.8,0.3,1.1,0.8c-2.6,0-5.2,0-7.8,0c2-1,1.9-2.8,1.9-4.5c0-3.6,0-7.2,0-10.8c0-3.2,0-3.2-2.8-4.8
		c2.9,0,5.4,0,8.1,0c-2,1.6-2,1.6-2,4.3c0,1.2,0,2.4,0,3.6c0,0.2,0.1,0.4,0.3,0.8C121.5,298.9,124.6,298.9,128,298.9z"/>
	<path d="M210.3,310.9c-6.3,0-10.8-4.4-10.8-10.6c0-6.3,4.5-10.7,11-10.6c6.4,0,10.8,4.4,10.8,10.6
		C221.3,306.4,216.7,310.9,210.3,310.9z M202.9,298.7c0.1,3.2,1.1,6.4,2.7,8.3c1.8,2.2,4,3.1,6.8,2.6c2.8-0.5,4.4-2.4,5.1-5.1
		c0.6-2.2,0.5-4.4,0-6.6c-0.5-2.2-1.4-4.1-3.1-5.5c-3.9-3.3-9.2-1.8-10.8,3C203.2,296.4,203.1,297.6,202.9,298.7z"/>
	<path d="M286.4,291.5c0.2,1.5,0.3,3,0.5,4.6c-0.1,0.1-0.2,0.1-0.4,0.2c-0.3-0.5-0.7-0.9-1-1.4c-1.1-1.7-2.5-3.1-4.5-3.8
		c-3.2-1.1-6.4,0-8.1,2.8c-2.2,3.6-1.8,9.4,0.9,12.7c3.2,3.8,9.1,3.6,12-0.5c0.3-0.4,0.5-0.7,1.1-1.5c0.2,1.8-0.2,2.8-1.1,3.7
		c-2.8,2.6-8.6,3.4-12.4,1.5c-3.7-1.7-5.9-5.8-5.4-10.1c0.8-8.3,8-12.4,15.6-8.9C284.4,291.1,285.3,291.2,286.4,291.5z"/>
	<path d="M156.1,304.5c0.4,0.7,0.8,1.4,1.3,2.1c0.9,1.5,2.1,2.6,3.8,3.1c1.6,0.4,3,0.1,4.3-0.9c1.9-1.6,1.8-4.3-0.2-5.7
		c-0.8-0.6-1.8-0.9-2.8-1.3c-1-0.4-2.1-0.8-3.1-1.3c-2.6-1.3-3.8-3.5-3.4-6c0.5-2.5,2.7-4.5,5.4-4.7c1.2-0.1,2.5,0.2,3.8,0.3
		c0.9,0.1,1.8,0.4,2.8,0.6c0.1,0.5,0.2,1.1,0.3,1.8c0.1,0.9,0.2,1.9-0.1,2.9c-0.4-0.6-0.7-1.3-1.1-1.9c-1.4-2.3-4-3.3-6.4-2.5
		c-1.3,0.5-2.2,1.3-2.4,2.7c-0.2,1.5,0.5,2.5,1.7,3.1c0.7,0.4,1.4,0.7,2.2,1c1.2,0.5,2.4,1,3.5,1.5c2.2,1,3.6,2.6,3.5,5.2
		c-0.1,2.6-1.3,4.6-3.7,5.7c-2.4,1.1-5,1-7.5,0.2c-0.5-0.2-1.2-0.5-1.3-0.9C156.2,307.9,155.7,306.4,156.1,304.5z"/>
	<path d="M182.6,292c-4.3-0.8-4.8-0.6-7.3,3c-0.3-1.8,0.1-3.2,0.4-4.7c5.8,0,11.6,0,17.8,0c0.2,1.4,0.3,2.9,0.5,4.8
		c-1.5-1.3-1.4-3.3-3.3-3.4c-1.4,0-2.8,0-4.4,0c-0.1,1-0.2,1.7-0.2,2.4c0,4,0.1,8,0,12c0,2,0.3,3.5,2.8,3.7
		c-1.3,0.6-4.8,0.8-8.4,0.4c0.1-0.2,0.2-0.5,0.3-0.6c1.6-0.3,1.9-1.4,1.9-2.8c0-4.6,0-9.1,0-13.7C182.8,292.9,182.7,292.5,182.6,292
		z"/>
	<path d="M108.1,420.5c2,2.5,3.7,4.8,5.6,7.1c-1.8,2.4-3.6,4.6-5.6,7.1c-1.9-2.4-3.7-4.7-5.6-7.1C104.3,425.2,106.1,423,108.1,420.5
		z"/>
	<path d="M307.6,427.6c-1.9,2.4-3.6,4.6-5.6,7.1c-1.9-2.4-3.7-4.7-5.6-7.1c1.8-2.4,3.6-4.6,5.6-7.1
		C304,422.9,305.8,425.2,307.6,427.6z"/>
	<path d="M140.4,290.2c2.5,0,4.9,0,7.6,0c-0.7,0.8-1.4,1.3-1.7,2c-0.3,0.7-0.1,1.6-0.1,2.4c0,3.8,0,7.7,0,11.5c0,2.8,0,2.8,2.5,3.8
		c-1,0.5-4.3,0.7-8,0.3c2.4-1,2.1-2.8,2.1-4.5c0-3.8-0.1-7.5,0-11.3c0-1.9-0.2-3.6-2.7-3.8C140.3,290.6,140.3,290.4,140.4,290.2z"/>
	<path d="M253.1,290.2c2.4,0,4.8,0,7.3,0c-2,1.3-1.6,3.3-1.6,5.1c0,3.6,0,7.2,0,10.8c0,2.7,0.2,2.9,2.6,3.9c-1,0.5-4.3,0.7-7.9,0.3
		c2.1-1,2-2.8,2-4.5c0-3.8,0-7.5,0-11.3c0-1.8-0.1-3.6-2.7-3.8C252.9,290.5,253,290.3,253.1,290.2z"/>
	<path d="M207.2,262.3c-1.6-0.8-1.6-2.2-1.6-3.4c0.1-5.3,0.3-10.7,0.4-16c0-1,0.1-2.1,0.2-3.1c0.1-0.5,0.4-0.9,0.6-1.5
		c1.4,0.7,1.2,1.9,1.2,2.9c0.2,5.3,0.4,10.7,0.6,16c0,0.8,0,1.6,0,2.4C208.6,260.7,208.3,261.6,207.2,262.3z"/>
	<path d="M202.7,240.7c2.2,2.1,0.7,6.6-1,7.9c-1.7,1.3-3.1,0.8-3.5-1.3C197.7,244.4,199.7,241.4,202.7,240.7z"/>
	<path d="M207.1,236c-2.4-1.9-3.2-5.5-1.7-7.8c1.1-1.7,2.4-1.7,3.6,0C210.6,230.6,209.7,234.4,207.1,236z"/>
	<path d="M207.2,80.4c-2.5-1.7-3.3-5.3-1.9-7.8c1.1-1.8,2.6-1.8,3.7,0C210.5,75.1,209.7,78.5,207.2,80.4z"/>
	<path d="M211.5,240.6c3.1,0.8,5.1,3.8,4.6,6.6c-0.4,2.1-1.7,2.6-3.4,1.3C210.5,246.8,209.9,243.5,211.5,240.6z"/>
	<path d="M214.6,59.2c0.4,0,0.8-0.1,1,0c1.7,0.8,3.4,4,3.1,5.8c-0.1,0.3-0.3,0.8-0.6,0.9c-0.3,0.1-0.9,0-1-0.3
		C215.8,63.8,214.2,61.9,214.6,59.2z"/>
	<path d="M125.4,89.3c-2.6-0.4-4.8-2.3-5.4-4.8c1.5-0.9,2.6,0,3.5,0.9C124.7,86.4,126.1,87.4,125.4,89.3z"/>
	<path d="M196,66.1c-0.8-3.1,0.7-6.1,3.4-6.9C200.2,61.5,198.4,65.2,196,66.1z"/>
	<path d="M296,211c1.3-1.4,2.5-0.9,3.5-0.4c1.1,0.5,2.2,1.3,3,2.2c0.6,0.6,0,1.6-0.8,1.4C299.6,213.7,297.5,213.1,296,211z"/>
	<path d="M283,82.6c0.2-0.8,0.3-1.6,0.7-2.2c0.9-1.4,2.1-2.4,3.7-2.8c0.4-0.1,0.9,0.1,1.3,0.4c0.2,0.1,0.2,0.6,0.1,0.9
		C288.1,80.5,285.1,82.5,283,82.6z"/>
	<path d="M118.3,211.1c-0.5,0.5-1,1.2-1.6,1.5c-1.2,0.6-2.4,1.2-3.7,1.6c-1,0.3-1.7-0.4-1.3-1.3c0.6-1.3,1.9-1.9,3.2-2.3
		C115.9,210.2,117.1,209.6,118.3,211.1z"/>
	<path d="M131.5,81.5c-0.2,1.3-0.9,1.7-2,1c-1.3-0.9-2.5-2-3.6-3.1c-0.3-0.3-0.2-1.1-0.1-1.5c0.1-0.2,1-0.4,1.3-0.2
		c1.1,0.6,2.1,1.4,3.1,2.2C130.8,80.3,131.1,81,131.5,81.5C131.6,81.6,131.5,81.5,131.5,81.5z"/>
	<path d="M289,89.6c-0.1-0.5-0.3-0.8-0.3-1c0.2-1.7,2.7-4.1,4.3-4.3c1.1-0.1,1.7,0.6,1.1,1.4C292.9,87.4,291.4,89,289,89.6z"/>
	<path d="M280,90.1c0-2.9,2.2-5,5.2-4.9c0.6,0.6,0.3,1.1-0.1,1.6C283.8,88.7,282,89.9,280,90.1z"/>
	<path d="M134.4,90c-2.6-0.1-4.8-1.9-5.6-4.5c1-0.9,1.9-0.4,2.8,0.2C133,86.7,134.5,87.7,134.4,90z"/>
	<path d="M250.3,154.5c0,0.8-0.9,1.5-1.9,1.5c-1,0-1.8-0.8-1.7-1.6c0-0.8,0.9-1.5,1.8-1.5C249.5,152.9,250.3,153.7,250.3,154.5z"/>
	<path d="M167.5,154.5c-0.1,0.9-0.9,1.5-1.8,1.5c-1,0-1.7-0.8-1.6-1.7c0.1-0.9,0.8-1.5,1.8-1.5C166.9,152.9,167.6,153.6,167.5,154.5
		z"/>
	<path fill="#FFFFFF" d="M181.4,207.3c3.8-5.6,4.2-11.9,4.2-18.3c0.1-12.6,0-25.1,0-37.7c0-9.3,0-18.6,0-27.8c0-2.2-0.2-4.3-0.5-6.4
		c-0.5-3.4-1.7-6.4-3.8-9.2c2,0.7,3.4,2,4.4,3.7c1.4,2.2,2,4.7,2.3,7.3c0.2,2,0.3,4,0.3,6c0,20.7,0,41.4,0,62.1
		c0,4.4-0.1,8.8-1.2,13.1c-0.4,1.4-0.9,2.7-1.6,4C184.7,205.6,183.3,206.8,181.4,207.3z"/>
	<path fill="#FFFFFF" d="M216.8,208.2c8.8-1.8,16-5.8,21-13.4C238.8,203.6,225.8,212,216.8,208.2z"/>
	<path fill="#FFFFFF" d="M220.6,106.8c2.5-0.9,4.8-1,7.2-0.5c2.6,0.5,4.4,1.9,5,4.5c0.4,1.6,0.6,3.2,0.5,4.9c-1.1-1.4-2-3-3.3-4.2
		c-1.3-1.2-2.8-2.1-4.4-2.8C224,107.8,222.3,107.4,220.6,106.8z"/>
	<path fill="#FFFFFF" d="M221.7,148.5c0.1,2.9,0.3,5.8,0.5,8.9c-2.3-1.2-4.3-2.3-6.4-3.5c0.3-1.4,2-1.5,2.8-2.4c0.9-1,1.8-2,2.7-3
		C221.4,148.4,221.6,148.5,221.7,148.5z"/>
	<path fill="#FFFFFF" d="M10.5,317.2c1.6,0.6,2.7,1.7,3.3,3.1c0.6,1.5,1.1,3.2,1.4,4.8c0.3,1.7,0.4,3.5,0.4,5.2c0,17,0,34-0.1,51
		c0,2.7-0.4,5.4-0.8,8.1c-0.2,1.4-0.9,2.7-1.5,4c-0.5,1.1-1.4,1.8-2.7,2.2c0-0.3-0.1-0.5-0.1-0.5c2.4-3.9,3-8.2,3-12.6
		c0-18.1,0-36.3,0-54.4C13.4,324.2,12.7,320.5,10.5,317.2z"/>
	<path fill="#FFFFFF" d="M53.5,385.8c-0.3,7.8-8.4,13.2-16,10.7C44.3,394.9,49.7,391.8,53.5,385.8z"/>
	<path fill="#FFFFFF" d="M49.9,323c-1.9-4.1-5.4-5.8-9.6-6.7C45.5,313.5,50,316.7,49.9,323z"/>
	<path fill="#FFFFFF" d="M41.1,349c0.1,2.5,0.2,4.6,0.3,7c-1.8-1-3.4-1.8-5-2.7C38,352,39.4,350.7,41.1,349z"/>
	<path fill="#FFFFFF" d="M373.4,334.2c0.4,0.8,0.9,1.6,1.2,2.5c2.4,7.2,4.8,14.4,7.2,21.6c0.2,0.6,0.4,1.2,0.5,1.8
		c0.6,2.4,0,3.3-2.5,3.3c-4.5,0.1-8.9,0.1-13.4,0c-3-0.1-3.6-1-2.7-4c2-6.1,4-12.1,6.1-18.1c0.6-1.7,1.1-3.3,1.7-5
		c0.3-0.8,0.8-1.4,1.2-2.2C372.9,334.1,373.1,334.2,373.4,334.2z"/>
	<path fill="#FFFFFF" d="M375.9,328c0.4,0.8,0.9,1.5,1.2,2.3c5.5,16.6,11.1,33.2,16.5,49.8c0.9,2.7,1.1,5.6,1.2,8.5
		c0.1,2.5-0.8,4.8-3,6.5c2.3-5,0.9-9.8-0.7-14.6c-5.1-15.4-10.2-30.8-15.3-46.2c-0.4-1.2-0.9-2.4-1.3-3.6
		C374.2,329.6,374.5,328.7,375.9,328z"/>
	<path fill="#FFFFFF" d="M344.3,397.9c3.7-3.5,5.1-8.2,7-12.6c0.3,3.5,0.1,6.8-1.8,9.8C348.4,397,346.7,397.9,344.3,397.9z"/>
	<path fill="#FFFFFF" d="M161.6,345.7c0-3.1-0.2-6.2,0-9.3c0.2-2.9,1.5-3.9,4.4-4c5.1-0.1,9.2,2.6,11.1,7.3
		c1.4,3.6,1.7,7.3,0.9,11.1c-0.7,3.2-2.6,5.4-5.8,6c-2.6,0.5-5.2,0.5-7.8,0.4c-2.3-0.1-2.9-0.9-2.9-3.3c-0.1-2.7,0-5.4,0-8.2
		C161.5,345.7,161.5,345.7,161.6,345.7z"/>
	<path fill="#FFFFFF" d="M151.1,385.8c2.2-3.4,2.5-6.7,2.5-10.1c0-11.3,0-22.5,0-33.8c0-3.1-0.2-6-2-8.9c1.7,0.7,2.1,0.9,2.5,2.3
		c0.5,1.4,0.9,2.9,0.9,4.4c0.1,12.7,0,25.4,0,38.1c0,1.4-0.3,2.9-0.6,4.2C153.9,383.7,153.2,385,151.1,385.8z"/>
	<path fill="#FFFFFF" d="M187.2,388.3c-2.2-0.6-3.7-2.1-4.8-3.8c-1.3-2-2.5-4.1-3.5-6.3c-1.7-3.5-3.2-7.1-4.8-10.7
		c-1-2.2-2-4.3-3.1-6.6c0.9-0.5,1.6-0.3,2.2,0.5c0.4,0.6,0.7,1.2,1,1.9c2.1,4.6,4.1,9.2,6.2,13.8C182.2,381.1,184.2,385,187.2,388.3
		z"/>
	<path fill="#FFFFFF" d="M174,333.1c7.7,3,10.1,15.1,4,21.5C180.7,346.4,180.3,339.2,174,333.1z"/>
	<path fill="#FFFFFF" d="M283.4,332.6c1.8,0.5,2.9,1.7,3.4,3.3c0.4,1.6,0.8,3.3,0.8,4.9c0,12.6,0,25.1-0.1,37.7
		c0,2.5-0.5,4.9-2.5,6.8c-0.3,0.3-0.6,0.5-1.1,0.8c0-0.3-0.1-0.6,0-0.7c1.8-2.6,2.2-5.6,2.2-8.7c0-12.1,0-24.1,0-36.2
		C286,337.6,285.7,334.8,283.4,332.6z"/>
	<path fill="#FFFFFF" d="M300.7,359c1.5,1.3,18.3,27,18.9,29c-0.6-0.1-1.2,0-1.5-0.3c-0.8-0.7-1.6-1.6-2.2-2.5
		c-4.9-7.7-9.8-15.3-14.7-23c-0.3-0.5-0.7-1.1-0.8-1.7C300.2,360,300.6,359.5,300.7,359z"/>
	<path fill="#FFFFFF" d="M314.4,331.2c1.6,0.1,2.9,0.4,3.4,2c0.5,1.9-0.7,3-1.9,4.2C316.4,335.2,317,332.9,314.4,331.2z"/>
	<path fill="#FFFFFF" d="M223,333c1.7,0.7,2.6,2.1,2.9,3.8c0.3,1.5,0.5,3,0.5,4.5c0,11.4,0.1,22.7,0,34.1c0,2.1-0.2,4.2-0.6,6.2
		c-0.3,1.7-1,3.3-3.4,4.3c2.6-4.3,2.4-8.6,2.4-12.9c0-10.6,0-21.1,0-31.7C225,338.4,224.6,335.6,223,333z"/>
	<path fill="#FFFFFF" d="M243.7,386.5c2.3-1,4.3-1.6,6.2-2.7c1.7-1,3.2-2.5,4.8-3.7C254.2,384.7,249.7,387.4,243.7,386.5z"/>
	<path fill="#FFFFFF" d="M245.2,331.7c5.3-0.7,7,0.5,7.1,4.4c-1-0.9-1.9-1.9-2.9-2.6C248.3,332.8,247,332.5,245.2,331.7z"/>
	<path fill="#FFFFFF" d="M246,358.9c-1.4-0.7-2.5-1.2-3.7-1.8c1.1-0.9,2.1-1.8,3.4-2.9C245.8,355.9,245.9,357.2,246,358.9z"/>
	<path fill="#FFFFFF" d="M78,333.5c1.8,1,2.4,2.7,2.6,4.5c0.2,2.4,0.3,4.8,0.3,7.2c0.1,7.7,0.1,15.5,0.2,23.2c0,2.1,0.3,4.3,0.7,6.4
		c0.9,5.2,3.6,9.2,8.2,11.8c0.3,0.2,0.6,0.4,0.9,1c-0.6-0.2-1.1-0.3-1.7-0.5c-4-1.7-6.7-4.5-8.1-8.6c-1.3-3.8-1.7-7.8-1.8-11.8
		c-0.1-8.4-0.1-16.8-0.1-25.2C79.1,338.9,79,336.2,78,333.5z"/>
	<path fill="#FFFFFF" d="M119,338.6c-1.7-4.6-1.7-4.6-4.7-7.2c3.4,0,4.7,1.2,4.7,4.3C119,336.7,119,337.6,119,338.6z"/>
	<path fill="#FFFFFF" d="M203.6,18c0,9,0,17.4,0,26.1c-1.9,0-3.6,0.1-5.3,0c-0.5,0-1.1-0.4-1.3-0.8c-3-4.6-6-9.3-7.8-14.5
		c-0.2-0.6-0.3-1.2-0.5-1.9c-0.4-1.9,0.1-3.6,1.8-4.6c1.5-1,3.2-1.8,4.9-2.4C198,19.1,200.6,18.6,203.6,18z"/>
	<path fill="#FFFFFF" d="M210.8,18.2c4.1,0.5,7.9,1.2,11.4,3c3.4,1.7,4.2,3.6,3,7.3c-1.7,5.4-4.7,10.1-7.8,14.8
		c-0.3,0.4-0.8,0.8-1.3,0.9c-1.7,0.1-3.5,0-5.3,0C210.8,35.3,210.8,26.8,210.8,18.2z"/>
	<path fill="#FFFFFF" d="M219.4,43.8c0.5-1,1-1.9,1.5-2.8c1.7-3.2,3.4-6.5,5-9.8c0.4-0.8,0.7-1.8,1-2.7c1.1-3.6,0.1-6.2-3-8.2
		c-0.6-0.4-1.2-0.7-1.8-1.2c2,0.2,3.9,0.8,5.5,2c1.5,1.2,2.2,2.8,1.9,4.6c-0.1,1.1-0.4,2.2-0.9,3.2c-2.1,4.6-4.4,9.2-6.5,13.8
		C221.7,44.1,220.9,44.4,219.4,43.8z"/>
	<path fill="#FFFFFF" d="M194.8,43.8c-1.4,0.6-2.2,0.3-2.8-0.9c-2.1-4.5-4.5-9-6.4-13.6c-2.3-5.5-0.9-8.2,4.8-9.9
		c0.4-0.1,0.9-0.2,1.5-0.1c-0.5,0.3-1,0.7-1.6,1c-3.3,2.1-4.3,4.7-3.1,8.4c0.7,2.2,1.8,4.3,2.8,6.3
		C191.6,37.9,193.2,40.8,194.8,43.8z"/>
	<path fill="#FFFFFF" d="M209.7,43.7c0,1.2-1.3,2.9-2.4,3c-1.1,0.1-2.7-1.6-2.7-2.9c0-1.3,1.2-2.4,2.5-2.5
		C208.4,41.3,209.6,42.5,209.7,43.7z"/>
	<path fill="#FFFFFF" d="M233.3,299.6c0-2.5,0-4.8,0-7.1c0-1.2,0.8-1.4,1.8-1.4c2.3,0.2,4.3,2.3,4.2,4.7c-0.1,2.4-1.6,3.8-4.2,3.9
		C234.7,299.8,234.2,299.7,233.3,299.6z"/>
	<path fill="#FFFFFF" d="M202.9,298.7c0.2-1.1,0.3-2.2,0.6-3.3c1.5-4.8,6.9-6.3,10.8-3c1.7,1.5,2.6,3.4,3.1,5.5
		c0.5,2.2,0.6,4.4,0,6.6c-0.7,2.7-2.2,4.6-5.1,5.1c-2.8,0.5-5-0.5-6.8-2.6C203.9,305,203,301.9,202.9,298.7z"/>
</g>
</svg>
