<?xml version="1.0" encoding="utf-8"?>
<!-- Generator: Adobe Illustrator 18.1.1, SVG Export Plug-In . SVG Version: 6.00 Build 0)  -->
<svg version="1.1" id="Layer_1" xmlns="http://www.w3.org/2000/svg" xmlns:xlink="http://www.w3.org/1999/xlink" x="0px" y="0px"
	 viewBox="0 0 414.3 457.6" enable-background="new 0 0 414.3 457.6" xml:space="preserve">
<g>
	<path fill="#FFFFFF" d="M227.9,290.5c0.3,0.2,0.5,0.3,0.8,0.5C228.4,290.8,228.2,290.7,227.9,290.5L227.9,290.5z"/>
	<path fill="#FFFFFF" d="M131.5,81.5L131.5,81.5c-0.4-3.1,0.9-5.7,3.1-7.9C132.4,75.8,131.1,78.3,131.5,81.5
		c-0.4-0.5-0.7-1.2-1.3-1.6C130.8,80.3,131.1,81,131.5,81.5C131.6,81.6,131.5,81.5,131.5,81.5z"/>
	<path fill="#FFFFFF" d="M238.4,204.7c2.1-4.4,3.5-9.1,4.2-13.9c0.2-1.2,0.2-2.4,0-3.6c-0.1-0.7-0.8-1.5-1.4-1.7
		c-0.6-0.1-1.5,0.4-1.9,0.9c-0.7,0.9-1.2,2.1-1.7,3.1c-1.5,3-3.4,5.8-5.9,8.1c-4.3,3.9-9.4,6.2-15.1,7.5c-3.9,0.8-7.7,1.2-11.7,0.5
		c-2.8-0.5-4.7-1.9-5.4-4.8c-0.2-0.8-0.4-1.6-0.4-2.3c-0.2-6.2-0.4-12.5-0.5-18.7c0.1,0,0.1,0,0.2,0c0-4.5,0-9,0-13.4
		c0-1.8,0.1-3.5,0.4-5.3c0.4-2.5,1.6-3.8,4.1-3.9c3.8-0.1,7.7,0,11.5,0.4c3.2,0.3,5.7,2.2,6.9,5.3c0.9,2.4,1.4,4.9,2,7.4
		c0.3,1,0.3,2.1,0.6,3c0.3,1,1.2,1.4,2.3,1.3c1-0.1,1.6-0.7,1.8-1.7c0.1-0.8,0.1-1.6,0.1-2.4c-0.2-3.4-0.6-6.9-0.7-10.3
		c-0.1-6.3,0-12.6,0.1-18.9c0-1.4,0.2-2.9,0-4.3c-0.2-1.9-1.9-2.6-3.3-1.3c-0.7,0.6-1.3,1.6-1.7,2.5c-0.8,1.7-1.3,3.4-2.1,5.1
		c-1.3,2.8-3.4,4.9-6.4,5.7c-3.8,1-7.8,1-11.7,0.5c-1.9-0.2-3-1.4-3.4-3.2c-0.3-1.4-0.4-2.8-0.4-4.3c0-7.7,0-15.4,0-23
		c0-1.2,0.1-2.4,0.2-3.6c0.6-3.9,2.2-5.7,6.1-6.3c6.2-0.9,12.3-0.6,18.3,1.3c5.6,1.8,8.4,5.8,8.9,11.6c0.1,1.2,0.2,2.4,0.5,3.6
		c0.2,1.2,1.2,1.6,2.3,1.6c1.2,0,1.7-0.7,1.8-1.8c0.1-0.7,0.1-1.4,0.1-2.2c-0.1-5.6-0.1-11.2-0.2-16.8c0-0.8,0-1.6-0.2-2.4
		c-0.3-1.7-1-2.3-2.7-2.5c-1-0.1-2.1-0.2-3.1-0.1c-6.7,0.3-13.4,0.5-20.1,0.8c-11.3,0.5-22.5,0.5-33.8-0.5c-1.8-0.2-3.5-0.4-5.3-0.5
		c-2-0.1-3.3,1-3.5,2.8c-0.3,1.9,0.6,3.2,2.5,3.7c0.8,0.2,1.7,0.4,2.6,0.5c5.1,0.9,8.1,4,9.1,8.9c0.5,2.7,0.7,5.6,0.7,8.3
		c0.1,21.8,0,43.7,0,65.5c0,1.8-0.1,3.5-0.3,5.3c-0.6,5.1-2.9,9.1-7.6,11.5c-0.8,0.4-1.5,0.9-2.2,1.5c-1.2,1-1.5,2.8-1,4.2
		c0.5,1.3,1.5,1.8,3.3,1.8c0.5,0,1-0.1,1.4-0.1c11.5-1.6,22.9-1.7,34.5-0.4c3.4,0.4,6.9,0.6,10.3,0.5
		C229.2,215.1,235,211.8,238.4,204.7z M218.6,151.4c0.9-1,1.8-2,2.7-3c0.2,0,0.3,0.1,0.5,0.1c0.1,2.9,0.3,5.8,0.5,8.9
		c-2.3-1.2-4.3-2.3-6.4-3.5C216.1,152.4,217.8,152.4,218.6,151.4z M227.8,106.3c2.6,0.5,4.4,1.9,5,4.5c0.4,1.6,0.6,3.2,0.5,4.9
		c-1.1-1.4-2-3-3.3-4.2c-1.3-1.2-2.8-2.1-4.4-2.8c-1.6-0.8-3.4-1.2-5.1-1.8C223,105.9,225.4,105.8,227.8,106.3z M188.3,186.9
		c0,4.4-0.1,8.8-1.2,13.1c-0.4,1.4-0.9,2.7-1.6,4c-0.9,1.6-2.2,2.8-4.2,3.3c3.8-5.6,4.2-11.9,4.2-18.3c0.1-12.6,0-25.1,0-37.7
		c0-9.3,0-18.6,0-27.8c0-2.2-0.2-4.3-0.5-6.4c-0.5-3.4-1.7-6.4-3.8-9.2c2,0.7,3.4,2,4.4,3.7c1.4,2.2,2,4.7,2.3,7.3
		c0.2,2,0.3,4,0.3,6C188.4,145.5,188.4,166.2,188.3,186.9z M216.8,208.2c8.8-1.8,16-5.8,21-13.4C238.8,203.6,225.8,212,216.8,208.2z
		"/>
	<path fill="#FFFFFF" d="M56.1,378.5c-0.5,0-1.2,0.4-1.5,0.8c-0.5,0.5-0.7,1.2-1,1.9c-3.3,7.4-9.3,11.4-17,13
		c-2.8,0.6-5.7,0.8-8.6,0.2c-1.6-0.4-2.8-1.1-3.5-2.7c-0.3-0.8-0.6-1.7-0.6-2.5c-0.2-5-0.4-10.1-0.5-15.1c0.1,0,0.1,0,0.2,0
		c0-2.4,0-4.8,0-7.2c0-2.5,0-5,0.3-7.4c0.3-2.4,1.2-3.3,3.6-3.4c2.7-0.1,5.4,0,8.1,0.3c2.6,0.3,4.5,1.7,5.5,4.1c0.7,1.9,1.1,4,1.6,6
		c0.2,0.7,0.2,1.4,0.4,2.1c0.2,0.9,0.9,1.5,1.8,1.2c0.6-0.2,1.3-0.8,1.4-1.3c0.2-0.8,0.1-1.7,0.1-2.6c-0.6-7.7-1.1-15.5-0.3-23.2
		c0.1-0.9,0.1-1.8-0.1-2.6c-0.3-1.5-1.6-1.9-2.7-0.8c-0.5,0.5-0.9,1.3-1.2,2c-0.6,1.3-1,2.7-1.6,4c-1.3,2.8-3.6,4.5-6.7,4.8
		c-2.1,0.2-4.3,0.2-6.5,0.1c-1.9-0.1-2.9-1-3.3-2.9c-0.2-1.1-0.3-2.2-0.3-3.3c0-6,0-12,0-18c0-1.2,0.1-2.4,0.3-3.6
		c0.4-2.4,1.8-3.9,4.2-4.3c5-0.8,9.9-0.5,14.7,1.1c3,1,5,3.2,5.9,6.2c0.4,1.3,0.5,2.7,0.7,4c0.1,0.7,0.1,1.5,0.5,2.1
		c0.3,0.5,1.2,0.9,1.8,0.8c0.4,0,0.9-0.8,1.1-1.3c0.2-0.6,0.1-1.3,0.1-1.9c0-4-0.1-8-0.1-12c0-0.8,0-1.6,0-2.4
		c-0.2-2-0.8-2.7-2.8-2.8c-0.6,0-1.3,0-1.9,0c-4.7,0.2-9.4,0.6-14.1,0.6c-7.5,0.1-15,0-22.5-0.1c-2.8,0-5.6-0.4-8.4-0.6
		c-1.7-0.1-2.7,0.7-2.9,2.2c-0.2,1.5,0.6,2.5,2.1,3c0.6,0.2,1.2,0.3,1.9,0.4c4,0.7,6.2,3.2,6.9,7c0.4,2.1,0.5,4.3,0.5,6.4
		c0,17.4,0,34.7,0,52.1c0,1,0,1.9-0.1,2.9c-0.3,4.6-1.9,8.4-6.3,10.6c-0.6,0.3-1.2,0.8-1.7,1.3c-0.7,0.9-0.8,2.1-0.3,3.2
		c0.5,1,1.4,1.2,2.4,1.2c0.7,0,1.4-0.1,2.1-0.2c7.6-1,15.3-1.1,23-0.4c3.5,0.3,7,0.6,10.5,0.6c5.9,0,10.2-2.8,12.7-8.2
		c1.8-3.8,2.9-7.8,3.3-12c0.1-0.7,0-1.5-0.2-2.1C57,379.2,56.5,378.5,56.1,378.5z M41.1,349c0.1,2.5,0.2,4.6,0.3,7
		c-1.8-1-3.4-1.8-5-2.7C38,352,39.4,350.7,41.1,349z M49.9,323c-1.9-4.1-5.4-5.8-9.6-6.7C45.5,313.5,50,316.7,49.9,323z M15.5,381.4
		c0,2.7-0.4,5.4-0.8,8.1c-0.2,1.4-0.9,2.7-1.5,4c-0.5,1.1-1.4,1.8-2.7,2.2c0-0.3-0.1-0.5-0.1-0.5c2.4-3.9,3-8.2,3-12.6
		c0-18.1,0-36.3,0-54.4c0-3.9-0.7-7.6-3-10.9c1.6,0.6,2.7,1.7,3.3,3.1c0.6,1.5,1.1,3.2,1.4,4.8c0.3,1.7,0.4,3.5,0.4,5.2
		C15.6,347.4,15.6,364.4,15.5,381.4z M37.5,396.5c6.8-1.6,12.2-4.7,16-10.7C53.2,393.6,45.1,399,37.5,396.5z"/>
	<path fill="#FFFFFF" d="M411.9,396.4c-3.4-1.1-5.5-3.5-6.6-6.7c-0.4-1.1-0.8-2.1-1.1-3.2c-8.3-24.4-16.6-48.9-24.9-73.3
		c-0.3-0.8-0.5-1.7-1-2.4c-0.3-0.5-1-1-1.4-1c-0.5,0-1,0.6-1.3,1.1c-0.3,0.4-0.4,1-0.6,1.6c-7.6,21.5-15.1,43-22.7,64.4
		c-1.5,4.1-3,8.3-4.5,12.4c-1.3,3.3-3.1,6.1-6.6,7.6c-0.7,0.3-1.3,1-1.6,1.7c-0.8,2.2,0.8,3.9,3.3,3.3c5-1.2,10-1.1,15-0.4
		c1.7,0.2,3.5,0.5,5.2,0.6c1.9,0.1,3.2-1.6,2.4-3.3c-0.3-0.7-1.1-1.3-1.9-1.6c-1.2-0.5-2.6-0.8-3.9-1.2c-4.1-1.6-5.7-4.5-4.7-8.7
		c1.1-4.4,2.3-8.8,3.7-13.2c1-3.1,2.4-4.1,5.7-4.1c2.8-0.1,5.6,0,8.4,0c0,0,0,0,0,0c2.6,0,5.3,0,7.9,0c3.9,0,5,0.8,6.2,4.3
		c1.2,3.5,2.5,7.1,3.5,10.7c0.5,1.6,0.7,3.3,0.7,5c0,2.6-1.1,4.6-3.4,5.9c-0.8,0.4-1.5,0.8-2.3,1.3c-1.4,1-1.9,2.2-1.3,3.7
		c0.4,1.1,1,1.3,3,0.9c6.7-1.1,13.3-1.4,20.1-0.4c1.7,0.3,3.5,0.4,5.2,0.5c1.1,0.1,1.8-0.5,1.9-1.7
		C414.5,398,414.1,397.2,411.9,396.4z M349.6,395.1c-1.2,1.9-2.9,2.8-5.3,2.8c3.7-3.5,5.1-8.2,7-12.6
		C351.6,388.7,351.5,392.1,349.6,395.1z M379.7,363.4c-4.5,0.1-8.9,0.1-13.4,0c-3-0.1-3.6-1-2.7-4c2-6.1,4-12.1,6.1-18.1
		c0.6-1.7,1.1-3.3,1.7-5c0.3-0.8,0.8-1.4,1.2-2.2c0.2,0,0.5,0,0.7,0.1c0.4,0.8,0.9,1.6,1.2,2.5c2.4,7.2,4.8,14.4,7.2,21.6
		c0.2,0.6,0.4,1.2,0.5,1.8C382.8,362.5,382.3,363.4,379.7,363.4z M391.8,395.1c2.3-5,0.9-9.8-0.7-14.6
		c-5.1-15.4-10.2-30.8-15.3-46.2c-0.4-1.2-0.9-2.4-1.3-3.6c-0.3-1.1-0.1-2,1.3-2.7c0.4,0.8,0.9,1.5,1.2,2.3
		c5.5,16.6,11.1,33.2,16.5,49.8c0.9,2.7,1.1,5.6,1.2,8.5C394.9,391.1,394,393.4,391.8,395.1z"/>
	<path fill="#FFFFFF" d="M162.7,361.4c3-1.3,7,0.1,8.4,3c1.4,2.9,2.6,5.8,4,8.7c1.6,3.4,3.1,6.8,4.9,10.1c0.9,1.7,2.2,3.3,3.7,4.7
		c3.1,2.8,9.3,2.3,12-0.8c0.6-0.7,1.3-1.5,0.7-2.3c-0.3-0.4-1.3-0.6-1.9-0.5c-2.2,0.2-3.7-0.8-4.7-2.6c-0.6-1-1.1-2-1.6-3
		c-2.5-5.3-5-10.5-7.5-15.8c-0.7-1.4-1.5-2.6-2.3-4.1c0.8-0.4,1.6-0.8,2.4-1.2c3.7-2.1,6-5.2,6.7-9.4c0.2-1.3,0.2-2.7,0.2-4.1
		c-0.1-7.7-4.4-13-11.9-14.7c-4.5-1-9.1-0.6-13.6-0.2c-4.3,0.3-8.6,0.5-12.9-0.1c-1-0.1-1.9-0.2-2.9-0.2c-1.4,0-1.9,0.4-2,1.5
		c-0.1,1.2,0.5,1.8,1.6,2c0.4,0.1,0.8,0.2,1.2,0.3c2.7,0.6,4.2,2.3,4.6,4.9c0.2,1.3,0.4,2.7,0.4,4c0,11.8,0,23.7,0,35.5
		c0,1-0.1,1.9-0.2,2.9c-0.4,2.7-1.7,4.8-4.2,6c-0.4,0.2-0.9,0.5-1.2,0.7c-0.8,0.6-1.1,1.5-0.6,2.3c0.3,0.5,1.1,0.9,1.7,0.9
		c0.9,0.1,1.7-0.1,2.6-0.1c4.1-0.1,8.1-0.3,12.2-0.3c1.4,0,2.9,0.3,4.3,0.5c0.9,0.1,1.8-0.1,2-1.2c0.2-1.1-0.2-2-1.3-2.5
		c-0.4-0.2-0.8-0.2-1.1-0.3c-2.4-0.6-3.8-2.3-4.3-4.7c-0.4-1.5-0.5-3.2-0.5-4.8c-0.1-3.9,0-7.8,0-11.8c0-0.6,0-1.3,0.2-1.9
		C161.7,362.3,162.1,361.6,162.7,361.4z M155,377.9c0,1.4-0.3,2.9-0.6,4.2c-0.4,1.5-1.1,2.8-3.3,3.6c2.2-3.4,2.5-6.7,2.5-10.1
		c0-11.3,0-22.5,0-33.8c0-3.1-0.2-6-2-8.9c1.7,0.7,2.1,0.9,2.5,2.3c0.5,1.4,0.9,2.9,0.9,4.4C155,352.5,155,365.2,155,377.9z
		 M180.4,377c1.8,4,3.8,7.9,6.8,11.2c-2.2-0.6-3.7-2.1-4.8-3.8c-1.3-2-2.5-4.1-3.5-6.3c-1.7-3.5-3.2-7.1-4.8-10.7
		c-1-2.2-2-4.3-3.1-6.6c0.9-0.5,1.6-0.3,2.2,0.5c0.4,0.6,0.7,1.2,1,1.9C176.3,367.9,178.3,372.5,180.4,377z M178,354.6
		c2.8-8.2,2.3-15.4-4-21.5C181.7,336.1,184.1,348.2,178,354.6z M161.4,345.7c0.1,0,0.1,0,0.2,0c0-3.1-0.2-6.2,0-9.3
		c0.2-2.9,1.5-3.9,4.4-4c5.1-0.1,9.2,2.6,11.1,7.3c1.4,3.6,1.7,7.3,0.9,11.1c-0.7,3.2-2.6,5.4-5.8,6c-2.6,0.5-5.2,0.5-7.8,0.4
		c-2.3-0.1-2.9-0.9-2.9-3.3C161.3,351.1,161.4,348.4,161.4,345.7z"/>
	<path fill="#FFFFFF" d="M329,386.6c-2.5-0.6-4.1-2.4-5.6-4.3c-0.6-0.8-1.2-1.5-1.7-2.3c-5.1-7.8-10.1-15.5-15.2-23.3
		c-1.6-2.5-1.5-3.1,0.5-5.2c3.5-3.8,6.8-7.6,10.5-11.2c3.1-3.1,6.1-6.6,10.7-7.9c0.2-0.1,0.5-0.2,0.6-0.4c0.2-0.6,0.6-1.3,0.5-1.9
		c-0.1-0.4-0.9-0.9-1.4-1c-0.9-0.1-1.9,0-2.9,0.1c-3.2,0.5-6.4,0.5-9.5,0c-1.2-0.2-2.4-0.2-3.6-0.2c-1.1,0-1.5,0.6-1.4,1.8
		c0.1,1,0.8,1.2,1.6,1.5c3,0.8,3.6,2,2,4.6c-1.3,2.3-2.8,4.5-4.5,6.5c-4.4,5-8.9,9.9-13.4,14.7c-0.5,0.5-1.1,0.8-2,1.6
		c-0.2-1.4-0.4-2.4-0.4-3.4c0-4.9,0-9.8,0-14.6c0-1.4,0.1-2.9,0.3-4.3c0.3-2.1,1.5-3.7,3.4-4.6c0.5-0.2,1-0.5,1.5-0.7
		c0.8-0.4,1-1.2,0.8-2c-0.2-0.9-0.9-1-1.7-1c-0.4,0-0.8,0-1.2,0.1c-5.8,0.7-11.6,0.7-17.5,0c-0.6-0.1-1.1-0.1-1.7-0.1
		c-1,0-1.7,0.4-1.9,1.4c-0.2,1,0.3,1.7,1.6,2c0.4,0.1,0.8,0.2,1.2,0.3c3.7,0.5,5.3,2.9,5.7,6.3c0.1,0.8,0.1,1.6,0.1,2.4
		c0,11.8,0,23.7,0,35.5c0,1.3-0.1,2.6-0.4,3.8c-0.4,2.3-1.6,4-3.6,5.1c-0.6,0.3-1.1,0.6-1.6,1c-0.8,0.6-1.1,1.5-0.6,2.3
		c0.3,0.5,1.1,0.9,1.7,0.9c0.9,0.1,1.9-0.1,2.9-0.2c4.7-0.6,9.4-0.7,14.1,0c0.8,0.1,1.6,0.1,2.4,0.2c0.9,0,1.6-0.4,1.8-1.3
		c0.2-1-0.1-1.7-1-2.2c-0.4-0.2-0.7-0.3-1.1-0.4c-3.2-0.8-4.8-2.9-5-6c-0.2-4.3-0.3-8.6-0.3-12.9c0-0.8,0.3-1.8,0.8-2.4
		c1-1.3,2.2-2.5,3.6-4.2c1,1.4,1.5,2.2,2,3c4.7,7.4,9.4,14.9,14.1,22.3c0.5,0.8,1,1.6,1.6,2.4c0.8,1,1.8,1.4,3.2,1.3
		c2.6-0.1,5.3,0,7.9,0.1c0.6,0,1.1,0.1,1.7,0c0.9-0.1,1.4-0.7,1.4-1.6C330.2,387.3,329.8,386.8,329,386.6z M314.4,331.2
		c1.6,0.1,2.9,0.4,3.4,2c0.5,1.9-0.7,3-1.9,4.2C316.4,335.2,317,332.9,314.4,331.2z M287.5,378.5c0,2.5-0.5,4.9-2.5,6.8
		c-0.3,0.3-0.6,0.5-1.1,0.8c0-0.3-0.1-0.6,0-0.7c1.8-2.6,2.2-5.6,2.2-8.7c0-12.1,0-24.1,0-36.2c0-2.9-0.3-5.7-2.6-7.9
		c1.8,0.5,2.9,1.7,3.4,3.3c0.4,1.6,0.8,3.3,0.8,4.9C287.6,353.4,287.5,366,287.5,378.5z M318.1,387.6c-0.8-0.7-1.6-1.6-2.2-2.5
		c-4.9-7.7-9.8-15.3-14.7-23c-0.3-0.5-0.7-1.1-0.8-1.7c-0.1-0.4,0.2-0.9,0.4-1.4c1.5,1.3,18.3,27,18.9,29
		C319,387.9,318.4,387.9,318.1,387.6z"/>
	<path fill="#FFFFFF" d="M107.5,226c0.6,0.1,1.3,0.3,1.9,0.4c4.6,0.8,9.1,0.2,13.6-0.6c8.9-1.6,16.7-5.4,22.4-12.7
		c0.2-0.2,0.3-0.6,0.5-1c2.1,4.9,3.9,6.2,6.8,5.1c2.6-1,4-3.3,3.2-5.5c-0.9,0.6-1.6,1.3-2.5,1.8c-1.7,0.9-3.3-0.1-3.2-2
		c0.1-1,0.4-2,0.8-3c1-2.6,2.1-5.2,3.3-7.7c4.5-9.8,6.5-20.2,7.3-30.9c0.3-3.6,0.4-7.2,0.5-10.7c2.2,0,3.1-0.5,3.1-1.5
		c0-0.4-0.2-0.9-0.5-1c-0.8-0.3-1.8-0.5-2.8-0.7c-0.1-1.1-0.1-2.2-0.2-3.4c2.4-0.4,3.1-0.9,3-1.9c-0.1-1.1-0.9-1.5-3.1-1.5
		c-0.3-2.3-0.4-4.6-0.8-6.9c-1.4-7.2-2.9-14.4-4.4-21.6c-1.1-5.3-2.3-10.6-4.4-15.6c-1.6-3.8-3.5-7.4-6.6-10.2
		c-1.4-1.3-3.1-2.4-4.8-3c-5.1-1.8-10.4,1.4-11.4,6.5c-0.7,3.6,2.2,7.2,5.8,7.3c2.2,0,3.6-1.2,3.9-3.7c-1,0.4-1.8,0.8-2.6,1
		c-1.3,0.3-2.4-0.2-2.9-1.2c-0.8-2-0.8-3.9,0.4-5.7c1.1-1.7,2.9-2.1,4.9-1.8c2.2,0.3,4,1.4,5.3,3c1.7,2.1,3.4,4.3,4.4,6.8
		c1.6,3.7,3,7.6,4,11.5c2.8,11.3,4.5,22.7,5.5,34.3c0.8,9.6,0.1,19.2-1.4,28.7c-1.1,7.2-3.9,13.8-7.1,20.3
		c-6.8,14.2-18.1,22.1-33.9,23.5c-3,0.3-6.1,0.1-9-0.8c-3.2-1-5.1-3.1-5.6-6.5c-0.6-3.4,0.4-6.2,2.7-8.5c4.2-4.2,9.4-6.6,15.2-7.4
		c1.8-0.3,3.7-0.1,5.4,0.7c2.8,1.4,3.2,4.2,0.9,6.2c-0.8,0.7-1.8,1.3-2.7,2c-0.7,0.5-1.5,1-1,2.1c0.5,0.9,1.5,1,2.7,0.3
		c1.9-1.2,3.7-2.7,4.6-4.8c0.6-1.3,0.9-2.9,0.9-4.4c-0.2-3.7-3.1-6.2-7.4-6.5c-6.7-0.5-12.8,1.3-18.3,5.3c-4,3-6.3,7-6.6,12
		C97.2,219.1,100.2,224.3,107.5,226z"/>
	<path fill="#FFFFFF" d="M289.5,195.2c-3.6,1.2-5.6,4.4-4.9,8c0.7,3.5,3,5.7,6,7.4c0.8,0.5,1.6,0.2,2.1-0.5c0.6-0.9,0-1.5-0.7-2
		c-1-0.7-2-1.3-2.9-2.1c-2.4-2.1-2-5.1,1-6.3c1.4-0.6,3.1-0.9,4.7-0.7c6.3,0.7,11.8,3.2,16.2,7.9c2.7,2.8,3,6.3,1.9,9.8
		c-1.2,3.5-4.1,4.7-7.4,5.2c-3.7,0.6-7.5,0.5-11.2-0.2c-13.4-2.7-23.3-10.1-29.2-22.5c-4.8-9.9-8.1-20.1-8.5-31.2
		c-0.3-7.2-0.8-14.4,0.2-21.5c1-7.2,1.9-14.4,3.1-21.6c1.1-6.5,2.4-12.9,5.1-18.9c1.2-2.7,2.7-5.2,4.3-7.7c1.1-1.8,2.8-3.1,4.8-3.8
		c4.5-1.7,8,1.2,7.2,5.9c-0.3,2-1.7,2.9-3.6,2.3c-0.7-0.2-1.4-0.6-2.5-1c0.9,3.2,2.6,4.2,5.2,3.7c3.4-0.7,5.5-4.4,4.7-7.8
		c-0.8-3.2-3.9-5.9-7.2-6.3c-3.2-0.4-6,0.6-8.4,2.8c-3.1,2.9-5.2,6.4-6.9,10.3c-2.1,4.7-3.3,9.7-4.4,14.7
		c-1.5,7.2-3.1,14.4-4.5,21.6c-0.5,2.7-0.7,5.5-1,8.3c-2.4,0.2-3,0.6-3.1,1.6c-0.1,1.1,0.6,1.6,2.7,1.9c0,1.3,0,2.5,0,3.7
		c-2.4-0.1-3.1,0.3-3.2,1.4c-0.1,1.2,0.7,1.6,3.2,1.7c0,0.4,0.1,0.8,0.1,1.1c0.2,4.2,0.2,8.3,0.6,12.4c0.8,9.3,2.7,18.3,6.6,26.9
		c1.3,2.8,2.5,5.7,3.6,8.6c0.3,0.8,0.6,1.7,0.8,2.5c0.2,1,0.2,2.1-0.9,2.8c-1.1,0.6-2,0.2-2.9-0.5c-0.6-0.5-1.2-1-1.7-1.4
		c-0.9,0.8-0.8,1.6-0.4,2.3c0.8,1.4,1.9,2.6,3.5,3.2c3,1.2,5.1-0.3,6.6-4.8c0.3,0.3,0.6,0.6,0.8,0.8c9.8,11.3,22.5,14.5,36.8,12.9
		c6.3-0.7,10.2-4.9,10.8-10.8c0.8-6.7-1.5-12.1-7.1-16c-5.1-3.5-10.8-5.1-17-4.8C291.5,194.7,290.5,194.9,289.5,195.2z"/>
	<path fill="#FFFFFF" d="M346.2,260.3c-0.8-5.2-6.6-9.6-11.9-9.3c-3,0.2-4.5,1.9-4.2,4.9c0.1,1.3,0.6,2.6,1.2,3.9
		c0.3,0.8,0.9,1.5,2.2,1.3c-0.1-0.6-0.3-1.2-0.4-1.8c-0.2-0.9-0.5-1.7-0.6-2.5c-0.2-1.9,0.5-2.7,2.4-2.7c2.8-0.1,5.5,2,6.3,4.7
		c1.2,4-0.9,7.4-5.2,8.4c-2.4,0.5-4.8,0.5-7.1-0.1c-6.3-1.6-12.6-3.5-18.9-5.2c-0.4-0.1-0.8-0.4-1.2-0.6c0.3-1.4,0.8-2.7,1-4
		c0.3-3-1.7-5.3-4.6-5.7c-1.9-0.2-2.9,0.7-3.1,3c0.7,0,1.4-0.1,2.1-0.1c1.8-0.1,2.5,0.6,2.5,2.3c0,2.3-1.3,3.1-3.5,2.4
		c-0.4-0.1-0.8-0.2-1.1-0.4c-6.5-3.2-13.1-6.4-19.6-9.6c-0.7-0.3-1.2-0.8-2.1-1.5c1.1-0.5,1.9-0.7,2.5-1.1c1.6-0.9,3.3-1.7,4.7-2.8
		c2-1.6,2.8-3.9,2.4-6.4c-0.2-1.4-0.6-2.8-1.2-4.1c-2.5-5.3-7.7-4.9-11.2-2.7c-0.6,0.4-0.9,1.1-1.4,1.7c0.1,0.2,0.3,0.4,0.4,0.6
		c1.2-0.1,2.3-0.3,3.5-0.3c1.5-0.1,3.1,0,4.2,1.3c1.5,1.9,1.8,4.1,1,6.3c-0.8,2.2-2.5,3-4.7,3.1c-3,0.2-5.6-0.7-8.2-2.2
		c-7.6-4.5-15.3-9.1-23-13.4c-3.3-1.8-7-3.2-10.6-4.4c-5.2-1.7-10.6-1.4-15.8,0.2c-4.5,1.3-6.7,4.1-6.7,8.8c0,3.2,0.5,6.4,1.9,9.3
		c1.9,4,5.4,5.6,9.7,4.6c4.9-1.1,7.1-5.2,5.2-9.9c-1.2-3.1-4.1-4.2-7.2-3.4c-2.2,0.6-3.4,4.5-1.6,6.4c0.7,0.8,1.6,1.3,2.9,0.6
		c-0.4-0.5-0.7-1-1-1.4c-0.8-1.4-0.3-2.5,1.2-2.9c1.2-0.3,2.5,0.2,3,1.4c0.6,1.5,0.7,3.2-0.3,4.6c-1,1.4-2.5,1.7-4.1,1.4
		c-1.1-0.2-2.2-0.6-3-1.3c-2.8-2.4-3.9-5.6-3.2-9.3c0.7-3.4,3.3-4.9,6.4-5.7c0.6-0.2,1.3-0.2,1.9-0.3c4.2-0.5,8.1,0.4,12,1.8
		c15.8,5.8,29.9,14.5,42.9,25c1.8,1.5,3.3,3.5,4.6,5.5c0.7,1.1,0.9,2.5,1.1,3.9c0.2,1.5-0.6,2.6-2,3.2c-1.4,0.6-2.8,0.3-3.9-0.9
		c-0.7-0.8-1.2-1.9-1.8-2.8c-0.4-0.7-0.6-1.6-1.8-2c-0.1,0.4-0.2,0.7-0.3,1c-0.7,6.4,4.9,10.9,11,8.7c2.1-0.7,3.2-2.3,3.4-4.5
		c0.2-2.1-0.3-4-1.2-5.8c-0.3-0.6-0.5-1.2-0.9-2.2c1.2,0.6,1.9,1,2.6,1.4c10.6,5.7,21.6,10.4,33.5,12.6c3.9,0.7,7.8,1.1,11.7,0.2
		C344.9,270.1,346.9,265,346.2,260.3z"/>
	<path fill="#FFFFFF" d="M76.1,271.6c4.6,0.9,9.1,0.1,13.5-0.9c11-2.4,21.3-6.8,31.1-12.2c0.7-0.4,1.5-0.7,2.5-1.3
		c-0.7,1.7-1.4,3-1.8,4.3c-1.6,5.3,0.8,8.5,6.3,8.6c0.2,0,0.3,0,0.5,0c4.6-0.1,8.4-5,7.3-9.6c0-0.2-0.3-0.4-0.6-0.8
		c-0.5,0.7-0.9,1.4-1.3,2c-0.4,0.7-0.7,1.4-1.1,2.1c-1.3,1.9-3,2.5-4.7,1.7c-1.6-0.7-2.3-2.4-1.9-4.5c0.5-2.4,1.9-4.4,3.6-6.1
		c1.8-1.8,3.7-3.5,5.8-5c9.1-6.8,18.8-12.7,29-17.7c5-2.4,10-4.6,15.5-5.7c3.2-0.7,6.4-0.8,9.5,0.3c2.6,0.8,4.6,2.3,5.3,5.1
		c0.9,3.3-0.5,7.7-3.1,9.8c-1.5,1.2-3.3,1.7-5.2,1.1c-2.6-0.8-3.5-4.8-1.6-6.7c0.9-0.8,2.3-0.9,3.3-0.1c0.8,0.7,0.9,1.5,0.1,2.8
		c-0.2,0.3-0.4,0.6-0.8,1.2c2.2,0.1,3.2-0.4,3.6-1.9c0.6-1.9-0.1-4.1-1.6-4.9c-1.9-1-4.7-0.7-6.3,0.7c-3.3,2.9-2.8,8.9,1,11.2
		c4.5,2.8,10.1,1.2,12.4-3.6c1.4-3,2-6.2,1.9-9.6c-0.1-4.3-2.1-7.1-6.2-8.4c-4.7-1.5-9.5-1.9-14.4-0.8c-4.8,1.1-9.3,3-13.5,5.4
		c-7.4,4.2-14.7,8.5-21.9,12.8c-2.7,1.6-5.5,2.5-8.7,2.1c-2.1-0.2-3.7-1.2-4.3-3.3c-1.5-4.6,1.2-7.8,6-7.4c0.5,0,1,0.1,1.4,0.1
		c0.5,0,1-0.1,1.9-0.1c-0.5-0.8-0.7-1.4-1.1-1.8c-3.3-2.9-8.7-2.3-11,1.5c-2.8,4.6-3.2,10.3,3.4,13.5c0.9,0.5,1.9,0.8,2.9,1.2
		c0.4,0.2,0.8,0.4,1.6,0.8c-1,0.7-1.8,1.3-2.6,1.7c-6.1,3-12.2,6-18.3,9c-0.7,0.3-1.5,0.6-2.2,0.9c-1,0.4-1.9,0.4-2.6-0.6
		c-0.7-1.1-0.8-2.3-0.3-3.4c0.4-1,1.4-0.9,2.3-0.9c0.7,0.1,1.6,0.5,2.2-0.3c-0.9-2.6-1.9-3.1-4.3-2.4c-2.7,0.8-4.2,3.2-3.6,5.9
		c0.2,1.2,0.7,2.3,1,3.4c-0.2,0.1-0.4,0.3-0.6,0.4c-6.6,2.3-13.2,4.3-20.1,5.6c-2.9,0.5-5.7,0.6-8.5-0.6c-3-1.3-4.3-4.2-3.6-7.3
		c0.7-3,3.5-5.2,6.5-5.1c1.9,0,2.7,1,2.4,2.9c-0.1,0.6-0.3,1.2-0.5,1.8c-0.2,0.7-0.4,1.4-0.7,2.3c1.3,0.2,1.9-0.4,2.2-1.1
		c0.5-1,0.9-2,1.2-3.1c0.9-3.7-1-6-4.8-5.9c-3.2,0.1-5.9,1.5-8.1,3.6c-3.1,2.9-3.8,6.5-2.7,10.5C69.6,269,72.4,270.9,76.1,271.6z"/>
	<path fill="#FFFFFF" d="M216.4,329c-0.9,0-1.5,0.6-1.5,1.5c-0.1,0.9,0.3,1.6,1.2,1.8c0.7,0.2,1.4,0.3,2.1,0.5c3,0.7,4.5,2.3,5,5.4
		c0.2,1.3,0.3,2.5,0.3,3.8c0,11.6,0,23.2,0,34.8c0,1-0.1,2.1-0.2,3.1c-0.3,2.7-1.6,4.8-4.1,6.1c-0.6,0.3-1.2,0.6-1.6,1.1
		c-0.4,0.5-0.7,1.4-0.5,1.9c0.2,0.5,1,1,1.6,1.1c0.8,0.1,1.7-0.1,2.6-0.1c4.2-0.2,8.5-0.4,12.7-0.4c3.8,0,7.7,0.5,11.5,0.6
		c3.2,0.1,6.2-0.8,8.4-3.4c2.6-3.2,3.8-7,4-11.1c0-0.1,0-0.2,0-0.2c-0.2-0.4-0.4-1-0.8-1c-0.3-0.1-0.9,0.2-1.2,0.5
		c-0.3,0.2-0.5,0.6-0.6,1c-3.7,7.1-10,9.3-17.3,9.4c-3.8,0-5.1-1.2-5.2-5c-0.2-5-0.1-9.9-0.1-14.9c0-1.2,0-2.4,0.1-3.6
		c0.2-1.9,0.9-2.6,2.7-2.7c2-0.1,4,0,6,0.2c2.5,0.2,4.1,1.7,4.8,4c0.3,0.8,0.4,1.7,0.6,2.6c0.3,1,0,2.4,1.6,2.5
		c0.9,0.1,1.2-0.8,1.2-2.7c0-0.5-0.1-1-0.1-1.4c-0.1-2.7-0.4-5.4-0.4-8.1c0-2.3,0.2-4.6,0.2-6.9c0-0.6-0.3-1.5-0.8-1.8
		c-0.8-0.4-1.5,0.2-1.9,1c-0.2,0.3-0.3,0.6-0.4,0.9c-1.3,4.5-4.5,6.1-9,5.8c-0.4,0-0.8,0-1.2,0c-2.5-0.1-3.4-0.8-3.5-3.3
		c-0.1-4.8-0.1-9.6,0-14.4c0.1-2.7,1.1-3.8,3.7-4.2c3.6-0.5,7.2-0.3,10.7,0.8c2.9,0.9,4.5,3,4.9,6c0.1,0.6,0,1.4,0.3,1.9
		c0.2,0.5,0.9,0.9,1.4,1c0.2,0,0.7-0.7,0.9-1.1c0.1-0.2,0-0.5,0-0.7c0-3.2,0-6.4-0.1-9.6c0-1.9-0.5-2.3-2.5-2.4c-0.8,0-1.6,0-2.4,0
		c-5,0.2-9.9,0.4-16.4,0.6c-3.2-0.1-8-0.3-12.8-0.5C219,329.1,217.7,328.9,216.4,329z M249.8,383.8c1.7-1,3.2-2.5,4.8-3.7
		c-0.5,4.6-5,7.3-11,6.4C245.9,385.5,248,384.9,249.8,383.8z M245.7,354.2c0.1,1.6,0.2,2.9,0.3,4.7c-1.4-0.7-2.5-1.2-3.7-1.8
		C243.4,356.2,244.4,355.3,245.7,354.2z M252.3,336.1c-1-0.9-1.9-1.9-2.9-2.6c-1.1-0.7-2.4-1.1-4.2-1.8
		C250.5,331.1,252.2,332.2,252.3,336.1z M226,336.8c0.3,1.5,0.5,3,0.5,4.5c0,11.4,0.1,22.7,0,34.1c0,2.1-0.2,4.2-0.6,6.2
		c-0.3,1.7-1,3.3-3.4,4.3c2.6-4.3,2.4-8.6,2.4-12.9c0-10.6,0-21.1,0-31.7c0-2.9-0.3-5.7-1.9-8.3C224.8,333.7,225.6,335.1,226,336.8z
		"/>
	<path fill="#FFFFFF" d="M77.7,366.9c0.2,4.7,0.9,9.4,2.8,13.8c2.2,4.9,5.8,8.1,11.1,9.4c3.2,0.8,6.5,0.9,9.8,0.5
		c8-0.8,13.5-4.9,16.7-12.2c1.7-3.9,2.7-8.1,2.8-12.3c0.3-7.5,0.2-15,0.4-22.5c0-2.6,0.2-5.1,0.5-7.6c0.2-1.7,1.1-3,2.8-3.5
		c0.5-0.1,1-0.3,1.3-0.6c0.4-0.5,0.8-1.2,0.7-1.8c0-0.4-0.9-0.8-1.4-0.9c-0.8-0.1-1.6,0-2.4,0.1c-3.3,0.6-6.5,0.5-9.8,0
		c-1-0.2-2.1-0.2-3.1-0.2c-0.9,0-1.6,0.3-1.7,1.3c-0.1,0.9,0.4,1.6,1.2,1.8c1,0.3,2,0.5,3,0.7c2.4,0.6,3.9,2.1,4.4,4.5
		c0.2,0.8,0.4,1.6,0.4,2.4c0,9.3,0,18.5-0.1,27.8c-0.1,3.2-0.8,6.3-2.1,9.3c-2.7,5.7-8.3,9.1-14.5,8.7c-6.1-0.4-10.7-4.2-12.5-10.5
		c-0.6-2.2-1-4.6-1-6.8c-0.2-7.5-0.2-15-0.2-22.6c0-2.7,0.2-5.4,0.3-8.1c0.2-2.6,1.4-4.6,4-5.3c0.3-0.1,0.7-0.2,0.9-0.4
		c0.4-0.6,0.8-1.2,0.8-1.8c0-0.4-0.9-0.9-1.4-1c-1.3-0.1-2.6,0-3.8,0.1c-4.4,0.6-8.8,0.6-13.2,0c-1-0.1-2.1-0.1-3.1-0.2
		c-0.8,0-1.4,0.4-1.5,1.2c-0.2,0.9,0.2,1.6,1,1.9c0.4,0.2,0.8,0.2,1.1,0.3c4.8,1.3,5.6,2.3,5.8,7.1c0,0.7,0,1.4,0,2.2
		c0,3.9,0,7.8,0,11.8c0,0,0.1,0,0.1,0C77.7,357.9,77.6,362.4,77.7,366.9z M114.3,331.4c3.4,0,4.7,1.2,4.7,4.3c0,0.9,0,1.9,0,2.8
		C117.3,334,117.3,334,114.3,331.4z M80.6,338.1c0.2,2.4,0.3,4.8,0.3,7.2c0.1,7.7,0.1,15.5,0.2,23.2c0,2.1,0.3,4.3,0.7,6.4
		c0.9,5.2,3.6,9.2,8.2,11.8c0.3,0.2,0.6,0.4,0.9,1c-0.6-0.2-1.1-0.3-1.7-0.5c-4-1.7-6.7-4.5-8.1-8.6c-1.3-3.8-1.7-7.8-1.8-11.8
		c-0.1-8.4-0.1-16.8-0.1-25.2c0-2.7-0.1-5.4-1.1-8C79.8,334.5,80.4,336.2,80.6,338.1z"/>
	<path fill="#FFFFFF" d="M183.7,30.7c1.6,3.7,3.3,7.3,5.1,10.8c0.6,1.3,1.2,2.5,1,4.1c-0.2,1.1,0,2.2,0,3.2
		c3.6,0.5,33.1,0.4,34.9-0.2c0-0.8,0.1-1.6,0-2.3c-0.3-2,0.4-3.7,1.3-5.5c1.6-3.2,3.2-6.5,4.6-9.7c0.7-1.6,1.2-3.3,1.6-5
		c0.7-3.6-0.6-6.3-3.8-8c-1.3-0.7-2.6-1.2-4-1.5c-3.8-0.9-7.7-1.1-11.7-0.8c-1.3,0.1-2.7,0.2-3.8,0.2c-1.5-2.3,0.9-3,1.4-4.5
		c-0.6-0.6-1.2-1.1-1.8-1.6c0.1-0.8,0.2-1.6,0.2-2.3c1,0,1.8,0,2.7,0c0.2,0.6,0.4,1.2,0.7,1.8c0.9,0,1.7-0.1,2.6-0.1
		c0-1.9,0-3.7,0-5.9c-1,0.2-2.3,0-2.7,0.5c-1,1.5-2.1,0.9-3.5,0.6c0.2-0.8,0.1-1.9,0.5-2.1c1.4-0.7,0.9-1.5,0.7-2.5
		c-1.7,0-3.1,0-4.9,0c0.2,0.9,0.2,1.8,0.6,2.1c1.1,0.8,0.7,1.6,0.6,2.7c-0.9-0.1-2.3,0.1-2.5-0.3c-0.9-1.7-2.1-1-3.4-0.9
		c0,1.9,0,3.7,0,5.6c1,0,1.8,0,2.7,0c0.2-0.6,0.5-1.1,0.7-1.7c0.9,0.1,1.7,0.1,2.2,0.1c1.4,2.1-0.6,2.9-1.3,4.3
		c1.2,1.1,2.4,2.2,1.4,4.2c-0.9-0.1-1.9-0.2-2.8-0.2c-3.4,0-6.7,0-10.1,0.2c-2.4,0.1-4.7,0.9-6.8,2.1c-2.7,1.6-4.1,3.9-3.6,7
		C182.5,27.1,182.9,29,183.7,30.7z M227.7,21.2c1.5,1.2,2.2,2.8,1.9,4.6c-0.1,1.1-0.4,2.2-0.9,3.2c-2.1,4.6-4.4,9.2-6.5,13.8
		c-0.6,1.2-1.4,1.6-2.8,0.9c0.5-1,1-1.9,1.5-2.8c1.7-3.2,3.4-6.5,5-9.8c0.4-0.8,0.7-1.8,1-2.7c1.1-3.6,0.1-6.2-3-8.2
		c-0.6-0.4-1.2-0.7-1.8-1.2C224.3,19.3,226.1,20,227.7,21.2z M210.8,18.2c4.1,0.5,7.9,1.2,11.4,3c3.4,1.7,4.2,3.6,3,7.3
		c-1.7,5.4-4.7,10.1-7.8,14.8c-0.3,0.4-0.8,0.8-1.3,0.9c-1.7,0.1-3.5,0-5.3,0C210.8,35.3,210.8,26.8,210.8,18.2z M207.1,41.3
		c1.3,0,2.5,1.1,2.6,2.4c0,1.2-1.3,2.9-2.4,3c-1.1,0.1-2.7-1.6-2.7-2.9C204.7,42.5,205.8,41.3,207.1,41.3z M195.4,19.9
		c2.6-0.8,5.2-1.3,8.2-2c0,9,0,17.4,0,26.1c-1.9,0-3.6,0.1-5.3,0c-0.5,0-1.1-0.4-1.3-0.8c-3-4.6-6-9.3-7.8-14.5
		c-0.2-0.6-0.3-1.2-0.5-1.9c-0.4-1.9,0.1-3.6,1.8-4.6C192,21.3,193.7,20.5,195.4,19.9z M190.5,19.4c0.4-0.1,0.9-0.2,1.5-0.1
		c-0.5,0.3-1,0.7-1.6,1c-3.3,2.1-4.3,4.7-3.1,8.4c0.7,2.2,1.8,4.3,2.8,6.3c1.5,2.9,3.1,5.7,4.7,8.8c-1.4,0.6-2.2,0.3-2.8-0.9
		c-2.1-4.5-4.5-9-6.4-13.6C183.4,23.8,184.8,21.1,190.5,19.4z"/>
	<path fill="#FFFFFF" d="M69.5,401.4c3.6,0.5,258.7,0.3,260.4-0.1c0-0.6,0-1.2,0-2c-87,0-173.7,0-260.4,0
		C69.5,400.1,69.5,400.8,69.5,401.4z"/>
	<path fill="#FFFFFF" d="M265.6,413.9c-2.4,0-4.8,0-7.2,0c-0.5,0-1,0-1.4,0c-0.8,0.1-1.1,0.6-0.7,1.5c0.4,0.1,0.8,0.2,1.3,0.3
		c3,0.5,3.7,1.4,4,4.4c0.1,0.6,0.1,1.1,0.1,1.7c0,5,0,10.1,0,15.1c0,2.5-0.1,5-0.2,7.6c-0.2,0-0.3,0.1-0.5,0.1
		c-0.6-0.7-1.1-1.4-1.7-2c-7.1-9-14.2-17.9-21.2-26.9c-1-1.3-2-1.8-3.6-1.7c-1.8,0.1-3.7,0-5.5,0c-0.6,0-1.1-0.1-1.7,0.1
		c-0.3,0.1-0.7,0.5-0.8,0.7c0,0.3,0.3,0.7,0.6,0.8c0.3,0.2,0.8,0.2,1.2,0.2c1.7,0.2,2.8,1.2,3.5,2.6c0.8,1.7,1.4,3.3,1.3,5.3
		c-0.1,8.3,0,16.6,0,24.9c0,0.8,0,1.6-0.1,2.4c-0.1,2.1-0.7,4-3.3,4.2c-0.2,0-0.6,0.1-0.6,0.2c-0.1,0.4-0.1,0.9,0.1,1.2
		c0.2,0.2,0.7,0.3,1.1,0.3c3.1,0,6.2,0,9.3,0c0.5,0,1.5-0.4,1.5-0.7c0.2-1.1-0.8-0.9-1.5-1c-0.2,0-0.3,0-0.5-0.1
		c-2.1-0.4-2.9-1.2-3.2-3.3c-0.1-0.7-0.2-1.4-0.2-2.2c0-7.8,0-15.5,0-23.3c0-0.5,0.2-1,0.3-1.8c0.7,0.9,1.3,1.5,1.7,2.1
		c7.6,9.5,15.2,19,22.8,28.4c0.8,0.9,1.4,2.7,2.8,2.1c1.3-0.5,0.7-2.1,0.7-3.2c0-10.9,0-21.7,0-32.6c0-1.1,0-2.2,0.2-3.3
		c0.2-1.2,0.7-2.1,2-2.4c0.4-0.1,0.7-0.3,1.1-0.4C267.6,413.6,266.5,413.9,265.6,413.9z"/>
	<path fill="#FFFFFF" d="M209.8,413.9c-2.9,0-5.7,0-8.6,0c-0.7,0-1.5,0.1-1.5,1.5c0.8,0.2,1.4,0.4,2.1,0.5c2,0.2,3,1.4,3.3,3.2
		c0.2,0.8,0.2,1.6,0.2,2.4c0,7.3,0,14.5,0,21.8c0,0.5-0.1,1-0.2,1.9c-0.8-1-1.4-1.6-1.9-2.3c-7.1-9-14.3-18.1-21.4-27.1
		c-1-1.3-2-1.8-3.6-1.7c-1.8,0.1-3.7,0-5.5,0c-0.6,0-1.1-0.1-1.7,0.1c-0.3,0.1-0.7,0.5-0.7,0.8c0,0.3,0.3,0.7,0.6,0.8
		c0.3,0.2,0.8,0.2,1.2,0.2c1.5,0.2,2.5,1,3.2,2.2c0.9,1.6,1.5,3.3,1.5,5.2c0,8.6,0,17.3,0,25.9c0,1.2-0.1,2.4-0.3,3.6
		c-0.2,1.2-0.9,2-2.2,2.3c-0.7,0.1-1.3,0.4-2,0.6c1,1.3,1,1.3,2.4,1.3c2.6,0,5.3,0,7.9,0c0.5,0,1,0.1,1.4-0.1
		c0.4-0.2,0.7-0.6,1.4-1.2c-1.1-0.3-1.7-0.4-2.3-0.6c-2.4-0.5-3.1-1.1-3.5-3.5c-0.1-0.7-0.1-1.4-0.1-2.1c0-7.6,0-15.2,0-22.8
		c0-0.6,0.1-1.2,0.2-2.2c0.8,0.9,1.3,1.5,1.8,2.1c7.5,9.3,14.9,18.6,22.4,27.9c0.7,0.8,1.3,1.7,2,2.4c0.4,0.4,1,0.5,1.9,0.8
		c0.1-1.4,0.2-2.3,0.2-3.2c0-10.9,0-21.7,0-32.6c0-1.2,0.1-2.4,0.2-3.6c0.1-1.3,0.7-2.3,2.1-2.5c0.4-0.1,0.7-0.3,0.9-0.4
		C211.3,414,210.6,413.9,209.8,413.9z"/>
	<path fill="#FFFFFF" d="M131.6,81.6L131.6,81.6c1.4,2.9,3.8,5,6.6,6.6c5.3,3.1,10.9,5.5,16.7,7.1c7,2,14.1,1.9,21.2,0.7
		c5.2-0.9,10.1-2.4,14.7-5c2.1-1.2,4-2.7,5.3-4.8c4.5-7.3,7.7-15.1,8.7-23.7c0.3-2.3,0-4.6-0.5-6.9c-0.6-3-2.7-4.3-5.7-3.8
		c-1,0.2-2.1,0.5-2.9,1.1c-4.8,3.9-8.2,8.7-9.4,14.9c-0.5,2.5,0.6,4.2,2.8,4.8c2.1,0.6,4.6-0.4,5.4-2.4c0.1-0.3-0.1-0.8-0.2-1.3
		c-0.6,0.3-1,0.6-1.5,0.8c-0.9,0.4-1.7,1-2.7,0.2c-1-0.7-1-1.8-0.7-2.8c0.5-1.7,1.1-3.5,1.9-5.1c1.3-2.5,3.1-4.6,5.7-6
		c2.1-1.2,4.3-0.4,4.9,2c0.3,1.2,0.4,2.5,0.3,3.8c-2,17-15.4,27.1-26.3,29.9c-11.7,3-23,1.1-33.7-4.3c-2-1-3.9-2.3-5.6-3.7
		c-2.7-2.2-2.6-5.5,0-7.8c1.4-1.2,2.5-0.9,2.8,1c0.1,0.6-0.1,1.2-0.2,1.9c-0.1,0.5-0.3,1-0.4,1.6c2.3-0.1,2.9-1.6,3.4-3.1
		c0.9-2.5-0.6-4.7-3.3-4.9c-1.7-0.2-3.2,0.4-4.4,1.6C132.4,75.8,131.1,78.3,131.6,81.6z"/>
	<path fill="#FFFFFF" d="M216.6,74.9c-3-4.6-4.5-9.9-4.6-15.4c0-1.7,0.6-3.2,2.2-4c1.5-0.7,2.8,0,4,0.9c3.5,2.6,5.6,6.1,6.6,10.3
		c0.1,0.5,0.1,1,0.1,1.4c-0.1,1.7-1.2,2.4-2.8,1.8c-0.7-0.3-1.4-0.6-2.5-1.1c0.1,0.8,0,1.4,0.2,1.7c0.9,1.3,2.1,2.2,3.8,2.2
		c2.9,0.1,4.7-1.8,4.3-4.7c-1-6.5-4.7-11.4-9.7-15.4c-0.2-0.1-0.4-0.3-0.6-0.4c-3.5-1.6-6.8-0.1-7.6,3.6c-0.4,1.9-0.6,4-0.4,5.9
		c0.6,7.8,3.6,14.8,7.1,21.7c2.2,4.2,5.4,7,9.7,8.9c5.5,2.5,11.2,3.7,17.1,4.2c12.5,1.1,23.6-3.1,34-9.5c1.5-0.9,2.9-2.3,4-3.7
		c2.9-3.9-0.1-10.7-5-11.4c-2.4-0.3-4.4,0.9-4.8,3c-0.4,2.1,1.2,4.4,3.8,5.1c-0.3-0.9-0.6-1.5-0.6-2.1c0-0.8,0-1.6,0.2-2.3
		c0.3-0.9,1.1-1.1,1.9-0.6c2.9,1.7,3.5,5.7,1,8c-1.2,1.1-2.6,2.1-4.1,2.9c-9.5,5.3-19.6,7.7-30.4,6.4
		C231.7,91,222.9,84.8,216.6,74.9z"/>
	<path fill="#FFFFFF" d="M143.4,450.5c0,3.4-0.5,3.9-3.8,5c0,1.7,1.2,1.4,2.1,1.4c3.8,0,7.7,0,11.5,0c0.8,0,2,0.4,2.1-0.9
		c0.1-1.2-1.1-0.8-1.9-1c-2.3-0.5-3-1.1-3.4-3.4c-0.1-0.7-0.2-1.4-0.2-2.1c0-9.5,0-19,0-28.6c0-3.8,0.4-4.1,3.7-5.5
		c0.3-0.8-0.2-1.2-0.9-1.4c-0.5-0.1-1.1-0.1-1.7,0c-3.3,0.5-6.5,0.5-9.8,0c-0.7-0.1-1.4-0.1-2.1,0c-0.8,0.1-1.1,0.6-0.7,1.6
		c0.5,0.1,1.1,0.2,1.8,0.3c1.8,0.2,2.9,1.3,3.2,3.1c0.1,0.6,0.2,1.3,0.2,1.9"/>
	<path fill="#FFFFFF" d="M155.6,155.9c-2.3,1.2-4.7,0.9-7,0.9c-5.7,0-9.9,2.4-12.6,7.6c-1.3,2.5-2.8,4.8-4.2,7.3
		c-0.3,0.6-0.6,1.2-1.1,2.3c2.1-0.3,3.8-0.6,5.4-0.9c6.4-1.3,12-4.1,15.4-9.9c1.5-2.6,3.1-4.8,5.6-6.3c0.1,0,0-0.3,0.1-0.6
		C156.6,156,155.9,155.7,155.6,155.9z"/>
	<path fill="#FFFFFF" d="M266.8,156.8c-0.6,0-1.3,0-1.9,0c-2,0-4,0.2-5.9-0.8c-0.7-0.4-1.4-0.2-1.8,0.7c0.3,0.3,0.6,0.5,0.9,0.7
		c1.9,1.2,3.2,2.7,4.2,4.7c2,4,5.2,6.8,9.2,8.8c3.6,1.8,7.6,2.3,12,3.1c-0.3-0.9-0.4-1.5-0.7-1.9c-1.6-2.8-3.2-5.5-4.8-8.3
		C275.6,159.2,271.8,157.1,266.8,156.8z"/>
	<path fill="#FFFFFF" d="M287.7,144.1c-0.8-0.2-1.2-0.4-1.5-0.4c-3.2-0.4-6.5-0.8-9.7-1.3c-5.1-0.8-9.3,0.9-12.5,4.8
		c-0.4,0.5-0.8,1-1.2,1.5c-1.1,1.5-2.3,3.1-4.1,4c-0.7,0.3-1.1,0.9-0.7,1.9c1-0.3,1.9-0.6,2.9-0.8c1.2-0.2,2.4-0.4,3.5-0.1
		C274.1,155.5,281.1,151,287.7,144.1z"/>
	<path fill="#FFFFFF" d="M155.9,152.8c-2.3-1.2-3.6-3.3-5.2-5.2c-3.2-4-7.3-6-12.6-5.2c-3.4,0.5-6.8,0.9-10.2,1.4
		c-0.3,0-0.6,0.2-1.3,0.5c1.5,1.4,2.6,2.6,3.9,3.7c5,4.4,10.7,7,17.5,5.9c2.8-0.4,5.4-0.4,8,0.6c0.1,0,0.2-0.1,0.6-0.3
		C156.4,153.7,156.3,153,155.9,152.8z"/>
	<path fill="#FFFFFF" d="M239.7,290.8c-0.9-0.4-1.8-0.6-2.8-0.6c-2.9-0.1-5.9,0-8.8,0c0,0,0,0-0.1,0c-0.1,0.1-0.1,0.2-0.2,0.3
		c0,0,0,0,0,0c0.3,0.2,0.5,0.3,0.8,0.5c0.3,0.2,0.6,0.4,0.8,0.6c0,0,0,0,0,0c0.1,0.1,0.2,0.2,0.2,0.3c0.1,0.2,0.2,0.4,0.2,0.6
		c0,0.1,0,0.2,0,0.3c0,0.2,0,0.4,0,0.6c0,0.2,0,0.5,0,0.8c0,3.8,0,7.7,0,11.5c0,1.7,0.2,3.4-1.9,4.5c3.8,0.4,6.8,0.3,7.8-0.3
		c-2.1-0.8-2.4-0.9-2.4-2.2c-0.1-2.1,0-4.2,0-6.3c1.7-0.7,2.7-0.1,3.4,1.2c1.3,2.1,2.6,4.2,4,6.3c1.5,2.3,4,2.6,5.8,0.9
		c-0.8-0.6-1.7-1.1-2.3-1.9c-1.7-2.4-3.3-4.9-5-7.5c0.7-0.4,1.1-0.7,1.4-1C244,297,243.5,292.4,239.7,290.8z M235.2,299.8
		c-0.5,0-0.9-0.1-1.8-0.2c0-2.5,0-4.8,0-7.1c0-1.2,0.8-1.4,1.8-1.4c2.3,0.2,4.3,2.3,4.2,4.7C239.3,298.3,237.8,299.7,235.2,299.8z"
		/>
	<path fill="#FFFFFF" d="M131.4,306c0-3.9,0-7.8,0-11.8c0-2.5,0-2.5,1.9-4.1c-2.6,0-5,0-7.4,0c1.1,0.8,2.2,1.4,2.2,2.9
		c0,1.8,0,3.7,0,5.7c-3.4,0-6.5,0-9.5,0c-0.1-0.4-0.2-0.6-0.3-0.8c0-1.2,0-2.4,0-3.6c0-2.7,0-2.7,2-4.3c-2.7,0-5.2,0-8.1,0
		c2.8,1.5,2.8,1.5,2.8,4.8c0,3.6,0,7.2,0,10.8c0,1.7,0.1,3.5-1.9,4.5c2.6,0,5.2,0,7.8,0c-0.3-0.5-0.7-0.7-1.1-0.8
		c-1-0.2-1.5-1-1.5-1.9c-0.1-2.3,0-4.6,0-7.1c3.4-0.1,6.5-0.2,9.8,0.1c0,1.5,0,2.7,0,3.9c0,2.1,0.5,4.4-2.2,5.7c2.9,0,5.3,0,8.2,0
		C131.4,308.9,131.4,308.9,131.4,306z"/>
	<path fill="#FFFFFF" d="M210.5,289.6c-6.5,0-11,4.3-11,10.6c0,6.2,4.4,10.6,10.8,10.6c6.4,0,11-4.5,11.1-10.7
		C221.4,294,216.9,289.6,210.5,289.6z M217.4,304.5c-0.7,2.7-2.2,4.6-5.1,5.1c-2.8,0.5-5-0.5-6.8-2.6c-1.6-2-2.6-5.1-2.7-8.3
		c0.2-1.1,0.3-2.2,0.6-3.3c1.5-4.8,6.9-6.3,10.8-3c1.7,1.5,2.6,3.4,3.1,5.5C217.9,300.1,218,302.3,217.4,304.5z"/>
	<path fill="#FFFFFF" d="M281,291c2,0.7,3.4,2.1,4.5,3.8c0.3,0.5,0.7,0.9,1,1.4c0.1-0.1,0.2-0.1,0.4-0.2c-0.2-1.6-0.3-3.1-0.5-4.6
		c-1.1-0.3-2-0.4-2.8-0.7c-7.6-3.5-14.9,0.6-15.6,8.9c-0.4,4.3,1.8,8.4,5.4,10.1c3.8,1.8,9.7,1.1,12.4-1.5c0.9-0.9,1.3-2,1.1-3.7
		c-0.6,0.8-0.8,1.1-1.1,1.5c-2.9,4.1-8.9,4.3-12,0.5c-2.7-3.2-3.1-9.1-0.9-12.7C274.6,291,277.9,289.9,281,291z"/>
	<path fill="#FFFFFF" d="M160.7,291c2.3-0.8,5,0.2,6.4,2.5c0.4,0.6,0.7,1.3,1.1,1.9c0.3-1.1,0.2-2,0.1-2.9c-0.1-0.6-0.2-1.2-0.3-1.8
		c-1-0.2-1.9-0.5-2.8-0.6c-1.3-0.2-2.5-0.4-3.8-0.3c-2.7,0.2-4.9,2.2-5.4,4.7c-0.5,2.5,0.7,4.7,3.4,6c1,0.5,2.1,0.8,3.1,1.3
		c0.9,0.4,2,0.8,2.8,1.3c2.1,1.4,2.2,4.1,0.2,5.7c-1.2,1.1-2.7,1.3-4.3,0.9c-1.7-0.5-2.9-1.6-3.8-3.1c-0.4-0.7-0.8-1.4-1.3-2.1
		c-0.5,1.9,0,3.4,0.6,4.9c0.2,0.4,0.8,0.8,1.3,0.9c2.5,0.8,5.1,0.9,7.5-0.2c2.4-1.1,3.6-3,3.7-5.7c0.1-2.6-1.3-4.2-3.5-5.2
		c-1.2-0.5-2.4-1-3.5-1.5c-0.7-0.3-1.5-0.6-2.2-1c-1.2-0.7-1.9-1.7-1.7-3.1C158.5,292.3,159.4,291.5,160.7,291z"/>
	<path fill="#FFFFFF" d="M190.7,291.7c1.9,0,1.8,2.1,3.3,3.4c-0.2-2-0.4-3.4-0.5-4.8c-6.1,0-11.9,0-17.8,0c-0.2,1.6-0.7,3-0.4,4.7
		c2.5-3.6,3-3.8,7.3-3c0.1,0.5,0.2,0.9,0.2,1.2c0,4.6,0,9.1,0,13.7c0,1.4-0.3,2.5-1.9,2.8c-0.1,0-0.2,0.3-0.3,0.6
		c3.5,0.3,7,0.2,8.4-0.4c-2.5-0.2-2.8-1.7-2.8-3.7c0.1-4,0-8,0-12c0-0.7,0.1-1.4,0.2-2.4C187.8,291.7,189.3,291.7,190.7,291.7z"/>
	<path fill="#FFFFFF" d="M102.5,427.6c1.9,2.4,3.7,4.7,5.6,7.1c2-2.5,3.7-4.8,5.6-7.1c-1.8-2.3-3.6-4.6-5.6-7.1
		C106.1,423,104.3,425.2,102.5,427.6z"/>
	<path fill="#FFFFFF" d="M296.5,427.5c1.9,2.4,3.7,4.7,5.6,7.1c2-2.5,3.7-4.7,5.6-7.1c-1.8-2.4-3.6-4.6-5.6-7.1
		C300.1,423,298.3,425.2,296.5,427.5z"/>
	<path fill="#FFFFFF" d="M140.8,310.2c3.7,0.4,7,0.2,8-0.3c-2.5-1-2.5-1-2.5-3.8c0-3.8,0-7.7,0-11.5c0-0.8-0.1-1.7,0.1-2.4
		c0.3-0.7,1-1.2,1.7-2c-2.7,0-5.1,0-7.6,0c-0.1,0.2-0.1,0.3-0.2,0.5c2.5,0.2,2.7,1.8,2.7,3.8c-0.1,3.8,0,7.5,0,11.3
		C142.9,307.5,143.2,309.3,140.8,310.2z"/>
	<path fill="#FFFFFF" d="M260.3,290.2c-2.4,0-4.8,0-7.3,0c-0.1,0.2-0.2,0.3-0.3,0.5c2.5,0.3,2.7,2,2.7,3.8c0,3.8,0,7.5,0,11.3
		c0,1.7,0.1,3.5-2,4.5c3.5,0.4,6.8,0.2,7.9-0.3c-2.4-1-2.6-1.2-2.6-3.9c0-3.6,0-7.2,0-10.8C258.7,293.5,258.3,291.5,260.3,290.2z"/>
	<path fill="#FFFFFF" d="M206.9,238.3c-0.2,0.6-0.5,1-0.6,1.5c-0.1,1-0.2,2.1-0.2,3.1c-0.2,5.3-0.3,10.7-0.4,16c0,1.3,0,2.6,1.6,3.4
		c1.1-0.7,1.4-1.7,1.4-2.7c0-0.8,0-1.6,0-2.4c-0.2-5.3-0.3-10.7-0.6-16C208.1,240.2,208.3,239.1,206.9,238.3z"/>
	<path fill="#FFFFFF" d="M202.7,240.7c-3,0.7-5,3.7-4.5,6.6c0.4,2.1,1.7,2.6,3.5,1.3C203.4,247.3,204.9,242.8,202.7,240.7z"/>
	<path fill="#FFFFFF" d="M208.9,228.1c-1.1-1.7-2.5-1.7-3.6,0c-1.5,2.4-0.7,6,1.7,7.8C209.7,234.4,210.6,230.6,208.9,228.1z"/>
	<path fill="#FFFFFF" d="M209,72.6c-1.1-1.8-2.6-1.8-3.7,0c-1.5,2.5-0.6,6,1.9,7.8C209.7,78.5,210.5,75.1,209,72.6z"/>
	<path fill="#FFFFFF" d="M211.5,240.6c-1.6,2.9-1,6.2,1.1,7.9c1.7,1.3,3,0.8,3.4-1.3C216.6,244.4,214.7,241.4,211.5,240.6z"/>
	<path fill="#FFFFFF" d="M215.6,59.2c-0.2-0.1-0.6,0-1,0c-0.4,2.7,1.2,4.6,2.5,6.5c0.2,0.2,0.8,0.4,1,0.3c0.3-0.1,0.5-0.6,0.6-0.9
		C219,63.3,217.3,60,215.6,59.2z"/>
	<path fill="#FFFFFF" d="M125.4,89.3c0.7-1.9-0.7-2.9-1.9-3.9c-1-0.8-2.1-1.7-3.5-0.9C120.6,87,122.8,89,125.4,89.3z"/>
	<path fill="#FFFFFF" d="M199.4,59.2c-2.6,0.8-4.2,3.7-3.4,6.9C198.4,65.2,200.2,61.5,199.4,59.2z"/>
	<path fill="#FFFFFF" d="M302.6,212.8c-0.9-0.9-1.9-1.7-3-2.2c-1-0.5-2.3-1-3.5,0.4c1.5,2,3.6,2.7,5.8,3.2
		C302.6,214.4,303.2,213.4,302.6,212.8z"/>
	<path fill="#FFFFFF" d="M288.6,78.9c0.1-0.3,0.1-0.8-0.1-0.9c-0.4-0.2-0.9-0.5-1.3-0.4c-1.6,0.4-2.8,1.5-3.7,2.8
		c-0.4,0.6-0.4,1.4-0.7,2.2C285.1,82.5,288.1,80.5,288.6,78.9z"/>
	<path fill="#FFFFFF" d="M114.8,210.6c-1.3,0.4-2.5,1-3.2,2.3c-0.4,0.9,0.3,1.6,1.3,1.3c1.3-0.4,2.5-0.9,3.7-1.6
		c0.6-0.3,1.1-1,1.6-1.5C117.1,209.6,115.9,210.2,114.8,210.6z"/>
	<path fill="#FFFFFF" d="M129.5,82.5c1,0.7,1.8,0.4,2-1c0,0,0.1,0.1,0.1,0.1c-0.4-0.6-0.8-1.2-1.3-1.7c-1-0.8-2-1.5-3.1-2.2
		c-0.3-0.2-1.2,0-1.3,0.2c-0.2,0.4-0.2,1.2,0.1,1.5C127.1,80.5,128.3,81.5,129.5,82.5z"/>
	<path fill="#FFFFFF" d="M289,89.6c2.4-0.5,3.9-2.1,5.2-3.9c0.6-0.8-0.1-1.5-1.1-1.4c-1.7,0.2-4.1,2.5-4.3,4.3
		C288.6,88.8,288.8,89.1,289,89.6z"/>
	<path fill="#FFFFFF" d="M285.1,86.9c0.4-0.5,0.7-1.1,0.1-1.6c-2.9-0.1-5.2,2-5.2,4.9C282,89.9,283.8,88.7,285.1,86.9z"/>
	<path fill="#FFFFFF" d="M131.6,85.7c-0.8-0.6-1.8-1.1-2.8-0.2c0.7,2.5,3,4.4,5.6,4.5C134.5,87.7,133,86.7,131.6,85.7z"/>
	<path fill="#FFFFFF" d="M250.3,154.5c0-0.8-0.8-1.6-1.8-1.6c-1,0-1.8,0.7-1.8,1.5c0,0.8,0.8,1.6,1.7,1.6
		C249.4,156,250.3,155.3,250.3,154.5z"/>
	<path fill="#FFFFFF" d="M164.1,154.3c-0.1,0.9,0.7,1.6,1.6,1.7c1,0,1.8-0.6,1.8-1.5c0.1-0.9-0.6-1.6-1.6-1.7
		C164.9,152.8,164.1,153.4,164.1,154.3z"/>
</g>
</svg>
