<?xml version="1.0" encoding="utf-8"?>
<!-- Generator: Adobe Illustrator 19.0.1, SVG Export Plug-In . SVG Version: 6.00 Build 0)  -->
<svg version="1.1" id="Layer_1" xmlns="http://www.w3.org/2000/svg" xmlns:xlink="http://www.w3.org/1999/xlink" x="0px" y="0px"
	 viewBox="-939 568.6 278.2 271.8" style="enable-background:new -939 568.6 278.2 271.8;" xml:space="preserve">
<path d="M-808.5,748.4c0.2,6.2,0.3,12.5,0.5,18.7c0,0.8,0.2,1.6,0.4,2.3c0.7,2.8,2.6,4.3,5.4,4.8c3.9,0.7,7.8,0.4,11.7-0.5
	c5.6-1.2,10.8-3.6,15.1-7.5c2.5-2.3,4.4-5,5.9-8.1c0.5-1.1,1-2.2,1.7-3.1c0.4-0.5,1.4-1.1,1.9-0.9c0.6,0.1,1.3,1,1.4,1.7
	c0.2,1.2,0.2,2.4,0,3.6c-0.7,4.9-2.1,9.5-4.2,13.9c-3.4,7.1-9.3,10.3-17,10.5c-3.4,0.1-6.9-0.2-10.3-0.5c-11.5-1.3-23-1.1-34.5,0.4
	c-0.5,0.1-1,0.1-1.4,0.1c-1.8,0-2.8-0.5-3.3-1.8c-0.6-1.4-0.2-3.2,1-4.2c0.7-0.6,1.4-1.1,2.2-1.5c4.7-2.4,7-6.4,7.6-11.5
	c0.2-1.7,0.3-3.5,0.3-5.3c0-21.8,0-43.7,0-65.5c0-2.8-0.2-5.6-0.7-8.3c-1-5-4-8-9.1-8.9c-0.9-0.2-1.7-0.3-2.6-0.5
	c-2-0.6-2.8-1.9-2.5-3.7c0.3-1.9,1.5-2.9,3.5-2.8c1.8,0.1,3.5,0.3,5.3,0.5c11.3,1,22.5,1,33.8,0.5c6.7-0.3,13.4-0.6,20.1-0.8
	c1,0,2.1,0,3.1,0.1c1.7,0.2,2.4,0.9,2.7,2.5c0.1,0.8,0.2,1.6,0.2,2.4c0.1,5.6,0.1,11.2,0.2,16.8c0,0.7,0,1.4-0.1,2.2
	c-0.1,1.1-0.6,1.8-1.8,1.8s-2.1-0.3-2.3-1.6c-0.2-1.2-0.3-2.4-0.5-3.6c-0.5-5.7-3.4-9.8-8.9-11.6c-6-1.9-12.1-2.2-18.3-1.3
	c-3.9,0.6-5.5,2.4-6.1,6.3c-0.2,1.2-0.2,2.4-0.2,3.6c0,7.7,0,15.4,0,23c0,1.4,0.1,2.9,0.4,4.3c0.4,1.8,1.5,3,3.4,3.2
	c3.9,0.5,7.8,0.5,11.7-0.5c3.1-0.8,5.1-2.9,6.4-5.7c0.8-1.6,1.3-3.4,2.1-5.1c0.4-0.9,1-1.9,1.7-2.5c1.4-1.2,3.1-0.5,3.3,1.3
	c0.2,1.4,0,2.9,0,4.3c0,6.3-0.1,12.6-0.1,18.9c0,3.4,0.4,6.9,0.7,10.3c0,0.8,0,1.6-0.1,2.4c-0.2,1-0.8,1.6-1.8,1.7
	c-1.1,0.1-2-0.2-2.3-1.3c-0.3-1-0.4-2-0.6-3c-0.6-2.5-1.1-5-2-7.4c-1.2-3.1-3.7-4.9-6.9-5.3c-3.8-0.4-7.7-0.5-11.5-0.4
	c-2.5,0-3.7,1.3-4.1,3.9c-0.3,1.7-0.4,3.5-0.4,5.3C-808.5,739.5-808.4,744-808.5,748.4C-808.3,748.4-808.4,748.4-808.5,748.4z
	 M-825.6,775.8c2-0.4,3.3-1.6,4.2-3.3c0.7-1.3,1.2-2.6,1.6-4c1.1-4.3,1.2-8.7,1.2-13.1c0-20.7,0-41.4,0-62.1c0-2-0.1-4-0.3-6
	c-0.3-2.6-0.9-5-2.3-7.3c-1.1-1.7-2.5-3-4.4-3.7c2.1,2.8,3.4,5.8,3.8,9.2c0.3,2.1,0.5,4.3,0.5,6.4c0.1,9.3,0,18.6,0,27.8
	c0,12.6,0,25.1,0,37.7C-821.4,763.8-821.8,770.2-825.6,775.8z M-790.2,776.7c9,3.8,22-4.6,21-13.4
	C-774.2,770.9-781.4,774.9-790.2,776.7z M-786.4,675.3c1.7,0.6,3.5,1,5.1,1.8c1.6,0.7,3.1,1.7,4.4,2.8c1.3,1.2,2.2,2.8,3.3,4.2
	c0.1-1.7-0.1-3.3-0.5-4.9c-0.7-2.6-2.4-4-5-4.5C-781.6,674.3-784,674.4-786.4,675.3z M-785.3,717c-0.2,0-0.3-0.1-0.5-0.1
	c-0.9,1-1.8,2-2.7,3c-0.8,1-2.5,1-2.8,2.4c2.1,1.2,4.1,2.3,6.4,3.5C-785,722.7-785.1,719.9-785.3,717z"/>
<path d="M-867.9,670.3c-0.4,2.6-1.7,3.8-3.9,3.7c-3.6-0.1-6.5-3.7-5.8-7.3c1-5.1,6.3-8.3,11.4-6.5c1.7,0.6,3.4,1.8,4.8,3
	c3.1,2.8,4.9,6.4,6.6,10.2c2.2,5,3.4,10.3,4.4,15.6c1.5,7.2,3,14.4,4.4,21.6c0.4,2.3,0.5,4.6,0.8,6.9c2.2,0,3.1,0.4,3.1,1.5
	c0.1,1.1-0.6,1.5-3,1.9c0.1,1.2,0.1,2.3,0.2,3.4c1,0.3,2,0.4,2.8,0.7c0.3,0.1,0.5,0.7,0.5,1c0.1,1.1-0.8,1.5-3.1,1.5
	c-0.2,3.6-0.3,7.2-0.5,10.7c-0.8,10.7-2.8,21.1-7.3,30.9c-1.2,2.5-2.2,5.1-3.3,7.7c-0.4,1-0.7,2-0.8,3c-0.2,1.9,1.5,3,3.2,2
	c0.9-0.5,1.6-1.2,2.5-1.8c0.8,2.2-0.6,4.5-3.2,5.5c-2.9,1.1-4.7-0.2-6.8-5.1c-0.2,0.5-0.3,0.8-0.5,1c-5.8,7.2-13.5,11.1-22.4,12.7
	c-4.5,0.8-9,1.4-13.6,0.6c-0.6-0.1-1.3-0.2-1.9-0.4c-7.2-1.7-10.3-6.9-10-14c0.2-5,2.5-9.1,6.6-12c5.4-4,11.6-5.8,18.3-5.3
	c4.3,0.3,7.1,2.8,7.4,6.5c0.1,1.4-0.3,3-0.9,4.4c-0.9,2.1-2.6,3.6-4.6,4.8c-1.2,0.7-2.3,0.6-2.7-0.3c-0.5-1.1,0.3-1.6,1-2.1
	c0.9-0.7,1.9-1.2,2.7-2c2.3-2.1,1.9-4.9-0.9-6.2c-1.7-0.8-3.6-1-5.4-0.7c-5.9,0.9-11,3.3-15.2,7.4c-2.4,2.3-3.3,5.2-2.7,8.5
	c0.6,3.4,2.5,5.5,5.6,6.5c2.9,0.9,6,1.1,9,0.8c15.8-1.4,27.1-9.3,33.9-23.5c3.1-6.5,5.9-13.2,7.1-20.3c1.5-9.5,2.2-19.1,1.4-28.7
	c-1-11.6-2.7-23-5.5-34.3c-1-3.9-2.4-7.8-4-11.5c-1.1-2.4-2.8-4.7-4.4-6.8c-1.3-1.7-3.1-2.7-5.3-3c-2-0.3-3.7,0.1-4.9,1.8
	c-1.2,1.8-1.3,3.8-0.4,5.7c0.4,1,1.6,1.5,2.9,1.2C-869.8,671.1-869,670.7-867.9,670.3z"/>
<path d="M-731.9,670.3c1.1,0.4,1.8,0.8,2.5,1c2,0.5,3.3-0.4,3.6-2.3c0.8-4.8-2.7-7.6-7.2-5.9c-2,0.8-3.7,2.1-4.8,3.8
	c-1.6,2.5-3.1,5-4.3,7.7c-2.7,6-4,12.5-5.1,18.9c-1.2,7.2-2.1,14.4-3.1,21.6s-0.5,14.3-0.2,21.5c0.5,11.1,3.8,21.4,8.5,31.2
	c6,12.4,15.9,19.8,29.2,22.5c3.7,0.7,7.5,0.8,11.2,0.2c3.3-0.6,6.2-1.7,7.4-5.2c1.2-3.6,0.8-7-1.9-9.8c-4.4-4.6-9.9-7.2-16.2-7.9
	c-1.5-0.2-3.2,0.2-4.7,0.7c-3,1.2-3.4,4.2-1,6.3c0.9,0.8,1.9,1.4,2.9,2.1c0.7,0.5,1.2,1.1,0.7,2c-0.5,0.7-1.3,1-2.1,0.5
	c-3-1.7-5.3-4-6-7.4c-0.7-3.7,1.3-6.9,4.9-8c1-0.3,2-0.5,3-0.6c6.2-0.3,11.9,1.3,17,4.8c5.6,3.8,7.9,9.2,7.1,16
	c-0.7,5.8-4.5,10.1-10.8,10.8c-14.3,1.6-27-1.6-36.8-12.9c-0.2-0.3-0.5-0.5-0.8-0.8c-1.6,4.5-3.7,5.9-6.6,4.8
	c-1.5-0.6-2.7-1.7-3.5-3.2c-0.4-0.7-0.6-1.5,0.4-2.3c0.6,0.5,1.1,1,1.7,1.4c0.9,0.6,1.8,1.1,2.9,0.5c1.1-0.6,1.1-1.7,0.9-2.8
	c-0.2-0.9-0.4-1.7-0.8-2.5c-1.2-2.9-2.4-5.8-3.6-8.6c-3.8-8.6-5.8-17.6-6.6-26.9c-0.4-4.1-0.4-8.3-0.6-12.4c0-0.4-0.1-0.8-0.1-1.1
	c-2.4,0-3.3-0.5-3.2-1.7c0.1-1.1,0.8-1.5,3.2-1.4c0-1.2,0-2.5,0-3.7c-2.1-0.3-2.8-0.8-2.7-1.9c0.1-1,0.7-1.4,3.1-1.6
	c0.3-2.7,0.5-5.5,1-8.3c1.4-7.2,3-14.4,4.5-21.6c1-5,2.3-10,4.4-14.7c1.7-3.8,3.8-7.4,6.9-10.3c2.4-2.2,5.1-3.2,8.4-2.8
	s6.3,3.1,7.2,6.3c0.9,3.4-1.3,7-4.7,7.8C-729.4,674.5-731,673.4-731.9,670.3z"/>
<path d="M-731,800.6c0.4-0.6,0.8-1.3,1.4-1.7c3.4-2.2,8.6-2.5,11.2,2.7c0.6,1.3,1,2.7,1.2,4.1c0.4,2.6-0.4,4.8-2.4,6.4
	c-1.4,1.1-3.1,1.9-4.7,2.8c-0.7,0.4-1.4,0.6-2.5,1.1c0.9,0.6,1.5,1.2,2.1,1.5c6.5,3.2,13.1,6.4,19.6,9.6c0.4,0.2,0.7,0.3,1.1,0.4
	c2.2,0.7,3.4-0.1,3.5-2.4c0-1.8-0.7-2.4-2.5-2.3c-0.7,0-1.4,0.1-2.1,0.1c0.2-2.3,1.2-3.3,3.1-3c3,0.4,4.9,2.7,4.6,5.7
	c-0.1,1.3-0.6,2.6-1,4c0.4,0.2,0.8,0.5,1.2,0.6c6.3,1.8,12.6,3.6,18.9,5.2c2.3,0.6,4.8,0.6,7.1,0.1c4.3-1,6.4-4.4,5.2-8.4
	c-0.8-2.7-3.5-4.7-6.3-4.7c-1.9,0-2.6,0.8-2.4,2.7c0.1,0.9,0.4,1.7,0.6,2.5c0.1,0.6,0.3,1.2,0.4,1.8c-1.3,0.2-1.9-0.5-2.2-1.3
	c-0.5-1.2-1-2.5-1.2-3.9c-0.3-3,1.2-4.7,4.2-4.9c5.3-0.3,11,4.1,11.9,9.3c0.8,4.7-1.3,9.9-7.3,11.2c-3.9,0.9-7.8,0.5-11.7-0.2
	c-11.9-2.2-22.9-6.9-33.5-12.6c-0.7-0.4-1.4-0.7-2.6-1.4c0.4,1,0.6,1.6,0.9,2.2c0.9,1.8,1.4,3.7,1.2,5.8c-0.2,2.2-1.3,3.7-3.4,4.5
	c-6.1,2.1-11.8-2.3-11-8.7c0-0.3,0.1-0.6,0.3-1c1.1,0.4,1.3,1.3,1.8,2c0.6,1,1.1,2,1.8,2.8c1.1,1.3,2.5,1.5,3.9,0.9s2.2-1.7,2-3.2
	c-0.2-1.3-0.4-2.8-1.1-3.9c-1.3-2-2.8-4-4.6-5.5c-13-10.5-27.1-19.2-42.9-25c-3.8-1.4-7.8-2.3-12-1.8c-0.6,0.1-1.3,0.1-1.9,0.3
	c-3.1,0.8-5.7,2.3-6.4,5.7c-0.7,3.7,0.4,6.8,3.2,9.3c0.8,0.7,2,1.1,3,1.3c1.6,0.3,3.1,0,4.1-1.4s0.9-3.1,0.3-4.6
	c-0.5-1.2-1.7-1.7-3-1.4c-1.5,0.4-2,1.6-1.2,2.9c0.3,0.5,0.6,0.9,1,1.4c-1.3,0.7-2.1,0.1-2.9-0.6c-1.8-1.9-0.7-5.8,1.6-6.4
	c3.2-0.9,6,0.3,7.2,3.4c1.8,4.7-0.3,8.8-5.2,9.9c-4.3,1-7.8-0.7-9.7-4.6c-1.4-2.9-2-6.1-1.9-9.3c0.1-4.7,2.3-7.4,6.7-8.8
	c5.2-1.6,10.6-1.9,15.8-0.2c3.6,1.2,7.3,2.6,10.6,4.4c7.8,4.3,15.4,8.8,23,13.4c2.6,1.5,5.2,2.4,8.2,2.2c2.2-0.1,3.9-0.9,4.7-3.1
	c0.8-2.3,0.6-4.4-1-6.3c-1.1-1.3-2.6-1.4-4.2-1.3c-1.2,0.1-2.3,0.2-3.5,0.3C-730.7,801.1-730.9,800.9-731,800.6z"/>
<path d="M-819.7,808.5c0.4-0.6,0.6-0.9,0.8-1.2c0.8-1.3,0.7-2.1-0.1-2.8c-0.9-0.8-2.4-0.7-3.3,0.1c-2,1.9-1.1,5.9,1.6,6.7
	c1.9,0.6,3.6,0.1,5.2-1.1c2.7-2.1,4.1-6.5,3.1-9.8c-0.8-2.7-2.8-4.2-5.3-5.1c-3.1-1-6.3-0.9-9.5-0.3c-5.4,1.1-10.5,3.3-15.5,5.7
	c-10.2,5-19.9,10.9-29,17.7c-2,1.5-4,3.2-5.8,5c-1.7,1.7-3.1,3.7-3.6,6.1c-0.4,2.1,0.3,3.8,1.9,4.5c1.8,0.8,3.4,0.2,4.7-1.7
	c0.4-0.7,0.7-1.4,1.1-2.1c0.4-0.7,0.8-1.3,1.3-2c0.3,0.4,0.5,0.6,0.6,0.8c1.1,4.5-2.6,9.4-7.3,9.6c-0.2,0-0.3,0-0.5,0
	c-5.5-0.1-7.9-3.3-6.3-8.6c0.4-1.4,1.1-2.6,1.8-4.3c-1,0.5-1.8,0.9-2.5,1.3c-9.9,5.4-20.1,9.8-31.1,12.2c-4.5,1-9,1.7-13.5,0.9
	c-3.7-0.7-6.5-2.5-7.6-6.4c-1.1-4-0.4-7.6,2.7-10.5c2.3-2.2,5-3.5,8.1-3.6c3.8-0.1,5.6,2.2,4.8,5.9c-0.3,1.1-0.7,2.1-1.2,3.1
	c-0.3,0.7-0.9,1.3-2.2,1.1c0.2-0.9,0.5-1.6,0.7-2.3c0.2-0.6,0.4-1.2,0.5-1.8c0.3-2-0.5-2.9-2.4-2.9c-3-0.1-5.7,2.2-6.5,5.1
	c-0.8,3.2,0.6,6,3.6,7.3c2.7,1.2,5.6,1.2,8.5,0.6c6.8-1.3,13.5-3.3,20.1-5.6c0.2-0.1,0.4-0.2,0.6-0.4c-0.3-1.2-0.8-2.3-1-3.4
	c-0.5-2.7,0.9-5.1,3.6-5.9c2.4-0.7,3.4-0.2,4.3,2.4c-0.6,0.8-1.4,0.4-2.2,0.3c-0.9-0.1-1.9-0.1-2.3,0.9c-0.5,1.2-0.4,2.4,0.3,3.4
	c0.7,0.9,1.6,0.9,2.6,0.6c0.7-0.3,1.5-0.5,2.2-0.9c6.1-3,12.2-6,18.3-9c0.8-0.4,1.6-1,2.6-1.7c-0.7-0.4-1.1-0.6-1.6-0.8
	c-0.9-0.4-1.9-0.8-2.9-1.2c-6.5-3.2-6.2-8.9-3.4-13.5c2.3-3.7,7.7-4.3,11-1.5c0.4,0.4,0.6,1,1.1,1.8c-0.9,0.1-1.4,0.1-1.9,0.1
	s-1-0.1-1.4-0.1c-4.8-0.4-7.4,2.8-6,7.4c0.7,2.1,2.2,3,4.3,3.3c3.1,0.3,6-0.5,8.7-2.1c7.3-4.3,14.6-8.6,21.9-12.8
	c4.2-2.4,8.7-4.4,13.5-5.4c4.9-1.1,9.7-0.7,14.4,0.8c4.1,1.3,6.1,4.1,6.2,8.4c0.1,3.3-0.4,6.5-1.9,9.6c-2.3,4.8-7.8,6.4-12.4,3.6
	c-3.7-2.3-4.3-8.3-1-11.2c1.6-1.4,4.4-1.7,6.3-0.7c1.5,0.8,2.2,3,1.6,4.9C-816.5,808.1-817.4,808.6-819.7,808.5z"/>
<path d="M-817.3,617.4c0-1-0.2-2.2,0-3.2c0.3-1.6-0.3-2.8-1-4.1c-1.8-3.6-3.5-7.2-5.1-10.8c-0.7-1.7-1.2-3.6-1.5-5.5
	c-0.5-3.1,0.9-5.4,3.6-7c2.1-1.2,4.4-2,6.8-2.1c3.3-0.2,6.7-0.2,10.1-0.2c0.9,0,1.9,0.1,2.8,0.2c1-1.9-0.1-3-1.4-4.2
	c0.7-1.3,2.7-2.2,1.3-4.3c-0.6,0-1.3-0.1-2.2-0.1c-0.2,0.6-0.5,1.1-0.7,1.7c-0.9,0-1.7,0-2.7,0c0-1.9,0-3.7,0-5.6
	c1.3,0,2.5-0.7,3.4,0.9c0.2,0.4,1.6,0.2,2.5,0.3c0.1-1.1,0.6-2-0.6-2.7c-0.4-0.3-0.4-1.2-0.6-2.1c1.8,0,3.2,0,4.9,0
	c0.2,0.9,0.7,1.8-0.7,2.5c-0.4,0.2-0.3,1.3-0.5,2.1c1.4,0.3,2.5,0.9,3.5-0.6c0.3-0.5,1.7-0.4,2.7-0.5c0,2.1,0,3.9,0,5.9
	c-0.9,0-1.7,0.1-2.6,0.1c-0.2-0.6-0.4-1.2-0.7-1.8c-0.9,0-1.7,0-2.7,0c-0.1,0.8-0.2,1.5-0.2,2.3c0.6,0.5,1.2,1,1.8,1.6
	c-0.5,1.5-2.9,2.2-1.4,4.5c1.1-0.1,2.4-0.1,3.8-0.2c3.9-0.3,7.8-0.2,11.7,0.8c1.4,0.3,2.8,0.9,4,1.5c3.2,1.7,4.5,4.4,3.8,8
	c-0.3,1.7-0.9,3.4-1.6,5c-1.4,3.3-3,6.5-4.6,9.7c-0.9,1.7-1.6,3.5-1.3,5.5c0.1,0.8,0,1.6,0,2.3
	C-784.2,617.7-813.7,617.9-817.3,617.4z M-803.4,586.5c-2.9,0.7-5.6,1.2-8.2,2c-1.7,0.5-3.4,1.4-4.9,2.4c-1.6,1-2.2,2.7-1.8,4.6
	c0.1,0.6,0.3,1.3,0.5,1.9c1.8,5.3,4.7,9.9,7.8,14.5c0.3,0.4,0.9,0.8,1.3,0.8c1.7,0.1,3.5,0,5.3,0
	C-803.4,603.9-803.4,595.4-803.4,586.5z M-796.2,586.7c0,8.7,0,17.1,0,25.9c1.9,0,3.6,0.1,5.3,0c0.5,0,1-0.4,1.3-0.9
	c3.1-4.7,6.1-9.3,7.8-14.8c1.1-3.7,0.4-5.5-3-7.3C-788.4,587.9-792.2,587.1-796.2,586.7z M-787.6,612.3c1.4,0.7,2.2,0.3,2.8-0.9
	c2.2-4.6,4.4-9.2,6.5-13.8c0.5-1,0.7-2.1,0.9-3.2c0.3-1.9-0.4-3.5-1.9-4.6c-1.6-1.2-3.5-1.8-5.5-2c0.6,0.5,1.2,0.8,1.8,1.2
	c3.2,2,4.1,4.6,3,8.2c-0.3,0.9-0.6,1.8-1,2.7c-1.7,3.3-3.3,6.5-5,9.8C-786.5,610.4-787,611.3-787.6,612.3z M-812.2,612.3
	c-1.6-3-3.2-5.8-4.7-8.8c-1-2.1-2.1-4.2-2.8-6.3c-1.3-3.7-0.2-6.3,3.1-8.4c0.5-0.3,1-0.7,1.6-1c-0.6-0.1-1,0-1.5,0.1
	c-5.7,1.7-7.1,4.4-4.8,9.9c1.9,4.6,4.3,9.1,6.4,13.6C-814.4,612.5-813.6,612.9-812.2,612.3z M-797.3,612.2c-0.1-1.2-1.3-2.4-2.6-2.4
	c-1.3,0-2.5,1.2-2.5,2.5c0,1.3,1.5,3,2.7,2.9C-798.6,615.1-797.3,613.4-797.3,612.2z"/>
<path d="M-875.4,650.1c-0.5-3.2,0.8-5.8,3.1-7.9c1.2-1.1,2.7-1.7,4.4-1.6c2.7,0.3,4.1,2.4,3.3,4.9c-0.5,1.5-1.1,3-3.4,3.1
	c0.2-0.6,0.3-1.1,0.4-1.6c0.1-0.6,0.3-1.3,0.2-1.9c-0.3-1.8-1.5-2.2-2.8-1c-2.6,2.3-2.7,5.6,0,7.8c1.7,1.4,3.6,2.7,5.6,3.7
	c10.7,5.4,22,7.4,33.7,4.3c10.9-2.8,24.3-12.9,26.3-29.9c0.1-1.2,0.1-2.6-0.3-3.8c-0.7-2.4-2.8-3.1-4.9-2c-2.5,1.4-4.4,3.5-5.7,6
	c-0.8,1.6-1.4,3.4-1.9,5.1c-0.3,1-0.2,2.1,0.7,2.8c1,0.7,1.8,0.1,2.7-0.2c0.4-0.2,0.8-0.4,1.5-0.8c0.1,0.6,0.4,1,0.2,1.3
	c-0.9,2-3.3,3-5.4,2.4c-2.2-0.7-3.3-2.3-2.8-4.8c1.2-6.2,4.6-11,9.4-14.9c0.8-0.6,1.9-0.9,2.9-1.1c3-0.5,5.1,0.8,5.7,3.8
	c0.4,2.2,0.7,4.6,0.5,6.9c-1,8.5-4.2,16.4-8.7,23.7c-1.3,2.1-3.2,3.6-5.3,4.8c-4.5,2.7-9.5,4.2-14.7,5c-7.1,1.2-14.2,1.3-21.2-0.7
	c-5.9-1.7-11.4-4.1-16.7-7.1C-871.6,655-874,653-875.4,650.1L-875.4,650.1z"/>
<path d="M-731.4,648.6c-2.5-0.7-4.1-3-3.8-5.1c0.4-2,2.4-3.3,4.8-3c4.9,0.7,7.9,7.4,5,11.4c-1.1,1.4-2.5,2.8-4,3.7
	c-10.4,6.4-21.5,10.6-34,9.5c-5.9-0.5-11.7-1.8-17.1-4.2c-4.2-1.9-7.5-4.7-9.7-8.9c-3.5-6.9-6.5-13.9-7.1-21.7c-0.2-2,0-4,0.4-5.9
	c0.8-3.7,4.1-5.1,7.6-3.6c0.2,0.1,0.4,0.2,0.6,0.4c5,4,8.7,8.9,9.7,15.4c0.5,2.9-1.4,4.8-4.3,4.7c-1.7,0-2.9-0.9-3.8-2.2
	c-0.2-0.4-0.1-1-0.2-1.7c1,0.5,1.7,0.8,2.5,1.1c1.6,0.6,2.7-0.1,2.8-1.8c0-0.5,0-1-0.1-1.4c-1.1-4.1-3.2-7.7-6.6-10.3
	c-1.2-0.9-2.5-1.7-4-0.9c-1.6,0.8-2.2,2.2-2.2,4c0.1,5.6,1.6,10.8,4.6,15.4c6.3,9.8,15.1,16.1,27,17.5c10.9,1.3,21-1,30.4-6.4
	c1.5-0.8,2.8-1.8,4.1-2.9c2.5-2.3,1.9-6.3-1-8c-0.9-0.5-1.6-0.3-1.9,0.6c-0.3,0.7-0.3,1.5-0.2,2.3
	C-732,647.2-731.7,647.8-731.4,648.6z"/>
<path d="M-876.4,742.4c0.5-1.1,0.8-1.7,1.1-2.3c1.4-2.4,2.9-4.8,4.2-7.3c2.6-5.2,6.9-7.5,12.6-7.6c2.4,0,4.8,0.3,7-0.9
	c0.4-0.2,1,0.2,1.5,0.3c0,0.3,0,0.6-0.1,0.6c-2.5,1.5-4.1,3.8-5.6,6.3c-3.4,5.9-8.9,8.7-15.4,9.9
	C-872.6,741.8-874.2,742-876.4,742.4z"/>
<path d="M-723.5,742.4c-4.4-0.8-8.3-1.3-12-3.1c-4-2-7.2-4.8-9.2-8.8c-1-2-2.4-3.6-4.2-4.7c-0.3-0.2-0.6-0.5-0.9-0.7
	c0.5-0.9,1.1-1.1,1.8-0.7c1.9,1,3.9,0.8,5.9,0.8c0.6,0,1.3,0,1.9,0c5,0.3,8.8,2.4,11.2,6.9c1.5,2.8,3.2,5.5,4.8,8.3
	C-724,740.9-723.9,741.5-723.5,742.4z"/>
<path d="M-719.3,712.6c-6.6,6.9-13.6,11.4-23.3,9.5c-1.1-0.2-2.4,0-3.5,0.1c-1,0.1-1.9,0.5-2.9,0.8c-0.4-1,0-1.6,0.7-1.9
	c1.8-0.9,2.9-2.4,4.1-4c0.4-0.5,0.8-1,1.2-1.5c3.3-3.9,7.4-5.6,12.5-4.8c3.2,0.5,6.5,0.9,9.7,1.3
	C-720.5,712.2-720.1,712.4-719.3,712.6z"/>
<path d="M-880.4,712.7c0.8-0.3,1-0.5,1.3-0.5c3.4-0.5,6.8-0.9,10.2-1.4c5.3-0.8,9.4,1.2,12.6,5.2c1.5,1.9,2.8,4.1,5.2,5.2
	c0.4,0.2,0.5,0.9,0.7,1.3c-0.3,0.2-0.5,0.3-0.6,0.3c-2.6-1-5.2-1.1-8-0.6c-6.8,1-12.5-1.6-17.5-5.9
	C-877.7,715.3-878.9,714.1-880.4,712.7z"/>
<path d="M-799.8,830.8c-1.6-0.8-1.6-2.2-1.6-3.4c0.1-5.3,0.3-10.7,0.4-16c0-1,0.1-2.1,0.2-3.1c0.1-0.5,0.4-0.9,0.6-1.5
	c1.4,0.7,1.2,1.9,1.2,2.9c0.2,5.3,0.4,10.7,0.6,16c0,0.8,0,1.6,0,2.4C-798.4,829.2-798.7,830.1-799.8,830.8z"/>
<path d="M-804.3,809.2c2.2,2.1,0.7,6.6-1,7.9c-1.7,1.3-3.1,0.8-3.5-1.3C-809.3,812.9-807.3,809.9-804.3,809.2z"/>
<path d="M-799.9,804.5c-2.4-1.9-3.2-5.5-1.7-7.8c1.1-1.7,2.4-1.7,3.6,0C-796.4,799.1-797.3,802.9-799.9,804.5z"/>
<path d="M-799.8,648.9c-2.5-1.7-3.3-5.3-1.9-7.8c1.1-1.8,2.6-1.8,3.7,0C-796.5,643.6-797.3,647-799.8,648.9z"/>
<path d="M-795.5,809.1c3.1,0.8,5.1,3.8,4.6,6.6c-0.4,2.1-1.7,2.6-3.4,1.3C-796.5,815.3-797.1,812-795.5,809.1z"/>
<path d="M-792.4,627.7c0.4,0,0.8-0.1,1,0c1.7,0.8,3.4,4,3.1,5.8c-0.1,0.3-0.3,0.8-0.6,0.9s-0.9,0-1-0.3
	C-791.2,632.3-792.8,630.4-792.4,627.7z"/>
<path d="M-881.6,657.8c-2.6-0.4-4.8-2.3-5.4-4.8c1.5-0.9,2.6,0,3.5,0.9C-882.3,654.9-880.9,655.9-881.6,657.8z"/>
<path d="M-811,634.6c-0.8-3.1,0.7-6.1,3.4-6.9C-806.8,630-808.6,633.7-811,634.6z"/>
<path d="M-711,779.5c1.3-1.4,2.5-0.9,3.5-0.4c1.1,0.5,2.2,1.3,3,2.2c0.6,0.6,0,1.6-0.8,1.4C-707.4,782.2-709.5,781.6-711,779.5z"/>
<path d="M-724,651.1c0.2-0.8,0.3-1.6,0.7-2.2c0.9-1.4,2.1-2.4,3.7-2.8c0.4-0.1,0.9,0.1,1.3,0.4c0.2,0.1,0.2,0.6,0.1,0.9
	C-718.9,649-721.9,651-724,651.1z"/>
<path d="M-888.7,779.6c-0.5,0.5-1,1.2-1.6,1.5c-1.2,0.6-2.4,1.2-3.7,1.6c-1,0.3-1.7-0.4-1.3-1.3c0.6-1.3,1.9-1.9,3.2-2.3
	C-891.1,778.7-889.9,778.1-888.7,779.6z"/>
<path d="M-875.5,650c-0.2,1.3-0.9,1.7-2,1c-1.3-0.9-2.5-2-3.6-3.1c-0.3-0.3-0.2-1.1-0.1-1.5c0.1-0.2,1-0.4,1.3-0.2
	c1.1,0.6,2.1,1.4,3.1,2.2C-876.2,648.8-875.9,649.5-875.5,650C-875.4,650.1-875.5,650-875.5,650z"/>
<path d="M-718,658.1c-0.1-0.5-0.3-0.8-0.3-1c0.2-1.7,2.7-4.1,4.3-4.3c1.1-0.1,1.7,0.6,1.1,1.4C-714.1,655.9-715.6,657.5-718,658.1z"
	/>
<path d="M-727,658.6c0-2.9,2.2-5,5.2-4.9c0.6,0.6,0.3,1.1-0.1,1.6C-723.2,657.2-725,658.4-727,658.6z"/>
<path d="M-872.6,658.5c-2.6-0.1-4.8-1.9-5.6-4.5c1-0.9,1.9-0.4,2.8,0.2C-874,655.2-872.5,656.2-872.6,658.5z"/>
<path d="M-756.7,723c0,0.8-0.9,1.5-1.9,1.5s-1.8-0.8-1.7-1.6c0-0.8,0.9-1.5,1.8-1.5C-757.5,721.4-756.7,722.2-756.7,723z"/>
<path d="M-839.5,723c-0.1,0.9-0.9,1.5-1.8,1.5c-1,0-1.7-0.8-1.6-1.7c0.1-0.9,0.8-1.5,1.8-1.5C-840.1,721.4-839.4,722.1-839.5,723z"
	/>
</svg>
